{
.appVersion = "3337";
.formatVersion = 3;
DisplayStrings = (
"c¢",
"§",
"/_stem-v-lowercase-xH ɑ"
);
axes = (
{
name = Weight;
tag = wght;
}
);
customParameters = (
{
name = vendorID;
value = dmol;
},
{
name = fsType;
value = (
);
},
{
name = unicodeRanges;
value = (
0,
1,
2,
3,
6,
7,
29,
31,
32,
33,
35,
36,
37
);
},
{
name = "Keep Kerning in one Lookup";
value = 1;
}
);
date = "2025-01-27 05:33:57 +0000";
familyName = Gyrotrope;
fontMaster = (
{
axesValues = (
400
);
id = m01;
metricValues = (
{
over = 32;
pos = 1632;
},
{
over = -32;
},
{
over = -32;
pos = -512;
},
{
over = 32;
pos = 1536;
},
{
over = 24;
pos = 1152;
},
{
},
{
over = 24;
pos = 576;
},
{
pos = 768;
},
{
}
);
name = Regular;
stemValues = (
192,
160,
176,
144,
160,
128,
128,
108
);
userData = {
GSCornerRadius = 60;
};
visible = 1;
},
{
axesValues = (
900
);
iconName = Bold;
id = m002;
metricValues = (
{
over = 32;
pos = 1632;
},
{
over = -32;
},
{
over = -32;
pos = -512;
},
{
over = 32;
pos = 1536;
},
{
over = 24;
pos = 1152;
},
{
},
{
over = 24;
pos = 576;
},
{
pos = 768;
},
{
}
);
name = Black;
stemValues = (
432,
360,
396,
324,
360,
288,
288,
244
);
userData = {
GSCornerRadius = 80;
};
visible = 1;
}
);
glyphs = (
{
glyphname = A;
kernLeft = A;
kernRight = A;
lastChange = "2025-01-27 01:57:17 +0000";
layers = (
{
anchors = (
{
name = bottom;
pos = (1062,0);
},
{
name = ogonek;
pos = (1991,10);
},
{
name = top;
pos = (1062,1536);
}
);
layerId = m01;
shapes = (
{
closed = 1;
nodes = (
(180,0,ls),
(224,0,o),
(254,16,o),
(276,55,cs),
(485,416,l),
(1639,416,l),
(1848,55,ls),
(1870,16,o),
(1900,0,o),
(1944,0,cs),
(1991,0,ls),
(2054,0,o),
(2078,40,o),
(2046,96,cs),
(1246,1481,ls),
(1224,1520,o),
(1194,1536,o),
(1150,1536,cs),
(974,1536,ls),
(930,1536,o),
(900,1520,o),
(878,1481,cs),
(78,96,ls),
(46,40,o),
(71,0,o),
(134,0,cs)
);
},
{
closed = 1;
nodes = (
(1040,1376,l),
(1084,1376,l),
(1547,576,l),
(577,576,l)
);
}
);
width = 2124;
},
{
anchors = (
{
name = bottom;
pos = (1062,0);
},
{
name = ogonek;
pos = (1991,10);
},
{
name = top;
pos = (1062,1536);
}
);
layerId = m002;
shapes = (
{
closed = 1;
nodes = (
(436,0,ls),
(480,0,o),
(514,15,o),
(532,55,cs),
(606,216,l),
(1518,216,l),
(1592,55,ls),
(1610,15,o),
(1644,0,o),
(1688,0,cs),
(1993,0,ls),
(2056,0,o),
(2075,40,o),
(2049,96,cs),
(1411,1481,ls),
(1393,1520,o),
(1359,1536,o),
(1315,1536,cs),
(809,1536,ls),
(765,1536,o),
(731,1520,o),
(713,1481,cs),
(75,96,ls),
(49,40,o),
(68,0,o),
(131,0,cs)
);
},
{
closed = 1;
nodes = (
(1048,1176,l),
(1076,1176,l),
(1352,576,l),
(772,576,l)
);
}
);
width = 2124;
}
);
unicode = 65;
},
{
glyphname = AE;
kernLeft = A;
kernRight = E;
lastChange = "2025-01-01 18:14:51 +0000";
layers = (
{
anchors = (
{
name = bottom;
pos = (1200,0);
},
{
name = top;
pos = (1200,1536);
}
);
layerId = m01;
shapes = (
{
closed = 1;
nodes = (
(182,0,ls),
(226,0,o),
(256,16,o),
(278,55,cs),
(477,400,l),
(1096,400,l),
(1096,80,ls),
(1096,28,o),
(1124,0,o),
(1176,0,cs),
(2232,0,ls),
(2284,0,o),
(2312,28,o),
(2312,80,cs),
(2312,96,ls),
(2312,148,o),
(2284,176,o),
(2232,176,cs),
(1288,176,l),
(1288,680,l),
(2044,680,ls),
(2096,680,o),
(2124,708,o),
(2124,760,cs),
(2124,776,ls),
(2124,828,o),
(2096,856,o),
(2044,856,cs),
(1288,856,l),
(1288,1360,l),
(2232,1360,ls),
(2284,1360,o),
(2312,1388,o),
(2312,1440,cs),
(2312,1456,ls),
(2312,1508,o),
(2284,1536,o),
(2232,1536,cs),
(976,1536,ls),
(932,1536,o),
(902,1520,o),
(880,1481,cs),
(80,96,ls),
(48,40,o),
(73,0,o),
(136,0,cs)
);
},
{
closed = 1;
nodes = (
(1032,1360,l),
(1096,1360,l),
(1096,576,l),
(579,576,l)
);
}
);
width = 2400;
},
{
anchors = (
{
name = bottom;
pos = (1318,0);
},
{
name = top;
pos = (1318,1536);
}
);
layerId = m002;
shapes = (
{
closed = 1;
nodes = (
(439,0,ls),
(483,0,o),
(517,15,o),
(535,55,cs),
(609,216,l),
(1079,216,l),
(1079,80,ls),
(1079,28,o),
(1107,0,o),
(1159,0,cs),
(2342,0,ls),
(2394,0,o),
(2422,28,o),
(2422,80,cs),
(2422,316,ls),
(2422,368,o),
(2394,396,o),
(2342,396,cs),
(1511,396,l),
(1511,570,l),
(2154,570,ls),
(2206,570,o),
(2234,598,o),
(2234,650,cs),
(2234,886,ls),
(2234,938,o),
(2206,966,o),
(2154,966,cs),
(1511,966,l),
(1511,1140,l),
(2342,1140,ls),
(2394,1140,o),
(2422,1168,o),
(2422,1220,cs),
(2422,1456,ls),
(2422,1508,o),
(2394,1536,o),
(2342,1536,cs),
(812,1536,ls),
(768,1536,o),
(735,1521,o),
(716,1481,cs),
(78,96,ls),
(51,38,o),
(71,0,o),
(134,0,cs)
);
},
{
closed = 1;
nodes = (
(1051,1176,l),
(1079,1176,l),
(1079,576,l),
(775,576,l)
);
}
);
width = 2510;
}
);
unicode = 198;
},
{
glyphname = B;
kernLeft = H;
kernRight = H;
lastChange = "2025-01-27 03:47:36 +0000";
layers = (
{
anchors = (
{
name = bottom;
pos = (1072,0);
},
{
name = center;
pos = (520,384);
},
{
name = top;
pos = (1072,1536);
}
);
layerId = m01;
shapes = (
{
closed = 1;
nodes = (
(1528,0,ls),
(1880,0,o),
(2048,84,o),
(2048,412,cs),
(2048,444,ls),
(2048,619,o),
(1967,726,o),
(1783,768,c),
(1924,816,o),
(1984,919,o),
(1984,1092,cs),
(1984,1124,ls),
(1984,1452,o),
(1816,1536,o),
(1464,1536,cs),
(240,1536,ls),
(188,1536,o),
(160,1508,o),
(160,1456,cs),
(160,80,ls),
(160,28,o),
(188,0,o),
(240,0,cs)
);
},
{
closed = 1;
nodes = (
(352,688,l),
(1514,688,ls),
(1768,688,o),
(1856,653,o),
(1856,441,cs),
(1856,415,ls),
(1856,189,o),
(1768,160,o),
(1514,160,cs),
(352,160,l)
);
},
{
closed = 1;
nodes = (
(352,1376,l),
(1450,1376,ls),
(1704,1376,o),
(1792,1347,o),
(1792,1121,cs),
(1792,1095,ls),
(1792,891,o),
(1704,848,o),
(1450,848,cs),
(352,848,l)
);
}
);
width = 2176;
},
{
anchors = (
{
name = bottom;
pos = (1072,0);
},
{
name = center;
pos = (520,384);
},
{
name = top;
pos = (1072,1536);
}
);
layerId = m002;
shapes = (
{
closed = 1;
nodes = (
(1288,0,ls),
(1880,0,o),
(2048,84,o),
(2048,412,cs),
(2048,444,ls),
(2048,619,o),
(1907,726,o),
(1723,768,c),
(1864,816,o),
(1984,919,o),
(1984,1092,cs),
(1984,1124,ls),
(1984,1452,o),
(1816,1536,o),
(1224,1536,cs),
(240,1536,ls),
(188,1536,o),
(160,1508,o),
(160,1456,cs),
(160,80,ls),
(160,28,o),
(188,0,o),
(240,0,cs)
);
},
{
closed = 1;
nodes = (
(592,606,l),
(1274,606,ls),
(1528,606,o),
(1616,569,o),
(1616,495,cs),
(1616,471,ls),
(1616,397,o),
(1528,360,o),
(1274,360,cs),
(592,360,l)
);
},
{
closed = 1;
nodes = (
(592,1176,l),
(1210,1176,ls),
(1464,1176,o),
(1552,1145,o),
(1552,1071,cs),
(1552,1047,ls),
(1552,973,o),
(1464,930,o),
(1210,930,cs),
(592,930,l)
);
}
);
width = 2176;
}
);
unicode = 66;
},
{
glyphname = C;
kernLeft = O;
kernRight = O;
lastChange = "2024-12-28 15:04:26 +0000";
layers = (
{
anchors = (
{
name = bottom;
pos = (1072,0);
},
{
name = top;
pos = (1072,1536);
}
);
layerId = m01;
shapes = (
{
closed = 1;
nodes = (
(1236,-32,ls),
(1727,-32,o),
(1979,77,o),
(2012,422,cs),
(2017,475,o),
(1986,504,o),
(1934,504,cs),
(1902,504,ls),
(1851,504,o),
(1825,477,o),
(1820,426,cs),
(1796,177,o),
(1648,128,o),
(1215,128,cs),
(929,128,ls),
(452,128,o),
(320,187,o),
(320,749,cs),
(320,788,ls),
(320,1350,o),
(452,1408,o),
(929,1408,cs),
(1215,1408,ls),
(1648,1408,o),
(1796,1360,o),
(1820,1110,cs),
(1825,1059,o),
(1851,1032,o),
(1902,1032,cs),
(1934,1032,ls),
(1986,1032,o),
(2017,1061,o),
(2012,1114,cs),
(1979,1459,o),
(1727,1568,o),
(1236,1568,cs),
(908,1568,ls),
(380,1568,o),
(128,1442,o),
(128,792,cs),
(128,744,ls),
(128,94,o),
(380,-32,o),
(908,-32,cs)
);
}
);
width = 2141;
},
{
anchors = (
{
name = bottom;
pos = (1072,0);
},
{
name = top;
pos = (1072,1536);
}
);
layerId = m002;
shapes = (
{
closed = 1;
nodes = (
(1116,-32,ls),
(1727,-32,o),
(1979,77,o),
(2012,542,cs),
(2016,595,o),
(1986,624,o),
(1934,624,cs),
(1662,624,ls),
(1611,624,o),
(1587,597,o),
(1580,546,cs),
(1556,377,o),
(1408,328,o),
(1095,328,cs),
(1049,328,ls),
(692,328,o),
(560,387,o),
(560,749,cs),
(560,788,ls),
(560,1150,o),
(692,1208,o),
(1049,1208,cs),
(1095,1208,ls),
(1408,1208,o),
(1556,1160,o),
(1580,990,cs),
(1587,939,o),
(1611,912,o),
(1662,912,cs),
(1934,912,ls),
(1986,912,o),
(2016,941,o),
(2012,994,cs),
(1979,1459,o),
(1727,1568,o),
(1116,1568,cs),
(1028,1568,ls),
(380,1568,o),
(128,1442,o),
(128,792,cs),
(128,744,ls),
(128,94,o),
(380,-32,o),
(1028,-32,cs)
);
}
);
width = 2140;
}
);
unicode = 67;
},
{
glyphname = D;
kernLeft = H;
kernRight = O;
lastChange = "2025-01-27 03:47:41 +0000";
layers = (
{
anchors = (
{
name = bottom;
pos = (1104,0);
},
{
name = center;
pos = (416,768);
},
{
name = top;
pos = (1104,1536);
}
);
layerId = m01;
shapes = (
{
closed = 1;
nodes = (
(160,80,ls),
(160,28,o),
(188,0,o),
(240,0,cs),
(1528,0,ls),
(1880,0,o),
(2048,284,o),
(2048,664,cs),
(2048,872,ls),
(2048,1252,o),
(1880,1536,o),
(1528,1536,cs),
(240,1536,ls),
(188,1536,o),
(160,1508,o),
(160,1456,cs)
);
},
{
closed = 1;
nodes = (
(1514,1376,ls),
(1768,1376,o),
(1856,1147,o),
(1856,869,cs),
(1856,667,ls),
(1856,399,o),
(1768,160,o),
(1514,160,cs),
(352,160,l),
(352,1376,l)
);
}
);
width = 2176;
},
{
anchors = (
{
name = bottom;
pos = (1072,0);
},
{
name = center;
pos = (416,768);
},
{
name = top;
pos = (1072,1536);
}
);
layerId = m002;
shapes = (
{
closed = 1;
nodes = (
(160,80,ls),
(160,28,o),
(188,0,o),
(240,0,cs),
(1288,0,ls),
(1880,0,o),
(2048,284,o),
(2048,664,cs),
(2048,872,ls),
(2048,1252,o),
(1880,1536,o),
(1288,1536,cs),
(240,1536,ls),
(188,1536,o),
(160,1508,o),
(160,1456,cs)
);
},
{
closed = 1;
nodes = (
(1274,1176,ls),
(1528,1176,o),
(1616,1047,o),
(1616,869,cs),
(1616,667,ls),
(1616,499,o),
(1528,360,o),
(1274,360,cs),
(592,360,l),
(592,1176,l)
);
}
);
width = 2176;
}
);
unicode = 68;
},
{
glyphname = E;
kernLeft = H;
kernRight = Z;
lastChange = "2025-01-27 03:47:44 +0000";
layers = (
{
anchors = (
{
name = bottom;
pos = (972,0);
},
{
name = ogonek;
pos = (1775,10);
},
{
name = top;
pos = (972,1536);
},
{
name = topleft;
pos = (-12,1536);
}
);
layerId = m01;
shapes = (
{
closed = 1;
nodes = (
(1816,0,ls),
(1860,0,o),
(1888,28,o),
(1888,72,cs),
(1888,88,ls),
(1888,132,o),
(1860,160,o),
(1816,160,cs),
(352,160,l),
(352,688,l),
(1628,688,ls),
(1672,688,o),
(1700,716,o),
(1700,760,cs),
(1700,776,ls),
(1700,820,o),
(1672,848,o),
(1628,848,cs),
(352,848,l),
(352,1376,l),
(1816,1376,ls),
(1860,1376,o),
(1888,1404,o),
(1888,1448,cs),
(1888,1464,ls),
(1888,1508,o),
(1860,1536,o),
(1816,1536,cs),
(240,1536,ls),
(188,1536,o),
(160,1508,o),
(160,1456,cs),
(160,80,ls),
(160,28,o),
(188,0,o),
(240,0,cs)
);
}
);
width = 1976;
},
{
anchors = (
{
name = bottom;
pos = (1028,0);
},
{
name = ogonek;
pos = (1775,10);
},
{
name = top;
pos = (1028,1536);
},
{
name = topleft;
pos = (-12,1536);
}
);
layerId = m002;
shapes = (
{
closed = 1;
nodes = (
(1816,0,ls),
(1860,0,o),
(1888,28,o),
(1888,72,cs),
(1888,288,ls),
(1888,332,o),
(1860,360,o),
(1816,360,cs),
(592,360,l),
(592,588,l),
(1628,588,ls),
(1672,588,o),
(1700,616,o),
(1700,660,cs),
(1700,876,ls),
(1700,920,o),
(1672,948,o),
(1628,948,cs),
(592,948,l),
(592,1176,l),
(1816,1176,ls),
(1860,1176,o),
(1888,1204,o),
(1888,1248,cs),
(1888,1464,ls),
(1888,1508,o),
(1860,1536,o),
(1816,1536,cs),
(240,1536,ls),
(188,1536,o),
(160,1508,o),
(160,1456,cs),
(160,80,ls),
(160,28,o),
(188,0,o),
(240,0,cs)
);
}
);
width = 1976;
}
);
unicode = 69;
},
{
glyphname = Schwa;
kernLeft = O;
kernRight = O;
lastChange = "2025-01-01 22:56:03 +0000";
layers = (
{
anchors = (
{
name = bottom;
pos = (1046,-32);
},
{
name = top;
pos = (1046,1536);
}
);
layerId = m01;
shapes = (
{
closed = 1;
nodes = (
(1755,-32,o),
(2007,94,o),
(2007,744,cs),
(2007,792,ls),
(2007,1442,o),
(1755,1568,o),
(1227,1568,cs),
(867,1568,ls),
(359,1568,o),
(144,1459,o),
(111,1114,cs),
(106,1061,o),
(137,1032,o),
(189,1032,cs),
(221,1032,ls),
(272,1032,o),
(298,1059,o),
(303,1110,cs),
(327,1344,o),
(431,1392,o),
(888,1392,cs),
(1206,1392,ls),
(1683,1392,o),
(1815,1334,o),
(1815,896,cs),
(1815,860,l),
(168,860,ls),
(116,860,o),
(88,831,o),
(88,777,cs),
(88,94,o),
(339,-32,o),
(867,-32,cs),
(1227,-32,ls)
);
},
{
closed = 1;
nodes = (
(1779,190,o),
(1627,144,o),
(1206,144,cs),
(888,144,ls),
(411,144,o),
(285,203,o),
(285,684,c),
(1809,684,l)
);
}
);
width = 2095;
},
{
anchors = (
{
name = bottom;
pos = (1046,-32);
},
{
name = top;
pos = (1046,1536);
}
);
layerId = m002;
shapes = (
{
closed = 1;
nodes = (
(1755,-32,o),
(2007,94,o),
(2007,744,cs),
(2007,792,ls),
(2007,1442,o),
(1755,1568,o),
(1227,1568,cs),
(867,1568,ls),
(359,1568,o),
(144,1459,o),
(111,1114,cs),
(106,1061,o),
(137,1032,o),
(189,1032,cs),
(461,1032,ls),
(512,1032,o),
(543,1064,o),
(553,1110,cs),
(559,1137,o),
(671,1172,o),
(888,1172,cs),
(1206,1172,ls),
(1443,1172,o),
(1575,1122,o),
(1575,940,cs),
(1575,904,l),
(168,904,ls),
(116,904,o),
(88,875,o),
(88,821,cs),
(88,94,o),
(339,-32,o),
(867,-32,cs),
(1227,-32,ls)
);
},
{
closed = 1;
nodes = (
(1539,410,o),
(1387,364,o),
(1206,364,cs),
(888,364,ls),
(651,364,o),
(525,423,o),
(525,544,c),
(1569,544,l)
);
}
);
width = 2095;
}
);
unicode = 399;
},
{
glyphname = Ezh;
kernLeft = Z;
kernRight = Z;
lastChange = "2025-01-02 00:13:52 +0000";
layers = (
{
anchors = (
{
name = bottom;
pos = (722,0);
},
{
name = top;
pos = (722,1536);
}
);
layerId = m01;
shapes = (
{
closed = 1;
nodes = (
(874,0,ls),
(1102,0,o),
(1354,122,o),
(1354,408,cs),
(1354,456,ls),
(1354,742,o),
(1102,864,o),
(874,864,cs),
(858,864,l),
(1313,1319,ls),
(1342,1348,o),
(1354,1377,o),
(1354,1418,cs),
(1354,1456,ls),
(1354,1508,o),
(1326,1536,o),
(1274,1536,cs),
(168,1536,ls),
(116,1536,o),
(88,1508,o),
(88,1456,cs),
(88,1440,ls),
(88,1388,o),
(116,1360,o),
(168,1360,cs),
(1082,1360,l),
(508,786,ls),
(458,736,o),
(478,688,o),
(549,688,cs),
(853,688,ls),
(1030,688,o),
(1162,634,o),
(1162,452,cs),
(1162,413,ls),
(1162,231,o),
(1030,176,o),
(853,176,cs),
(573,176,ls),
(459,176,o),
(319,212,o),
(280,421,cs),
(267,490,o),
(230,508,o),
(183,461,cs),
(134,412,ls),
(105,383,o),
(91,354,o),
(98,312,cs),
(137,79,o),
(390,0,o),
(552,0,cs)
);
}
);
width = 1442;
},
{
anchors = (
{
name = bottom;
pos = (779,0);
},
{
name = top;
pos = (779,1536);
}
);
layerId = m002;
shapes = (
{
closed = 1;
nodes = (
(990,0,ls),
(1218,0,o),
(1470,122,o),
(1470,408,cs),
(1470,456,ls),
(1470,742,o),
(1215,826,o),
(1180,837,cs),
(1170,840,l),
(1429,1099,ls),
(1457,1127,o),
(1470,1168,o),
(1470,1220,cs),
(1470,1456,ls),
(1470,1508,o),
(1442,1536,o),
(1390,1536,cs),
(168,1536,ls),
(116,1536,o),
(88,1508,o),
(88,1456,cs),
(88,1220,ls),
(88,1168,o),
(116,1140,o),
(168,1140,cs),
(978,1140,l),
(564,726,ls),
(514,676,o),
(534,628,o),
(605,628,cs),
(769,628,ls),
(995,628,o),
(1038,605,o),
(1038,525,cs),
(1038,499,ls),
(1038,419,o),
(995,396,o),
(769,396,cs),
(689,396,ls),
(485,396,o),
(436,419,o),
(396,461,cs),
(361,498,o),
(336,498,o),
(299,461,cs),
(150,312,ls),
(121,283,o),
(108,254,o),
(115,211,cs),
(130,122,o),
(382,0,o),
(610,0,cs)
);
}
);
width = 1558;
}
);
unicode = 439;
},
{
glyphname = F;
kernLeft = H;
kernRight = V;
lastChange = "2025-01-27 03:47:47 +0000";
layers = (
{
anchors = (
{
name = bottom;
pos = (972,0);
},
{
name = top;
pos = (972,1536);
}
);
layerId = m01;
shapes = (
{
closed = 1;
nodes = (
(160,80,ls),
(160,28,o),
(188,0,o),
(240,0,cs),
(272,0,ls),
(324,0,o),
(352,28,o),
(352,80,cs),
(352,688,l),
(1628,688,ls),
(1672,688,o),
(1700,716,o),
(1700,760,cs),
(1700,776,ls),
(1700,820,o),
(1672,848,o),
(1628,848,cs),
(352,848,l),
(352,1376,l),
(1808,1376,ls),
(1860,1376,o),
(1888,1404,o),
(1888,1448,cs),
(1888,1464,ls),
(1888,1508,o),
(1860,1536,o),
(1808,1536,cs),
(240,1536,ls),
(188,1536,o),
(160,1508,o),
(160,1456,cs)
);
}
);
width = 1976;
},
{
anchors = (
{
name = bottom;
pos = (972,0);
},
{
name = top;
pos = (972,1536);
}
);
layerId = m002;
shapes = (
{
closed = 1;
nodes = (
(160,80,ls),
(160,28,o),
(188,0,o),
(240,0,cs),
(512,0,ls),
(564,0,o),
(592,28,o),
(592,80,cs),
(592,588,l),
(1628,588,ls),
(1672,588,o),
(1700,616,o),
(1700,660,cs),
(1700,876,ls),
(1700,920,o),
(1672,948,o),
(1628,948,cs),
(592,948,l),
(592,1176,l),
(1808,1176,ls),
(1860,1176,o),
(1888,1204,o),
(1888,1248,cs),
(1888,1464,ls),
(1888,1508,o),
(1860,1536,o),
(1808,1536,cs),
(240,1536,ls),
(188,1536,o),
(160,1508,o),
(160,1456,cs)
);
}
);
width = 1976;
}
);
unicode = 70;
},
{
glyphname = G;
kernLeft = O;
kernRight = O;
lastChange = "2025-01-27 03:47:50 +0000";
layers = (
{
anchors = (
{
name = bottom;
pos = (1088,-32);
},
{
name = center;
pos = (448,768);
},
{
name = top;
pos = (1088,1536);
}
);
layerId = m01;
shapes = (
{
closed = 1;
nodes = (
(1268,-32,ls),
(1796,-32,o),
(2008,93,o),
(2047,685,cs),
(2051,739,o),
(2019,768,o),
(1967,768,cs),
(1128,768,ls),
(1084,768,o),
(1056,740,o),
(1056,696,cs),
(1056,680,ls),
(1056,636,o),
(1084,608,o),
(1128,608,cs),
(1850,608,l),
(1828,208,o),
(1724,128,o),
(1247,128,cs),
(929,128,ls),
(452,128,o),
(320,187,o),
(320,749,cs),
(320,788,ls),
(320,1350,o),
(452,1408,o),
(929,1408,cs),
(1247,1408,ls),
(1724,1408,o),
(1828,1360,o),
(1852,1110,cs),
(1857,1059,o),
(1883,1032,o),
(1934,1032,cs),
(1966,1032,ls),
(2018,1032,o),
(2049,1061,o),
(2044,1114,cs),
(2011,1459,o),
(1796,1568,o),
(1268,1568,cs),
(908,1568,ls),
(380,1568,o),
(128,1442,o),
(128,792,cs),
(128,744,ls),
(128,94,o),
(380,-32,o),
(908,-32,cs)
);
}
);
width = 2175;
},
{
anchors = (
{
name = bottom;
pos = (1088,-32);
},
{
name = center;
pos = (448,768);
},
{
name = top;
pos = (1088,1536);
}
);
layerId = m002;
shapes = (
{
closed = 1;
nodes = (
(1268,-32,ls),
(1756,-32,o),
(2008,94,o),
(2047,767,cs),
(2050,821,o),
(2019,850,o),
(1967,850,cs),
(1128,850,ls),
(1084,850,o),
(1056,822,o),
(1056,778,cs),
(1056,598,ls),
(1056,554,o),
(1084,526,o),
(1128,526,cs),
(1610,526,l),
(1606,387,o),
(1474,328,o),
(1247,328,cs),
(929,328,ls),
(692,328,o),
(560,387,o),
(560,749,cs),
(560,788,ls),
(560,1150,o),
(692,1208,o),
(929,1208,cs),
(1247,1208,ls),
(1474,1208,o),
(1606,1150,o),
(1612,1102,cs),
(1618,1053,o),
(1643,1032,o),
(1694,1032,cs),
(1966,1032,ls),
(2018,1032,o),
(2050,1061,o),
(2044,1114,cs),
(2008,1442,o),
(1756,1568,o),
(1268,1568,cs),
(908,1568,ls),
(380,1568,o),
(128,1442,o),
(128,792,cs),
(128,744,ls),
(128,94,o),
(380,-32,o),
(908,-32,cs)
);
}
);
width = 2175;
}
);
unicode = 71;
},
{
glyphname = H;
kernLeft = H;
kernRight = H;
lastChange = "2025-01-27 03:47:55 +0000";
layers = (
{
anchors = (
{
name = bottom;
pos = (1072,0);
},
{
name = center;
pos = (1072,1152);
},
{
name = top;
pos = (1072,1536);
},
{
name = topleft;
pos = (36,1536);
}
);
layerId = m01;
shapes = (
{
closed = 1;
nodes = (
(160,80,ls),
(160,28,o),
(188,0,o),
(240,0,cs),
(272,0,ls),
(324,0,o),
(352,28,o),
(352,80,cs),
(352,688,l),
(1792,688,l),
(1792,80,ls),
(1792,28,o),
(1820,0,o),
(1872,0,cs),
(1904,0,ls),
(1956,0,o),
(1984,28,o),
(1984,80,cs),
(1984,1456,ls),
(1984,1508,o),
(1956,1536,o),
(1904,1536,cs),
(1872,1536,ls),
(1820,1536,o),
(1792,1508,o),
(1792,1456,cs),
(1792,848,l),
(352,848,l),
(352,1456,ls),
(352,1508,o),
(324,1536,o),
(272,1536,cs),
(240,1536,ls),
(188,1536,o),
(160,1508,o),
(160,1456,cs)
);
}
);
width = 2144;
},
{
anchors = (
{
name = bottom;
pos = (1072,0);
},
{
name = center;
pos = (1072,1152);
},
{
name = top;
pos = (1072,1536);
},
{
name = topleft;
pos = (36,1536);
}
);
layerId = m002;
shapes = (
{
closed = 1;
nodes = (
(160,80,ls),
(160,28,o),
(188,0,o),
(240,0,cs),
(512,0,ls),
(564,0,o),
(592,28,o),
(592,80,cs),
(592,588,l),
(1552,588,l),
(1552,80,ls),
(1552,28,o),
(1580,0,o),
(1632,0,cs),
(1904,0,ls),
(1956,0,o),
(1984,28,o),
(1984,80,cs),
(1984,1456,ls),
(1984,1508,o),
(1956,1536,o),
(1904,1536,cs),
(1632,1536,ls),
(1580,1536,o),
(1552,1508,o),
(1552,1456,cs),
(1552,948,l),
(592,948,l),
(592,1456,ls),
(592,1508,o),
(564,1536,o),
(512,1536,cs),
(240,1536,ls),
(188,1536,o),
(160,1508,o),
(160,1456,cs)
);
}
);
width = 2144;
}
);
unicode = 72;
},
{
glyphname = J;
kernLeft = O;
kernRight = O;
lastChange = "2025-01-27 04:53:05 +0000";
layers = (
{
anchors = (
{
name = bottom;
pos = (894,0);
},
{
name = top;
pos = (1565,1536);
}
);
layerId = m01;
shapes = (
{
closed = 1;
nodes = (
(1001,-32,ls),
(1409,-32,o),
(1661,94,o),
(1661,744,cs),
(1661,1457,ls),
(1661,1509,o),
(1633,1536,o),
(1581,1536,cs),
(1549,1536,ls),
(1498,1535,o),
(1469,1506,o),
(1469,1455,cs),
(1469,749,ls),
(1469,187,o),
(1337,128,o),
(980,128,cs),
(806,128,ls),
(477,128,o),
(339,178,o),
(319,495,cs),
(316,548,o),
(289,576,o),
(238,576,cs),
(206,576,ls),
(154,576,o),
(124,547,o),
(128,493,cs),
(156,79,o),
(402,-32,o),
(785,-32,cs)
);
}
);
width = 1821;
},
{
anchors = (
{
name = bottom;
pos = (894,0);
},
{
name = top;
pos = (1445,1536);
}
);
layerId = m002;
shapes = (
{
closed = 1;
nodes = (
(1001,-32,ls),
(1409,-32,o),
(1661,94,o),
(1661,744,cs),
(1661,1457,ls),
(1661,1509,o),
(1633,1536,o),
(1581,1536,cs),
(1309,1536,ls),
(1258,1536,o),
(1229,1506,o),
(1229,1455,cs),
(1229,749,ls),
(1229,387,o),
(1097,328,o),
(980,328,cs),
(806,328,ls),
(717,328,o),
(579,378,o),
(559,495,cs),
(550,547,o),
(529,576,o),
(478,576,cs),
(206,576,ls),
(154,576,o),
(124,547,o),
(128,493,cs),
(156,79,o),
(402,-32,o),
(785,-32,cs)
);
}
);
width = 1789;
}
);
unicode = 74;
},
{
glyphname = K;
kernLeft = H;
kernRight = Z;
lastChange = "2025-01-27 03:51:43 +0000";
layers = (
{
anchors = (
{
name = bottom;
pos = (988,0);
},
{
name = top;
pos = (988,1536);
}
);
layerId = m01;
shapes = (
{
closed = 1;
nodes = (
(1819,0,ls),
(1897,0,o),
(1914,54,o),
(1849,97,cs),
(843,768,l),
(1814,1438,ls),
(1875,1480,o),
(1857,1536,o),
(1781,1536,cs),
(1699,1536,ls),
(1660,1536,o),
(1632,1524,o),
(1600,1502,cs),
(648,848,l),
(352,848,l),
(352,1456,ls),
(352,1508,o),
(324,1536,o),
(272,1536,cs),
(240,1536,ls),
(188,1536,o),
(160,1508,o),
(160,1456,cs),
(160,80,ls),
(160,28,o),
(188,0,o),
(240,0,cs),
(272,0,ls),
(324,0,o),
(352,28,o),
(352,80,cs),
(352,688,l),
(642,688,l),
(1647,30,ls),
(1679,9,o),
(1707,0,o),
(1746,0,cs)
);
}
);
width = 1965;
},
{
anchors = (
{
name = bottom;
pos = (948,0);
},
{
name = top;
pos = (948,1536);
}
);
layerId = m002;
shapes = (
{
closed = 1;
nodes = (
(1828,0,ls),
(1906,0,o),
(1914,40,o),
(1858,97,cs),
(1199,768,l),
(1804,1438,ls),
(1855,1494,o),
(1847,1536,o),
(1771,1536,cs),
(1379,1536,ls),
(1340,1536,o),
(1307,1533,o),
(1280,1502,cs),
(783,948,l),
(592,948,l),
(592,1456,ls),
(592,1508,o),
(564,1536,o),
(512,1536,cs),
(240,1536,ls),
(188,1536,o),
(160,1508,o),
(160,1456,cs),
(160,80,ls),
(160,28,o),
(188,0,o),
(240,0,cs),
(512,0,ls),
(564,0,o),
(592,28,o),
(592,80,cs),
(592,588,l),
(772,588,l),
(1319,30,ls),
(1346,2,o),
(1379,0,o),
(1418,0,cs)
);
}
);
width = 1970;
}
);
unicode = 75;
},
{
glyphname = L;
kernLeft = H;
kernRight = A;
lastChange = "2025-01-27 03:51:51 +0000";
layers = (
{
anchors = (
{
name = bottom;
pos = (1024,0);
},
{
name = center;
pos = (256,768);
},
{
name = top;
pos = (256,1536);
},
{
name = topright;
pos = (432,1632);
}
);
layerId = m01;
shapes = (
{
closed = 1;
nodes = (
(1816,0,ls),
(1860,0,o),
(1888,28,o),
(1888,72,cs),
(1888,88,ls),
(1888,132,o),
(1860,160,o),
(1816,160,cs),
(352,160,l),
(352,1456,ls),
(352,1508,o),
(324,1536,o),
(272,1536,cs),
(240,1536,ls),
(188,1536,o),
(160,1508,o),
(160,1456,cs),
(160,80,ls),
(160,28,o),
(188,0,o),
(240,0,cs)
);
}
);
width = 1964;
},
{
anchors = (
{
name = bottom;
pos = (1024,0);
},
{
name = center;
pos = (376,768);
},
{
name = top;
pos = (376,1536);
},
{
name = topright;
pos = (582,1632);
}
);
layerId = m002;
shapes = (
{
closed = 1;
nodes = (
(1816,0,ls),
(1860,0,o),
(1888,28,o),
(1888,72,cs),
(1888,288,ls),
(1888,332,o),
(1860,360,o),
(1816,360,cs),
(592,360,l),
(592,1456,ls),
(592,1508,o),
(564,1536,o),
(512,1536,cs),
(240,1536,ls),
(188,1536,o),
(160,1508,o),
(160,1456,cs),
(160,80,ls),
(160,28,o),
(188,0,o),
(240,0,cs)
);
}
);
width = 1964;
}
);
unicode = 76;
},
{
glyphname = M;
kernLeft = H;
kernRight = H;
lastChange = "2024-12-28 15:16:26 +0000";
layers = (
{
anchors = (
{
name = bottom;
pos = (1328,0);
},
{
name = top;
pos = (1328,1536);
}
);
layerId = m01;
shapes = (
{
closed = 1;
nodes = (
(160,80,ls),
(160,28,o),
(188,0,o),
(240,0,cs),
(272,0,ls),
(324,0,o),
(352,28,o),
(352,80,cs),
(352,1376,l),
(372,1376,l),
(1187,158,ls),
(1212,121,o),
(1240,104,o),
(1283,104,cs),
(1373,104,ls),
(1416,104,o),
(1444,121,o),
(1469,158,cs),
(2284,1376,l),
(2304,1376,l),
(2304,80,ls),
(2304,28,o),
(2332,0,o),
(2384,0,cs),
(2416,0,ls),
(2468,0,o),
(2496,28,o),
(2496,80,cs),
(2496,1456,ls),
(2496,1508,o),
(2468,1536,o),
(2416,1536,cs),
(2239,1536,ls),
(2196,1536,o),
(2168,1519,o),
(2143,1482,cs),
(1328,264,l),
(513,1482,ls),
(488,1519,o),
(460,1536,o),
(417,1536,cs),
(240,1536,ls),
(188,1536,o),
(160,1508,o),
(160,1456,cs)
);
}
);
width = 2656;
},
{
anchors = (
{
name = bottom;
pos = (1328,0);
},
{
name = top;
pos = (1328,1536);
}
);
layerId = m002;
shapes = (
{
closed = 1;
nodes = (
(160,80,ls),
(160,28,o),
(188,0,o),
(240,0,cs),
(512,0,ls),
(564,0,o),
(592,28,o),
(592,80,cs),
(592,1176,l),
(612,1176,l),
(979,158,ls),
(993,118,o),
(1032,104,o),
(1075,104,cs),
(1581,104,ls),
(1624,104,o),
(1663,118,o),
(1677,158,cs),
(2044,1176,l),
(2064,1176,l),
(2064,80,ls),
(2064,28,o),
(2092,0,o),
(2144,0,cs),
(2416,0,ls),
(2468,0,o),
(2496,28,o),
(2496,80,cs),
(2496,1456,ls),
(2496,1508,o),
(2468,1536,o),
(2416,1536,cs),
(1791,1536,ls),
(1748,1536,o),
(1709,1522,o),
(1695,1482,cs),
(1328,464,l),
(961,1482,ls),
(947,1522,o),
(908,1536,o),
(865,1536,cs),
(240,1536,ls),
(188,1536,o),
(160,1508,o),
(160,1456,cs)
);
}
);
width = 2656;
}
);
unicode = 77;
},
{
glyphname = N;
kernLeft = H;
kernRight = H;
lastChange = "2024-12-28 15:17:41 +0000";
layers = (
{
anchors = (
{
name = bottom;
pos = (1080,0);
},
{
name = top;
pos = (1080,1536);
}
);
layerId = m01;
shapes = (
{
closed = 1;
nodes = (
(272,0,ls),
(324,0,o),
(352,28,o),
(352,80,cs),
(352,1360,l),
(374,1360,l),
(1670,41,ls),
(1699,12,o),
(1728,0,o),
(1769,0,cs),
(1920,0,ls),
(1972,0,o),
(2000,28,o),
(2000,80,cs),
(2000,1456,ls),
(2000,1508,o),
(1972,1536,o),
(1920,1536,cs),
(1888,1536,ls),
(1836,1536,o),
(1808,1508,o),
(1808,1456,cs),
(1808,176,l),
(1786,176,l),
(490,1495,ls),
(461,1524,o),
(432,1536,o),
(391,1536,cs),
(240,1536,ls),
(188,1536,o),
(160,1508,o),
(160,1456,cs),
(160,80,ls),
(160,28,o),
(188,0,o),
(240,0,cs)
);
}
);
width = 2160;
},
{
anchors = (
{
name = bottom;
pos = (1080,0);
},
{
name = top;
pos = (1080,1536);
}
);
layerId = m002;
shapes = (
{
closed = 1;
nodes = (
(512,0,ls),
(564,0,o),
(592,28,o),
(592,80,cs),
(592,1176,l),
(614,1176,l),
(1227,41,ls),
(1246,6,o),
(1285,0,o),
(1326,0,cs),
(1920,0,ls),
(1972,0,o),
(2000,28,o),
(2000,80,cs),
(2000,1456,ls),
(2000,1508,o),
(1972,1536,o),
(1920,1536,cs),
(1648,1536,ls),
(1596,1536,o),
(1568,1508,o),
(1568,1456,cs),
(1568,360,l),
(1546,360,l),
(933,1495,ls),
(914,1530,o),
(875,1536,o),
(834,1536,cs),
(240,1536,ls),
(188,1536,o),
(160,1508,o),
(160,1456,cs),
(160,80,ls),
(160,28,o),
(188,0,o),
(240,0,cs)
);
}
);
width = 2160;
}
);
unicode = 78;
},
{
glyphname = Eng;
kernLeft = H;
kernRight = H;
lastChange = "2025-01-02 00:42:52 +0000";
layers = (
{
anchors = (
{
name = bottom;
pos = (2434,-512);
},
{
name = top;
pos = (2520,1024);
}
);
layerId = m01;
shapes = (
{
ref = N;
},
{
closed = 1;
nodes = (
(1839,-544,o),
(2000,-405,o),
(2000,8,cs),
(2000,944,ls),
(2000,996,o),
(1972,1023,o),
(1920,1023,cs),
(1888,1023,ls),
(1837,1023,o),
(1808,993,o),
(1808,942,cs),
(1808,9,ls),
(1808,-309,o),
(1731,-363,o),
(1395,-368,cs),
(1341,-369,o),
(1312,-395,o),
(1312,-440,cs),
(1312,-474,ls),
(1312,-519,o),
(1341,-544,o),
(1395,-544,cs)
);
}
);
width = 2740;
},
{
anchors = (
{
name = bottom;
pos = (2434,-512);
},
{
name = top;
pos = (2520,1024);
}
);
layerId = m002;
shapes = (
{
ref = N;
},
{
closed = 1;
nodes = (
(1839,-544,o),
(2000,-405,o),
(2000,8,cs),
(2000,944,ls),
(2000,996,o),
(1972,1023,o),
(1920,1023,cs),
(1648,1023,ls),
(1597,1023,o),
(1568,993,o),
(1568,942,cs),
(1568,9,ls),
(1568,-125,o),
(1491,-179,o),
(1299,-184,cs),
(1245,-185,o),
(1216,-211,o),
(1216,-256,cs),
(1216,-474,ls),
(1216,-519,o),
(1245,-544,o),
(1299,-544,cs)
);
}
);
width = 2740;
}
);
unicode = 330;
},
{
glyphname = O;
kernLeft = O;
kernRight = O;
lastChange = "2025-01-27 03:41:02 +0000";
layers = (
{
anchors = (
{
name = bottom;
pos = (1072,0);
},
{
name = center;
pos = (1072,768);
},
{
name = ogonek;
pos = (1898,10);
},
{
name = top;
pos = (1072,1536);
},
{
name = topleft;
pos = (60,1536);
},
{
name = topright;
pos = (1815,1430);
}
);
layerId = m01;
shapes = (
{
closed = 1;
nodes = (
(128,744,ls),
(128,94,o),
(380,-32,o),
(908,-32,cs),
(1236,-32,ls),
(1764,-32,o),
(2016,94,o),
(2016,744,cs),
(2016,792,ls),
(2016,1442,o),
(1764,1568,o),
(1236,1568,cs),
(908,1568,ls),
(380,1568,o),
(128,1442,o),
(128,792,cs)
);
},
{
closed = 1;
nodes = (
(320,1350,o),
(452,1408,o),
(929,1408,cs),
(1215,1408,ls),
(1692,1408,o),
(1824,1350,o),
(1824,788,cs),
(1824,749,ls),
(1824,187,o),
(1692,128,o),
(1215,128,cs),
(929,128,ls),
(452,128,o),
(320,187,o),
(320,749,cs),
(320,788,ls)
);
}
);
width = 2144;
},
{
anchors = (
{
name = bottom;
pos = (1072,0);
},
{
name = center;
pos = (1072,768);
},
{
name = ogonek;
pos = (1838,10);
},
{
name = top;
pos = (1072,1536);
},
{
name = topleft;
pos = (60,1536);
},
{
name = topright;
pos = (1831,1382);
}
);
layerId = m002;
shapes = (
{
closed = 1;
nodes = (
(128,744,ls),
(128,94,o),
(380,-32,o),
(908,-32,cs),
(1236,-32,ls),
(1764,-32,o),
(2016,94,o),
(2016,744,cs),
(2016,792,ls),
(2016,1442,o),
(1764,1568,o),
(1236,1568,cs),
(908,1568,ls),
(380,1568,o),
(128,1442,o),
(128,792,cs)
);
},
{
closed = 1;
nodes = (
(560,1150,o),
(692,1208,o),
(929,1208,cs),
(1215,1208,ls),
(1452,1208,o),
(1584,1150,o),
(1584,788,cs),
(1584,749,ls),
(1584,387,o),
(1452,328,o),
(1215,328,cs),
(929,328,ls),
(692,328,o),
(560,387,o),
(560,749,cs),
(560,788,ls)
);
}
);
width = 2144;
}
);
unicode = 79;
},
{
glyphname = OE;
kernLeft = O;
kernRight = Z;
lastChange = "2025-01-01 01:40:36 +0000";
layers = (
{
anchors = (
{
name = bottom;
pos = (2136,0);
},
{
name = center;
pos = (552,768);
},
{
name = ogonek;
pos = (2866,10);
},
{
name = top;
pos = (2136,1536);
},
{
name = topleft;
pos = (1180,1536);
},
{
name = topright;
pos = (1564,1536);
}
);
layerId = m01;
shapes = (
{
closed = 1;
nodes = (
(88,744,ls),
(88,94,o),
(340,-32,o),
(668,-32,cs),
(916,-32,ls),
(1244,-32,o),
(1496,94,o),
(1496,744,cs),
(1496,792,ls),
(1496,1450,o),
(1244,1568,o),
(916,1568,cs),
(668,1568,ls),
(340,1568,o),
(88,1442,o),
(88,792,cs)
);
},
{
closed = 1;
nodes = (
(280,1334,o),
(412,1408,o),
(689,1408,cs),
(895,1408,ls),
(1172,1408,o),
(1304,1334,o),
(1304,788,cs),
(1304,749,ls),
(1304,203,o),
(1172,128,o),
(895,128,cs),
(689,128,ls),
(412,128,o),
(280,203,o),
(280,749,cs),
(280,788,ls)
);
},
{
closed = 1;
nodes = (
(2448,0,ls),
(2492,0,o),
(2520,28,o),
(2520,72,cs),
(2520,88,ls),
(2520,132,o),
(2492,160,o),
(2448,160,cs),
(1496,160,l),
(1496,688,l),
(2260,688,ls),
(2304,688,o),
(2332,716,o),
(2332,760,cs),
(2332,776,ls),
(2332,820,o),
(2304,848,o),
(2260,848,cs),
(1496,848,l),
(1496,1376,l),
(2448,1376,ls),
(2492,1376,o),
(2520,1404,o),
(2520,1448,cs),
(2520,1464,ls),
(2520,1508,o),
(2492,1536,o),
(2448,1536,cs),
(1384,1536,ls),
(1332,1536,o),
(1304,1508,o),
(1304,1456,cs),
(1304,80,ls),
(1304,28,o),
(1332,0,o),
(1384,0,cs)
);
}
);
width = 2608;
},
{
anchors = (
{
name = bottom;
pos = (2136,0);
},
{
name = center;
pos = (552,768);
},
{
name = ogonek;
pos = (2866,10);
},
{
name = top;
pos = (2136,1536);
},
{
name = topleft;
pos = (1180,1536);
},
{
name = topright;
pos = (1564,1536);
}
);
layerId = m002;
shapes = (
{
closed = 1;
nodes = (
(88,744,ls),
(88,94,o),
(340,-20,o),
(728,-20,cs),
(1096,-20,ls),
(1484,-20,o),
(1736,94,o),
(1736,744,cs),
(1736,792,ls),
(1736,1450,o),
(1484,1556,o),
(1096,1556,cs),
(728,1556,ls),
(340,1556,o),
(88,1442,o),
(88,792,cs)
);
},
{
closed = 1;
nodes = (
(520,1134,o),
(652,1208,o),
(789,1208,cs),
(1035,1208,ls),
(1172,1208,o),
(1304,1134,o),
(1304,788,cs),
(1304,749,ls),
(1304,403,o),
(1172,328,o),
(1035,328,cs),
(789,328,ls),
(652,328,o),
(520,403,o),
(520,749,cs),
(520,788,ls)
);
},
{
closed = 1;
nodes = (
(2688,0,ls),
(2732,0,o),
(2760,28,o),
(2760,72,cs),
(2760,288,ls),
(2760,332,o),
(2732,360,o),
(2688,360,cs),
(1736,360,l),
(1736,588,l),
(2500,588,ls),
(2544,588,o),
(2572,616,o),
(2572,660,cs),
(2572,876,ls),
(2572,920,o),
(2544,948,o),
(2500,948,cs),
(1736,948,l),
(1736,1176,l),
(2688,1176,ls),
(2732,1176,o),
(2760,1204,o),
(2760,1248,cs),
(2760,1464,ls),
(2760,1508,o),
(2732,1536,o),
(2688,1536,cs),
(1384,1536,ls),
(1332,1536,o),
(1304,1508,o),
(1304,1456,cs),
(1304,80,ls),
(1304,28,o),
(1332,0,o),
(1384,0,cs)
);
}
);
width = 2848;
}
);
unicode = 338;
},
{
glyphname = P;
kernLeft = H;
kernRight = O;
lastChange = "2025-01-27 03:54:27 +0000";
layers = (
{
anchors = (
{
name = bottom;
pos = (980,0);
},
{
name = top;
pos = (980,1536);
}
);
layerId = m01;
shapes = (
{
closed = 1;
nodes = (
(272,0,ls),
(324,0,o),
(352,28,o),
(352,80,cs),
(352,576,l),
(1464,576,ls),
(1816,576,o),
(1984,660,o),
(1984,1040,cs),
(1984,1072,ls),
(1984,1452,o),
(1816,1536,o),
(1464,1536,cs),
(240,1536,ls),
(188,1536,o),
(160,1508,o),
(160,1456,cs),
(160,80,ls),
(160,28,o),
(188,0,o),
(240,0,cs)
);
},
{
closed = 1;
nodes = (
(352,1376,l),
(1450,1376,ls),
(1704,1376,o),
(1792,1347,o),
(1792,1069,cs),
(1792,1043,ls),
(1792,775,o),
(1704,736,o),
(1450,736,cs),
(352,736,l)
);
}
);
width = 2112;
},
{
anchors = (
{
name = bottom;
pos = (1012,0);
},
{
name = top;
pos = (1012,1536);
}
);
layerId = m002;
shapes = (
{
closed = 1;
nodes = (
(544,0,ls),
(596,0,o),
(624,28,o),
(624,80,cs),
(624,476,l),
(1376,476,ls),
(1848,476,o),
(2016,580,o),
(2016,1000,cs),
(2016,1032,ls),
(2016,1452,o),
(1848,1536,o),
(1376,1536,cs),
(272,1536,ls),
(220,1536,o),
(192,1508,o),
(192,1456,cs),
(192,80,ls),
(192,28,o),
(220,0,o),
(272,0,cs)
);
},
{
closed = 1;
nodes = (
(624,1176,l),
(1242,1176,ls),
(1496,1176,o),
(1584,1137,o),
(1584,1019,cs),
(1584,993,ls),
(1584,875,o),
(1496,836,o),
(1242,836,cs),
(624,836,l)
);
}
);
width = 2144;
}
);
unicode = 80;
},
{
glyphname = Thorn;
kernLeft = H;
kernRight = O;
lastChange = "2025-01-01 01:41:28 +0000";
layers = (
{
layerId = m01;
shapes = (
{
closed = 1;
nodes = (
(288,0,ls),
(340,0,o),
(368,28,o),
(368,80,cs),
(368,288,l),
(1384,288,ls),
(1736,288,o),
(1904,372,o),
(1904,752,cs),
(1904,784,ls),
(1904,1164,o),
(1736,1248,o),
(1384,1248,cs),
(368,1248,l),
(368,1456,ls),
(368,1508,o),
(340,1536,o),
(288,1536,cs),
(256,1536,ls),
(204,1536,o),
(176,1508,o),
(176,1456,cs),
(176,80,ls),
(176,28,o),
(204,0,o),
(256,0,cs)
);
},
{
closed = 1;
nodes = (
(368,1088,l),
(1370,1088,ls),
(1624,1088,o),
(1712,1059,o),
(1712,781,cs),
(1712,755,ls),
(1712,487,o),
(1624,448,o),
(1370,448,cs),
(368,448,l)
);
}
);
width = 1992;
},
{
layerId = m002;
shapes = (
{
closed = 1;
nodes = (
(528,0,ls),
(580,0,o),
(608,28,o),
(608,80,cs),
(608,188,l),
(1384,188,ls),
(1736,188,o),
(1904,272,o),
(1904,752,cs),
(1904,784,ls),
(1904,1264,o),
(1736,1348,o),
(1384,1348,cs),
(608,1348,l),
(608,1456,ls),
(608,1508,o),
(580,1536,o),
(528,1536,cs),
(256,1536,ls),
(204,1536,o),
(176,1508,o),
(176,1456,cs),
(176,80,ls),
(176,28,o),
(204,0,o),
(256,0,cs)
);
},
{
closed = 1;
nodes = (
(608,988,l),
(1130,988,ls),
(1384,988,o),
(1472,959,o),
(1472,781,cs),
(1472,755,ls),
(1472,587,o),
(1384,548,o),
(1130,548,cs),
(608,548,l)
);
}
);
width = 1992;
}
);
unicode = 222;
},
{
glyphname = Q;
kernLeft = O;
kernRight = O;
lastChange = "2025-01-27 03:52:05 +0000";
layers = (
{
anchors = (
{
name = bottom;
pos = (1048,0);
},
{
name = top;
pos = (1048,1536);
}
);
layerId = m01;
shapes = (
{
ref = O;
},
{
closed = 1;
nodes = (
(1190,621,ls),
(1161,579,o),
(1167,539,o),
(1209,509,cs),
(1957,-14,ls),
(1999,-44,o),
(2039,-36,o),
(2069,6,cs),
(2078,19,ls),
(2107,61,o),
(2101,101,o),
(2059,131,cs),
(1311,654,ls),
(1269,684,o),
(1229,676,o),
(1199,634,cs)
);
}
);
width = 2160;
},
{
anchors = (
{
name = bottom;
pos = (1048,0);
},
{
name = top;
pos = (1048,1536);
}
);
layerId = m002;
shapes = (
{
ref = O;
},
{
closed = 1;
nodes = (
(1126,532,ls),
(1096,490,o),
(1103,450,o),
(1145,420,cs),
(1893,-103,ls),
(1935,-133,o),
(1975,-125,o),
(2005,-83,cs),
(2141,108,ls),
(2171,150,o),
(2164,190,o),
(2122,220,cs),
(1374,743,ls),
(1332,773,o),
(1292,765,o),
(1262,723,cs)
);
}
);
width = 2223;
}
);
unicode = 81;
},
{
glyphname = R;
kernLeft = H;
kernRight = Z;
lastChange = "2025-01-27 03:54:24 +0000";
layers = (
{
anchors = (
{
name = bottom;
pos = (1056,0);
},
{
name = top;
pos = (1056,1536);
}
);
layerId = m01;
shapes = (
{
closed = 1;
nodes = (
(272,0,ls),
(324,0,o),
(352,28,o),
(352,80,cs),
(352,576,l),
(1348,576,l),
(1742,49,ls),
(1767,15,o),
(1797,0,o),
(1839,0,cs),
(1908,0,ls),
(1967,0,o),
(1983,44,o),
(1943,98,cs),
(1583,580,l),
(1854,600,o),
(1984,706,o),
(1984,1040,cs),
(1984,1072,ls),
(1984,1452,o),
(1816,1536,o),
(1464,1536,cs),
(240,1536,ls),
(188,1536,o),
(160,1508,o),
(160,1456,cs),
(160,80,ls),
(160,28,o),
(188,0,o),
(240,0,cs)
);
},
{
closed = 1;
nodes = (
(352,1376,l),
(1450,1376,ls),
(1704,1376,o),
(1792,1347,o),
(1792,1069,cs),
(1792,1043,ls),
(1792,775,o),
(1704,736,o),
(1450,736,cs),
(352,736,l)
);
}
);
width = 2112;
},
{
anchors = (
{
name = bottom;
pos = (1021,0);
},
{
name = top;
pos = (1021,1536);
}
);
layerId = m002;
shapes = (
{
closed = 1;
nodes = (
(512,0,ls),
(564,0,o),
(592,28,o),
(592,80,cs),
(592,476,l),
(1110,476,l),
(1433,49,ls),
(1458,16,o),
(1488,0,o),
(1530,0,cs),
(1915,0,ls),
(1974,0,o),
(1982,46,o),
(1943,98,cs),
(1658,480,l),
(1852,500,o),
(1984,606,o),
(1984,990,cs),
(1984,1022,ls),
(1984,1452,o),
(1816,1536,o),
(1464,1536,cs),
(240,1536,ls),
(188,1536,o),
(160,1508,o),
(160,1456,cs),
(160,80,ls),
(160,28,o),
(188,0,o),
(240,0,cs)
);
},
{
closed = 1;
nodes = (
(592,1176,l),
(1210,1176,ls),
(1464,1176,o),
(1552,1137,o),
(1552,1019,cs),
(1552,993,ls),
(1552,875,o),
(1464,836,o),
(1210,836,cs),
(592,836,l)
);
}
);
width = 2112;
}
);
unicode = 82;
},
{
glyphname = S;
kernLeft = O;
kernRight = O;
lastChange = "2025-01-27 03:53:36 +0000";
layers = (
{
anchors = (
{
name = bottom;
pos = (1068,-32);
},
{
name = top;
pos = (1068,1536);
}
);
layerId = m01;
shapes = (
{
closed = 1;
nodes = (
(1233,-32,ls),
(1841,-32,o),
(2007,184,o),
(2007,420,cs),
(2007,464,ls),
(2007,625,o),
(1948,707,o),
(1808,770,cs),
(1679,828,o),
(1484,843,o),
(1227,846,cs),
(924,849,ls),
(447,854,o),
(321,923,o),
(321,1096,cs),
(321,1131,ls),
(321,1319,o),
(447,1408,o),
(924,1408,cs),
(1206,1408,ls),
(1623,1408,o),
(1791,1355,o),
(1815,1110,cs),
(1819,1065,o),
(1846,1032,o),
(1897,1032,cs),
(1929,1032,ls),
(1981,1032,o),
(2012,1060,o),
(2007,1114,cs),
(1974,1459,o),
(1722,1568,o),
(1227,1568,cs),
(903,1568,ls),
(285,1568,o),
(129,1352,o),
(129,1116,cs),
(129,1072,ls),
(129,911,o),
(188,829,o),
(328,766,cs),
(457,708,o),
(652,693,o),
(909,690,cs),
(1212,687,ls),
(1689,682,o),
(1815,613,o),
(1815,440,cs),
(1815,405,ls),
(1815,217,o),
(1689,128,o),
(1212,128,cs),
(930,128,ls),
(513,128,o),
(345,181,o),
(321,426,cs),
(317,471,o),
(290,504,o),
(239,504,cs),
(207,504,ls),
(155,504,o),
(124,476,o),
(129,422,cs),
(162,77,o),
(414,-32,o),
(909,-32,cs)
);
}
);
width = 2136;
},
{
anchors = (
{
name = bottom;
pos = (1073,-32);
},
{
name = top;
pos = (1073,1536);
}
);
layerId = m002;
shapes = (
{
closed = 1;
nodes = (
(1235,-32,ls),
(1747,-32,o),
(2018,114,o),
(2018,445,cs),
(2018,469,ls),
(2018,630,o),
(1949,780,o),
(1809,843,cs),
(1680,901,o),
(1469,941,o),
(1232,944,cs),
(929,948,ls),
(692,951,o),
(560,991,o),
(560,1060,cs),
(560,1096,ls),
(560,1165,o),
(692,1208,o),
(929,1208,cs),
(1211,1208,ls),
(1420,1208,o),
(1568,1165,o),
(1580,1110,cs),
(1590,1064,o),
(1611,1032,o),
(1662,1032,cs),
(1934,1032,ls),
(1986,1032,o),
(2017,1060,o),
(2012,1114,cs),
(1979,1459,o),
(1727,1568,o),
(1235,1568,cs),
(911,1568,ls),
(399,1568,o),
(128,1422,o),
(128,1091,cs),
(128,1067,ls),
(128,906,o),
(197,756,o),
(337,693,cs),
(466,635,o),
(677,595,o),
(914,592,cs),
(1217,588,ls),
(1454,585,o),
(1586,545,o),
(1586,476,cs),
(1586,440,ls),
(1586,371,o),
(1454,328,o),
(1217,328,cs),
(935,328,ls),
(726,328,o),
(578,371,o),
(566,426,cs),
(556,472,o),
(535,504,o),
(484,504,cs),
(212,504,ls),
(160,504,o),
(129,476,o),
(134,422,cs),
(167,77,o),
(419,-32,o),
(911,-32,cs)
);
}
);
width = 2146;
}
);
unicode = 83;
},
{
glyphname = Germandbls;
kernLeft = H;
kernRight = Z;
lastChange = "2025-01-02 00:08:36 +0000";
layers = (
{
anchors = (
{
name = bottom;
pos = (987,-100);
},
{
name = top;
pos = (987,1436);
}
);
layerId = m01;
shapes = (
{
closed = 1;
nodes = (
(1358,0,ls),
(1586,0,o),
(1838,122,o),
(1838,408,cs),
(1838,456,ls),
(1838,742,o),
(1586,864,o),
(1358,864,cs),
(1342,864,l),
(1797,1319,ls),
(1826,1348,o),
(1838,1377,o),
(1838,1418,cs),
(1838,1456,ls),
(1838,1508,o),
(1810,1536,o),
(1758,1536,cs),
(272,1536,ls),
(220,1536,o),
(192,1508,o),
(192,1456,cs),
(192,80,ls),
(192,28,o),
(220,0,o),
(272,0,cs),
(304,0,ls),
(356,0,o),
(384,28,o),
(384,80,cs),
(384,1376,l),
(1605,1376,l),
(1031,802,ls),
(981,752,o),
(1001,704,o),
(1072,704,cs),
(1337,704,ls),
(1514,704,o),
(1646,629,o),
(1646,447,cs),
(1646,418,ls),
(1646,236,o),
(1514,160,o),
(1337,160,cs),
(1080,160,ls),
(903,160,o),
(771,236,o),
(771,418,cs),
(771,438,ls),
(771,491,o),
(735,506,o),
(697,468,cs),
(614,385,ls),
(592,363,o),
(583,339,o),
(590,308,cs),
(642,93,o),
(860,0,o),
(1059,0,cs)
);
}
);
width = 1926;
},
{
anchors = (
{
name = bottom;
pos = (963,0);
},
{
name = top;
pos = (963,1536);
}
);
layerId = m002;
shapes = (
{
closed = 1;
nodes = (
(1418,0,ls),
(1586,0,o),
(1838,134,o),
(1838,394,cs),
(1838,441,ls),
(1838,701,o),
(1673,781,o),
(1592,817,cs),
(1574,825,l),
(1821,1319,ls),
(1837,1351,o),
(1838,1377,o),
(1838,1418,cs),
(1838,1456,ls),
(1838,1508,o),
(1810,1536,o),
(1758,1536,cs),
(272,1536,ls),
(220,1536,o),
(192,1508,o),
(192,1456,cs),
(192,80,ls),
(192,28,o),
(220,0,o),
(272,0,cs),
(544,0,ls),
(596,0,o),
(624,28,o),
(624,80,cs),
(624,1176,l),
(1272,1176,l),
(1035,702,ls),
(1002,637,o),
(1004,604,o),
(1075,604,cs),
(1267,604,ls),
(1338,604,o),
(1406,578,o),
(1406,496,cs),
(1406,468,ls),
(1406,386,o),
(1338,360,o),
(1267,360,cs),
(1207,360,ls),
(1139,360,o),
(1071,386,o),
(1035,422,cs),
(1009,448,ls),
(972,485,o),
(931,494,o),
(908,448,cs),
(776,185,ls),
(762,157,o),
(757,123,o),
(762,108,cs),
(790,14,o),
(934,0,o),
(1133,0,cs)
);
}
);
width = 1926;
}
);
unicode = 7838;
},
{
glyphname = T;
kernLeft = T;
kernRight = T;
lastChange = "2024-12-28 15:28:16 +0000";
layers = (
{
anchors = (
{
name = bottom;
pos = (1040,0);
},
{
name = center;
pos = (1040,768);
},
{
name = top;
pos = (1040,1536);
}
);
layerId = m01;
shapes = (
{
closed = 1;
nodes = (
(96,1448,ls),
(96,1404,o),
(124,1376,o),
(168,1376,cs),
(944,1376,l),
(944,79,ls),
(944,27,o),
(972,-1,o),
(1024,-1,cs),
(1056,-1,ls),
(1108,-1,o),
(1136,27,o),
(1136,79,cs),
(1136,1376,l),
(1912,1376,ls),
(1956,1376,o),
(1984,1404,o),
(1984,1448,cs),
(1984,1464,ls),
(1984,1508,o),
(1956,1536,o),
(1912,1536,cs),
(168,1536,ls),
(124,1536,o),
(96,1508,o),
(96,1464,cs)
);
}
);
width = 2080;
},
{
anchors = (
{
name = bottom;
pos = (1040,0);
},
{
name = center;
pos = (1040,768);
},
{
name = top;
pos = (1040,1536);
}
);
layerId = m002;
shapes = (
{
closed = 1;
nodes = (
(96,1248,ls),
(96,1204,o),
(124,1176,o),
(168,1176,cs),
(824,1176,l),
(824,79,ls),
(824,27,o),
(852,-1,o),
(904,-1,cs),
(1176,-1,ls),
(1228,-1,o),
(1256,27,o),
(1256,79,cs),
(1256,1176,l),
(1912,1176,ls),
(1956,1176,o),
(1984,1204,o),
(1984,1248,cs),
(1984,1464,ls),
(1984,1508,o),
(1956,1536,o),
(1912,1536,cs),
(168,1536,ls),
(124,1536,o),
(96,1508,o),
(96,1464,cs)
);
}
);
width = 2080;
}
);
unicode = 84;
},
{
glyphname = U;
kernLeft = O;
kernRight = O;
lastChange = "2025-01-27 04:53:57 +0000";
layers = (
{
anchors = (
{
name = bottom;
pos = (1072,0);
},
{
name = ogonek;
pos = (1612,10);
},
{
name = top;
pos = (1072,1536);
},
{
name = topright;
pos = (1988,1521);
}
);
layerId = m01;
shapes = (
{
closed = 1;
nodes = (
(1236,-32,ls),
(1764,-32,o),
(2016,94,o),
(2016,744,cs),
(2016,1456,ls),
(2016,1508,o),
(1988,1536,o),
(1936,1536,cs),
(1904,1536,ls),
(1852,1536,o),
(1824,1508,o),
(1824,1456,cs),
(1824,749,ls),
(1824,187,o),
(1692,128,o),
(1215,128,cs),
(929,128,ls),
(452,128,o),
(320,187,o),
(320,749,cs),
(320,1456,ls),
(320,1508,o),
(292,1536,o),
(240,1536,cs),
(208,1536,ls),
(156,1536,o),
(128,1508,o),
(128,1456,cs),
(128,744,ls),
(128,94,o),
(380,-32,o),
(908,-32,cs)
);
}
);
width = 2144;
},
{
anchors = (
{
name = bottom;
pos = (1072,0);
},
{
name = ogonek;
pos = (1612,10);
},
{
name = top;
pos = (1072,1536);
},
{
name = topright;
pos = (1956,1489);
}
);
layerId = m002;
shapes = (
{
closed = 1;
nodes = (
(1236,-32,ls),
(1764,-32,o),
(2016,94,o),
(2016,744,cs),
(2016,1456,ls),
(2016,1508,o),
(1988,1536,o),
(1936,1536,cs),
(1664,1536,ls),
(1612,1536,o),
(1584,1508,o),
(1584,1456,cs),
(1584,749,ls),
(1584,387,o),
(1452,328,o),
(1215,328,cs),
(929,328,ls),
(692,328,o),
(560,387,o),
(560,749,cs),
(560,1456,ls),
(560,1508,o),
(532,1536,o),
(480,1536,cs),
(208,1536,ls),
(156,1536,o),
(128,1508,o),
(128,1456,cs),
(128,744,ls),
(128,94,o),
(380,-32,o),
(908,-32,cs)
);
}
);
width = 2144;
}
);
unicode = 85;
},
{
glyphname = V;
kernLeft = V;
kernRight = V;
lastChange = "2025-01-27 03:53:18 +0000";
layers = (
{
anchors = (
{
name = bottom;
pos = (1082,0);
},
{
name = top;
pos = (1082,1536);
}
);
layerId = m01;
shapes = (
{
closed = 1;
nodes = (
(1170,0,ls),
(1214,0,o),
(1244,16,o),
(1266,55,cs),
(2054,1440,ls),
(2086,1496,o),
(2062,1536,o),
(1999,1536,cs),
(1952,1536,ls),
(1908,1536,o),
(1878,1520,o),
(1856,1481,cs),
(1104,160,l),
(1060,160,l),
(308,1481,ls),
(286,1520,o),
(256,1536,o),
(212,1536,cs),
(166,1536,ls),
(103,1536,o),
(78,1496,o),
(110,1440,cs),
(898,55,ls),
(920,16,o),
(950,0,o),
(994,0,cs)
);
}
);
width = 2164;
},
{
anchors = (
{
name = bottom;
pos = (1079,0);
},
{
name = top;
pos = (1079,1536);
}
);
layerId = m002;
shapes = (
{
closed = 1;
nodes = (
(1348,0,ls),
(1392,0,o),
(1426,14,o),
(1444,55,cs),
(2051,1440,ls),
(2077,1500,o),
(2059,1536,o),
(1996,1536,cs),
(1687,1536,ls),
(1643,1536,o),
(1609,1521,o),
(1591,1481,cs),
(1101,360,l),
(1057,360,l),
(567,1481,ls),
(549,1521,o),
(515,1536,o),
(471,1536,cs),
(163,1536,ls),
(100,1536,o),
(81,1500,o),
(107,1440,cs),
(714,55,ls),
(732,14,o),
(766,0,o),
(810,0,cs)
);
}
);
width = 2158;
}
);
unicode = 86;
},
{
glyphname = W;
kernLeft = W;
kernRight = W;
lastChange = "2025-01-27 03:54:50 +0000";
layers = (
{
anchors = (
{
name = bottom;
pos = (1663,0);
},
{
name = top;
pos = (1663,1536);
}
);
layerId = m01;
shapes = (
{
closed = 1;
nodes = (
(1019,0,ls),
(1063,0,o),
(1098,15,o),
(1115,55,cs),
(1663,1360,l),
(2211,55,ls),
(2228,15,o),
(2263,0,o),
(2307,0,cs),
(2482,0,ls),
(2526,0,o),
(2559,15,o),
(2578,55,cs),
(3218,1440,ls),
(3246,1500,o),
(3226,1536,o),
(3163,1536,cs),
(3117,1536,ls),
(3073,1536,o),
(3039,1521,o),
(3021,1481,cs),
(2411,160,l),
(2379,160,l),
(1825,1481,ls),
(1808,1521,o),
(1773,1536,o),
(1729,1536,cs),
(1597,1536,ls),
(1553,1536,o),
(1518,1521,o),
(1501,1481,cs),
(947,160,l),
(915,160,l),
(305,1481,ls),
(287,1521,o),
(253,1536,o),
(209,1536,cs),
(164,1536,ls),
(101,1536,o),
(80,1500,o),
(108,1440,cs),
(748,55,ls),
(767,15,o),
(800,0,o),
(844,0,cs)
);
}
);
width = 3326;
},
{
anchors = (
{
name = bottom;
pos = (1663,0);
},
{
name = top;
pos = (1663,1536);
}
);
layerId = m002;
shapes = (
{
closed = 1;
nodes = (
(1149,0,ls),
(1193,0,o),
(1228,15,o),
(1245,55,cs),
(1663,1046,l),
(2081,55,ls),
(2098,15,o),
(2133,0,o),
(2177,0,cs),
(2482,0,ls),
(2526,0,o),
(2559,15,o),
(2578,55,cs),
(3218,1440,ls),
(3246,1500,o),
(3226,1536,o),
(3163,1536,cs),
(2857,1536,ls),
(2813,1536,o),
(2779,1521,o),
(2761,1481,cs),
(2327,541,l),
(2327,541,l),
(1892,1481,ls),
(1874,1520,o),
(1840,1536,o),
(1796,1536,cs),
(1530,1536,ls),
(1486,1536,o),
(1452,1520,o),
(1434,1481,cs),
(999,541,l),
(999,541,l),
(565,1481,ls),
(546,1521,o),
(513,1536,o),
(469,1536,cs),
(164,1536,ls),
(101,1536,o),
(80,1500,o),
(108,1440,cs),
(748,55,ls),
(767,15,o),
(800,0,o),
(844,0,cs)
);
}
);
width = 3326;
}
);
unicode = 87;
},
{
glyphname = X;
kernLeft = Z;
kernRight = Z;
lastChange = "2025-01-27 03:43:08 +0000";
layers = (
{
anchors = (
{
name = bottom;
pos = (986,0);
},
{
name = top;
pos = (986,1536);
}
);
layerId = m01;
shapes = (
{
closed = 1;
nodes = (
(252,0,ls),
(293,0,o),
(322,12,o),
(351,41,cs),
(1748,1438,ls),
(1798,1488,o),
(1778,1536,o),
(1707,1536,cs),
(1655,1536,ls),
(1614,1536,o),
(1585,1524,o),
(1556,1495,cs),
(159,98,ls),
(109,48,o),
(122,0,o),
(186,0,cs)
);
},
{
closed = 1;
nodes = (
(1621,41,ls),
(1650,12,o),
(1679,0,o),
(1720,0,cs),
(1786,0,ls),
(1850,0,o),
(1863,48,o),
(1813,98,cs),
(416,1495,ls),
(387,1524,o),
(358,1536,o),
(317,1536,cs),
(251,1536,ls),
(187,1536,o),
(174,1488,o),
(224,1438,cs)
);
}
);
width = 1972;
},
{
anchors = (
{
name = bottom;
pos = (1238,0);
},
{
name = top;
pos = (1238,1536);
}
);
layerId = m002;
shapes = (
{
closed = 1;
nodes = (
(614,0,ls),
(655,0,o),
(684,12,o),
(713,41,cs),
(2110,1438,ls),
(2160,1488,o),
(2140,1536,o),
(2069,1536,cs),
(1655,1536,ls),
(1614,1536,o),
(1585,1524,o),
(1556,1495,cs),
(159,98,ls),
(109,48,o),
(122,0,o),
(186,0,cs)
);
},
{
closed = 1;
nodes = (
(1573,41,ls),
(1602,12,o),
(1631,0,o),
(1672,0,cs),
(2100,0,ls),
(2164,0,o),
(2177,48,o),
(2127,98,cs),
(730,1495,ls),
(701,1524,o),
(672,1536,o),
(631,1536,cs),
(203,1536,ls),
(139,1536,o),
(126,1488,o),
(176,1438,cs)
);
}
);
width = 2286;
}
);
unicode = 88;
},
{
glyphname = Y;
kernLeft = V;
kernRight = V;
lastChange = "2024-12-28 16:09:50 +0000";
layers = (
{
anchors = (
{
name = bottom;
pos = (1000,0);
},
{
name = top;
pos = (1000,1536);
},
{
name = topleft;
pos = (81,1536);
}
);
layerId = m01;
shapes = (
{
closed = 1;
nodes = (
(1016,0,ls),
(1068,0,o),
(1096,28,o),
(1096,80,cs),
(1096,768,l),
(1843,1428,ls),
(1896,1474,o),
(1873,1536,o),
(1802,1536,cs),
(1752,1536,ls),
(1711,1536,o),
(1683,1521,o),
(1653,1495,cs),
(1000,918,l),
(347,1495,ls),
(317,1521,o),
(289,1536,o),
(248,1536,cs),
(198,1536,ls),
(127,1536,o),
(104,1474,o),
(157,1428,cs),
(904,768,l),
(904,80,ls),
(904,28,o),
(932,0,o),
(984,0,cs)
);
}
);
width = 2000;
},
{
anchors = (
{
name = bottom;
pos = (1086,0);
},
{
name = top;
pos = (1086,1536);
},
{
name = topleft;
pos = (167,1536);
}
);
layerId = m002;
shapes = (
{
closed = 1;
nodes = (
(1222,0,ls),
(1274,0,o),
(1302,28,o),
(1302,80,cs),
(1302,624,l),
(2018,1428,ls),
(2063,1478,o),
(2048,1536,o),
(1977,1536,cs),
(1604,1536,ls),
(1563,1536,o),
(1532,1525,o),
(1505,1495,cs),
(1086,1024,l),
(667,1495,ls),
(640,1525,o),
(609,1536,o),
(568,1536,cs),
(195,1536,ls),
(124,1536,o),
(109,1478,o),
(154,1428,cs),
(870,624,l),
(870,80,ls),
(870,28,o),
(898,0,o),
(950,0,cs)
);
}
);
width = 2172;
}
);
unicode = 89;
},
{
glyphname = Z;
kernLeft = Z;
kernRight = Z;
lastChange = "2024-12-28 05:00:32 +0000";
layers = (
{
anchors = (
{
name = bottom;
pos = (1024,0);
},
{
name = center;
pos = (1024,768);
},
{
name = top;
pos = (1024,1536);
}
);
layerId = m01;
shapes = (
{
closed = 1;
nodes = (
(1848,0,ls),
(1892,0,o),
(1920,28,o),
(1920,72,cs),
(1920,88,ls),
(1920,132,o),
(1892,160,o),
(1848,160,cs),
(408,160,l),
(1873,1338,ls),
(1906,1365,o),
(1920,1394,o),
(1920,1428,cs),
(1920,1464,ls),
(1920,1508,o),
(1892,1536,o),
(1848,1536,cs),
(200,1536,ls),
(156,1536,o),
(128,1508,o),
(128,1464,cs),
(128,1448,ls),
(128,1404,o),
(156,1376,o),
(200,1376,cs),
(1640,1376,l),
(175,198,ls),
(142,171,o),
(128,142,o),
(128,108,cs),
(128,72,ls),
(128,28,o),
(156,0,o),
(200,0,cs)
);
}
);
width = 2048;
},
{
anchors = (
{
name = bottom;
pos = (1024,0);
},
{
name = center;
pos = (1024,768);
},
{
name = top;
pos = (1024,1536);
}
);
layerId = m002;
shapes = (
{
closed = 1;
nodes = (
(1848,0,ls),
(1892,0,o),
(1920,28,o),
(1920,72,cs),
(1920,288,ls),
(1920,332,o),
(1892,360,o),
(1848,360,cs),
(798,360,l),
(1873,1138,ls),
(1907,1163,o),
(1920,1194,o),
(1920,1228,cs),
(1920,1464,ls),
(1920,1508,o),
(1892,1536,o),
(1848,1536,cs),
(200,1536,ls),
(156,1536,o),
(128,1508,o),
(128,1464,cs),
(128,1248,ls),
(128,1204,o),
(156,1176,o),
(200,1176,cs),
(1250,1176,l),
(175,398,ls),
(142,374,o),
(128,342,o),
(128,308,cs),
(128,72,ls),
(128,28,o),
(156,0,o),
(200,0,cs)
);
}
);
width = 2048;
}
);
unicode = 90;
},
{
glyphname = Saltillo;
kernLeft = H;
kernRight = H;
lastChange = "2024-12-31 23:58:24 +0000";
layers = (
{
layerId = m01;
shapes = (
{
closed = 1;
nodes = (
(216,496,ls),
(218,444,o),
(244,416,o),
(296,416,cs),
(312,416,ls),
(364,416,o),
(390,444,o),
(392,496,cs),
(432,1456,ls),
(434,1508,o),
(389,1536,o),
(337,1536,cs),
(271,1536,ls),
(219,1536,o),
(174,1508,o),
(176,1456,cs)
);
}
);
width = 608;
},
{
layerId = m002;
shapes = (
{
closed = 1;
nodes = (
(216,592,ls),
(218,540,o),
(244,512,o),
(296,512,cs),
(452,512,ls),
(504,512,o),
(530,540,o),
(532,592,cs),
(572,1488,ls),
(574,1540,o),
(529,1568,o),
(477,1568,cs),
(271,1568,ls),
(219,1568,o),
(174,1540,o),
(176,1488,cs)
);
}
);
width = 748;
}
);
unicode = 42891;
},
{
glyphname = a;
kernLeft = a;
kernRight = a;
lastChange = "2025-02-01 18:09:16 +0000";
layers = (
{
anchors = (
{
name = bottom;
pos = (838,0);
},
{
name = ogonek;
pos = (1428,10);
},
{
name = top;
pos = (838,1152);
}
);
layerId = m01;
shapes = (
{
closed = 1;
nodes = (
(1468,-31,ls),
(1520,-31,o),
(1548,-4,o),
(1548,48,cs),
(1548,656,ls),
(1548,1084,o),
(1380,1168,o),
(928,1168,cs),
(734,1168,ls),
(320,1168,o),
(152,1101,o),
(120,891,cs),
(112,838,o),
(144,808,o),
(197,808,cs),
(214,808,ls),
(249,808,o),
(287,834,o),
(297,883,cs),
(320,997,o),
(422,1024,o),
(748,1024,cs),
(914,1024,ls),
(1306,1024,o),
(1362,987,o),
(1374,568,c),
(1321,612,o),
(1225,648,o),
(864,648,cs),
(716,648,ls),
(264,648,o),
(96,564,o),
(96,328,cs),
(96,296,ls),
(96,60,o),
(264,-24,o),
(716,-24,cs),
(864,-24,ls),
(1231,-24,o),
(1313,15,o),
(1372,54,c),
(1372,-2,o),
(1400,-31,o),
(1452,-31,cs)
);
},
{
closed = 1;
nodes = (
(360,120,o),
(272,159,o),
(272,299,cs),
(272,325,ls),
(272,465,o),
(360,504,o),
(730,504,cs),
(850,504,ls),
(1284,504,o),
(1372,465,o),
(1372,325,cs),
(1372,299,ls),
(1372,159,o),
(1284,120,o),
(850,120,cs),
(730,120,ls)
);
}
);
width = 1676;
},
{
anchors = (
{
name = bottom;
pos = (848,0);
},
{
name = ogonek;
pos = (1526,10);
},
{
name = top;
pos = (848,1152);
}
);
layerId = m002;
shapes = (
{
closed = 1;
nodes = (
(1488,-31,ls),
(1540,-31,o),
(1568,-4,o),
(1568,48,cs),
(1568,656,ls),
(1568,1084,o),
(1400,1168,o),
(915,1168,cs),
(767,1168,ls),
(320,1168,o),
(152,1101,o),
(120,855,cs),
(113,802,o),
(144,772,o),
(197,772,cs),
(434,772,ls),
(469,772,o),
(492,798,o),
(496,807,cs),
(507,832,o),
(568,844,o),
(784,844,cs),
(898,844,ls),
(1092,844,o),
(1158,815,o),
(1170,701,c),
(1107,720,o),
(1025,728,o),
(924,728,cs),
(776,728,ls),
(264,728,o),
(96,644,o),
(96,368,cs),
(96,336,ls),
(96,60,o),
(264,-24,o),
(776,-24,cs),
(924,-24,ls),
(1031,-24,o),
(1115,-15,o),
(1181,7,c),
(1193,-17,o),
(1218,-31,o),
(1252,-31,cs)
);
},
{
closed = 1;
nodes = (
(580,264,o),
(492,303,o),
(492,343,cs),
(492,361,ls),
(492,401,o),
(580,440,o),
(690,440,cs),
(964,440,ls),
(1084,440,o),
(1172,402,o),
(1172,361,cs),
(1172,343,ls),
(1172,303,o),
(1084,264,o),
(964,264,cs),
(690,264,ls)
);
}
);
width = 1696;
}
);
unicode = 97;
},
{
glyphname = c;
kernLeft = c;
kernRight = c;
lastChange = "2025-02-01 18:09:16 +0000";
layers = (
{
anchors = (
{
name = bottom;
pos = (725,0);
},
{
name = top;
pos = (725,1024);
}
);
layerId = m01;
shapes = (
{
closed = 1;
nodes = (
(832,-24,ls),
(1146,-24,o),
(1314,43,o),
(1346,253,cs),
(1354,306,o),
(1322,336,o),
(1269,336,cs),
(1252,336,ls),
(1202,336,o),
(1180,310,o),
(1169,260,cs),
(1143,145,o),
(1045,120,o),
(818,120,cs),
(630,120,ls),
(360,120,o),
(272,159,o),
(272,499,cs),
(272,525,ls),
(272,865,o),
(360,904,o),
(630,904,cs),
(818,904,ls),
(1045,904,o),
(1143,879,o),
(1169,764,cs),
(1180,714,o),
(1202,688,o),
(1252,688,cs),
(1269,688,ls),
(1322,688,o),
(1354,718,o),
(1346,771,cs),
(1314,981,o),
(1146,1048,o),
(832,1048,cs),
(616,1048,ls),
(264,1048,o),
(96,964,o),
(96,528,cs),
(96,496,ls),
(96,60,o),
(264,-24,o),
(616,-24,cs)
);
}
);
width = 1443;
},
{
anchors = (
{
name = bottom;
pos = (831,0);
},
{
name = top;
pos = (831,1152);
}
);
layerId = m002;
shapes = (
{
closed = 1;
nodes = (
(941,-24,ls),
(1366,-24,o),
(1534,43,o),
(1566,421,cs),
(1570,474,o),
(1542,504,o),
(1489,504,cs),
(1252,504,ls),
(1202,504,o),
(1174,480,o),
(1169,428,cs),
(1161,339,o),
(1073,300,o),
(926,300,cs),
(740,300,ls),
(580,300,o),
(492,339,o),
(492,563,cs),
(492,589,ls),
(492,813,o),
(580,852,o),
(740,852,cs),
(926,852,ls),
(1073,852,o),
(1161,813,o),
(1169,724,cs),
(1174,672,o),
(1202,648,o),
(1252,648,cs),
(1489,648,ls),
(1542,648,o),
(1570,678,o),
(1566,731,cs),
(1534,1109,o),
(1366,1176,o),
(941,1176,cs),
(725,1176,ls),
(264,1176,o),
(96,1092,o),
(96,592,cs),
(96,560,ls),
(96,60,o),
(264,-24,o),
(725,-24,cs)
);
}
);
width = 1662;
}
);
unicode = 99;
},
{
glyphname = e;
kernLeft = c;
kernRight = a;
lastChange = "2025-02-01 18:39:04 +0000";
layers = (
{
anchors = (
{
name = bottom;
pos = (822,0);
},
{
name = ogonek;
pos = (1229,10);
},
{
name = top;
pos = (823,1024);
}
);
layerId = m01;
shapes = (
{
closed = 1;
nodes = (
(939,-24,ls),
(1279,-24,o),
(1487,28,o),
(1545,294,cs),
(1554,335,o),
(1531,360,o),
(1490,360,cs),
(1435,360,ls),
(1399,360,o),
(1378,342,o),
(1370,305,cs),
(1334,140,o),
(1149,120,o),
(1035,120,cs),
(629,120,ls),
(374,120,o),
(281,156,o),
(273,504,c),
(1508,504,ls),
(1546,504,o),
(1567,524,o),
(1568,560,cs),
(1568,560,l),
(1568,592,ls),
(1568,1092,o),
(1400,1176,o),
(939,1176,cs),
(725,1176,ls),
(264,1176,o),
(96,1092,o),
(96,592,cs),
(96,560,ls),
(96,60,o),
(264,-24,o),
(725,-24,cs)
);
},
{
closed = 1;
nodes = (
(281,996,o),
(374,1032,o),
(629,1032,cs),
(1035,1032,ls),
(1290,1032,o),
(1383,996,o),
(1391,648,c),
(273,648,l)
);
}
);
width = 1696;
},
{
anchors = (
{
name = bottom;
pos = (848,0);
},
{
name = ogonek;
pos = (1398,10);
},
{
name = top;
pos = (848,1152);
}
);
layerId = m002;
shapes = (
{
closed = 1;
nodes = (
(939,-24,ls),
(1279,-24,o),
(1460,21,o),
(1531,247,cs),
(1548,302,o),
(1517,336,o),
(1461,336,cs),
(1170,336,ls),
(1139,336,o),
(1120,324,o),
(1095,304,cs),
(1054,271,o),
(996,264,o),
(924,264,cs),
(740,264,ls),
(612,264,o),
(530,288,o),
(502,432,c),
(1486,432,ls),
(1537,432,o),
(1567,459,o),
(1568,510,cs),
(1568,560,l),
(1568,592,ls),
(1568,1092,o),
(1400,1176,o),
(939,1176,cs),
(725,1176,ls),
(264,1176,o),
(96,1092,o),
(96,592,cs),
(96,560,ls),
(96,60,o),
(264,-24,o),
(725,-24,cs)
);
},
{
closed = 1;
nodes = (
(530,864,o),
(612,888,o),
(740,888,cs),
(924,888,ls),
(1052,888,o),
(1134,864,o),
(1162,720,c),
(502,720,l)
);
}
);
width = 1696;
}
);
unicode = 101;
},
{
glyphname = esh;
kernLeft = j;
kernRight = f;
lastChange = "2025-01-01 23:00:03 +0000";
layers = (
{
layerId = m01;
shapes = (
{
closed = 1;
nodes = (
(451,-512,o),
(628,-373,o),
(628,40,cs),
(628,983,ls),
(628,1301,o),
(705,1355,o),
(915,1360,cs),
(969,1361,o),
(998,1387,o),
(998,1432,cs),
(998,1466,ls),
(998,1511,o),
(969,1536,o),
(915,1536,cs),
(613,1536,o),
(436,1397,o),
(436,984,cs),
(436,41,ls),
(436,-277,o),
(359,-331,o),
(149,-336,cs),
(95,-337,o),
(66,-363,o),
(66,-408,cs),
(66,-442,ls),
(66,-487,o),
(95,-512,o),
(149,-512,cs)
);
}
);
width = 1064;
},
{
layerId = m002;
shapes = (
{
closed = 1;
nodes = (
(571,-512,o),
(748,-373,o),
(748,40,cs),
(748,763,ls),
(748,1081,o),
(825,1135,o),
(915,1140,cs),
(969,1143,o),
(998,1167,o),
(998,1212,cs),
(998,1466,ls),
(998,1511,o),
(969,1536,o),
(915,1536,cs),
(493,1536,o),
(316,1397,o),
(316,984,cs),
(316,261,ls),
(316,-57,o),
(239,-111,o),
(149,-116,cs),
(95,-119,o),
(66,-143,o),
(66,-188,cs),
(66,-442,ls),
(66,-487,o),
(95,-512,o),
(149,-512,cs)
);
}
);
width = 1064;
}
);
unicode = 643;
},
{
glyphname = ezh;
lastChange = "2025-02-01 21:07:47 +0000";
layers = (
{
anchors = (
{
name = bottom;
pos = (721,0);
},
{
name = top;
pos = (721,1152);
}
);
layerId = m01;
shapes = (
{
closed = 1;
nodes = (
(1002,-512,ls),
(1262,-512,o),
(1482,-390,o),
(1482,-104,cs),
(1482,-56,ls),
(1482,230,o),
(1282,352,o),
(826,352,c),
(1441,967,ls),
(1470,996,o),
(1482,1025,o),
(1482,1050,cs),
(1482,1088,ls),
(1482,1124,o),
(1454,1152,o),
(1402,1152,cs),
(168,1152,ls),
(116,1152,o),
(88,1124,o),
(88,1088,cs),
(88,1072,ls),
(88,1036,o),
(116,1008,o),
(168,1008,cs),
(1250,1008,l),
(532,290,ls),
(482,240,o),
(502,208,o),
(573,208,cs),
(981,208,ls),
(1174,208,o),
(1306,138,o),
(1306,-60,cs),
(1306,-99,ls),
(1306,-297,o),
(1174,-368,o),
(981,-368,cs),
(573,-368,ls),
(443,-368,o),
(287,-348,o),
(248,-123,cs),
(236,-54,o),
(198,-52,o),
(151,-99,cs),
(134,-116,ls),
(105,-145,o),
(91,-174,o),
(98,-216,cs),
(137,-449,o),
(390,-512,o),
(552,-512,cs)
);
}
);
width = 1570;
},
{
anchors = (
{
name = bottom;
pos = (760,0);
},
{
name = top;
pos = (760,1152);
}
);
layerId = m002;
shapes = (
{
closed = 1;
nodes = (
(818,-544,ls),
(1328,-544,o),
(1496,-460,o),
(1496,-22,cs),
(1496,10,ls),
(1496,255,o),
(1430,435,o),
(1232,492,c),
(1465,797,ls),
(1484,822,o),
(1496,841,o),
(1496,871,cs),
(1496,1092,ls),
(1496,1131,o),
(1475,1152,o),
(1436,1152,cs),
(148,1152,ls),
(109,1152,o),
(88,1131,o),
(88,1092,cs),
(88,888,ls),
(88,849,o),
(109,828,o),
(148,828,cs),
(986,828,l),
(568,282,ls),
(534,238,o),
(545,208,o),
(598,208,cs),
(876,208,ls),
(1012,208,o),
(1100,169,o),
(1100,7,cs),
(1100,-19,ls),
(1100,-181,o),
(1012,-220,o),
(804,-220,cs),
(716,-220,ls),
(577,-220,o),
(477,-187,o),
(468,14,cs),
(465,82,o),
(410,92,o),
(371,39,cs),
(154,-256,ls),
(135,-282,o),
(127,-310,o),
(143,-341,cs),
(232,-507,o),
(419,-544,o),
(702,-544,cs)
);
}
);
width = 1584;
}
);
unicode = 658;
},
{
glyphname = f;
kernLeft = f;
kernRight = f;
lastChange = "2025-02-01 19:36:42 +0000";
layers = (
{
anchors = (
{
name = bottom;
pos = (576,0);
},
{
name = top;
pos = (576,1632);
}
);
layerId = m01;
shapes = (
{
closed = 1;
nodes = (
(400,1,ls),
(451,2,o),
(480,31,o),
(480,82,cs),
(480,1015,ls),
(480,1333,o),
(557,1382,o),
(964,1392,cs),
(1003,1393,o),
(1024,1413,o),
(1024,1452,cs),
(1024,1476,ls),
(1024,1515,o),
(1003,1537,o),
(964,1536,cs),
(455,1524,o),
(304,1429,o),
(304,1016,cs),
(304,80,ls),
(304,28,o),
(332,0,o),
(384,1,cs)
);
},
{
closed = 1;
nodes = (
(128,944,ls),
(128,908,o),
(156,880,o),
(208,880,cs),
(954,880,ls),
(996,880,o),
(1024,902,o),
(1024,944,cs),
(1024,960,ls),
(1024,1002,o),
(996,1024,o),
(954,1024,cs),
(208,1024,ls),
(156,1024,o),
(128,996,o),
(128,960,cs)
);
}
);
width = 1120;
},
{
anchors = (
{
name = bottom;
pos = (560,0);
},
{
name = top;
pos = (560,1632);
}
);
layerId = m002;
shapes = (
{
closed = 1;
nodes = (
(620,1,ls),
(671,1,o),
(700,31,o),
(700,82,cs),
(700,1015,ls),
(700,1249,o),
(777,1308,o),
(964,1308,cs),
(1003,1308,o),
(1024,1329,o),
(1024,1368,cs),
(1024,1572,ls),
(1024,1611,o),
(1003,1632,o),
(964,1632,cs),
(455,1632,o),
(304,1525,o),
(304,1016,cs),
(304,80,ls),
(304,28,o),
(332,1,o),
(384,1,cs)
);
},
{
closed = 1;
nodes = (
(128,892,ls),
(128,856,o),
(156,828,o),
(208,828,cs),
(954,828,ls),
(996,828,o),
(1024,850,o),
(1024,892,cs),
(1024,1088,ls),
(1024,1130,o),
(996,1152,o),
(954,1152,cs),
(208,1152,ls),
(156,1152,o),
(128,1124,o),
(128,1088,cs)
);
}
);
width = 1120;
}
);
unicode = 102;
},
{
glyphname = g;
kernLeft = c;
kernRight = a;
lastChange = "2025-02-01 18:24:54 +0000";
layers = (
{
anchors = (
{
name = bottom;
pos = (752,-544);
},
{
name = top;
pos = (752,1048);
}
);
layerId = m01;
shapes = (
{
closed = 1;
nodes = (
(173,-176,o),
(141,-206,o),
(149,-259,cs),
(181,-469,o),
(349,-536,o),
(671,-536,cs),
(833,-536,ls),
(1185,-536,o),
(1353,-452,o),
(1353,-16,cs),
(1353,944,ls),
(1353,996,o),
(1325,1024,o),
(1273,1023,cs),
(1257,1023,ls),
(1206,1022,o),
(1177,993,o),
(1177,942,cs),
(1177,-15,ls),
(1177,-355,o),
(1089,-392,o),
(819,-392,cs),
(685,-392,ls),
(451,-392,o),
(352,-365,o),
(326,-251,cs),
(315,-202,o),
(293,-176,o),
(243,-176,cs),
(226,-176,ls)
);
},
{
pos = (1176,0);
ref = "_bowl-b";
scale = (-1,1);
}
);
width = 1481;
},
{
anchors = (
{
name = bottom;
pos = (843,-512);
},
{
name = top;
pos = (843,1152);
}
);
layerId = m002;
shapes = (
{
closed = 1;
nodes = (
(154,-94,o),
(124,-124,o),
(130,-177,cs),
(162,-477,o),
(330,-544,o),
(787,-544,cs),
(881,-544,ls),
(1390,-544,o),
(1558,-460,o),
(1558,-16,cs),
(1558,1073,ls),
(1558,1125,o),
(1530,1152,o),
(1478,1152,cs),
(1242,1152,ls),
(1191,1152,o),
(1162,1122,o),
(1162,1071,cs),
(1162,-15,ls),
(1162,-183,o),
(1077,-220,o),
(887,-220,cs),
(771,-220,ls),
(617,-220,o),
(532,-204,o),
(527,-169,cs),
(522,-135,o),
(494,-94,o),
(444,-94,cs),
(207,-94,ls)
);
},
{
pos = (1162,0);
ref = "_bowl-b";
scale = (-1,1);
}
);
width = 1686;
}
);
unicode = 103;
},
{
glyphname = glottalstop;
kernLeft = V;
kernRight = V;
lastChange = "2025-01-01 00:31:16 +0000";
layers = (
{
layerId = m01;
shapes = (
{
closed = 1;
nodes = (
(1409,750,o),
(1577,834,o),
(1577,1127,cs),
(1577,1159,ls),
(1577,1452,o),
(1409,1536,o),
(1062,1536,cs),
(718,1536,ls),
(409,1536,o),
(241,1469,o),
(209,1259,cs),
(201,1206,o),
(233,1176,o),
(286,1176,cs),
(303,1176,ls),
(353,1176,o),
(375,1202,o),
(386,1252,cs),
(412,1367,o),
(510,1392,o),
(732,1392,cs),
(1048,1392,ls),
(1313,1392,o),
(1401,1353,o),
(1401,1156,cs),
(1401,1130,ls),
(1401,933,o),
(1313,894,o),
(1180,894,cs),
(1064,894,ls),
(962,894,o),
(794,810,o),
(794,517,cs),
(794,465,o),
(822,437,o),
(874,437,cs),
(890,437,ls),
(942,437,o),
(970,465,o),
(970,514,cs),
(970,711,o),
(1058,750,o),
(1110,750,cs),
(1240,750,ls)
);
}
);
width = 1769;
},
{
layerId = m002;
shapes = (
{
closed = 1;
nodes = (
(1400,695,o),
(1641,829,o),
(1641,1097,cs),
(1641,1129,ls),
(1641,1397,o),
(1397,1536,o),
(1088,1536,cs),
(782,1536,ls),
(473,1536,o),
(305,1397,o),
(273,1187,cs),
(265,1134,o),
(297,1104,o),
(350,1104,cs),
(602,1104,ls),
(641,1104,o),
(656,1130,o),
(666,1168,cs),
(679,1218,o),
(790,1248,o),
(916,1248,cs),
(1012,1248,ls),
(1157,1248,o),
(1245,1209,o),
(1245,1126,cs),
(1245,1100,ls),
(1245,1027,o),
(1157,978,o),
(1104,978,cs),
(1024,978,ls),
(922,978,o),
(754,862,o),
(754,592,cs),
(754,543,o),
(782,520,o),
(834,520,cs),
(1078,520,ls),
(1127,520,o),
(1148,543,o),
(1152,592,cs),
(1156,636,o),
(1202,687,o),
(1248,689,cs),
(1275,690,ls)
);
}
);
width = 1769;
}
);
unicode = 660;
},
{
glyphname = idotless;
kernLeft = l;
kernRight = l;
lastChange = "2025-02-01 21:09:57 +0000";
layers = (
{
anchors = (
{
name = bottom;
pos = (216,0);
},
{
name = ogonek;
pos = (304,0);
},
{
name = top;
pos = (216,1024);
}
);
layerId = m01;
shapes = (
{
closed = 1;
nodes = (
(128,80,ls),
(128,28,o),
(156,0,o),
(208,0,cs),
(224,0,ls),
(276,0,o),
(304,28,o),
(304,80,cs),
(304,944,ls),
(304,996,o),
(276,1024,o),
(224,1024,cs),
(208,1024,ls),
(156,1024,o),
(128,996,o),
(128,944,cs)
);
}
);
width = 432;
},
{
anchors = (
{
name = bottom;
pos = (326,0);
},
{
name = ogonek;
pos = (492,0);
},
{
name = top;
pos = (326,1152);
}
);
layerId = m002;
shapes = (
{
closed = 1;
nodes = (
(128,80,ls),
(128,28,o),
(156,0,o),
(208,0,cs),
(444,0,ls),
(496,0,o),
(524,28,o),
(524,80,cs),
(524,1072,ls),
(524,1124,o),
(496,1152,o),
(444,1152,cs),
(208,1152,ls),
(156,1152,o),
(128,1124,o),
(128,1072,cs)
);
}
);
width = 652;
}
);
unicode = 305;
},
{
glyphname = jdotless;
kernLeft = j;
kernRight = l;
lastChange = "2025-02-01 21:10:11 +0000";
layers = (
{
anchors = (
{
name = bottom;
pos = (274,-512);
},
{
name = top;
pos = (360,1024);
}
);
layerId = m01;
shapes = (
{
closed = 1;
nodes = (
(280,-528,o),
(448,-395,o),
(448,8,cs),
(448,944,ls),
(448,996,o),
(420,1024,o),
(368,1023,cs),
(352,1023,ls),
(301,1022,o),
(272,993,o),
(272,942,cs),
(272,9,ls),
(272,-325,o),
(172,-377,o),
(28,-384,cs),
(-11,-386,o),
(-32,-405,o),
(-32,-444,cs),
(-32,-468,ls),
(-32,-507,o),
(-11,-528,o),
(28,-528,cs)
);
}
);
width = 624;
},
{
anchors = (
{
name = bottom;
pos = (274,-512);
},
{
name = top;
pos = (360,1152);
}
);
layerId = m002;
shapes = (
{
closed = 1;
nodes = (
(390,-528,o),
(558,-395,o),
(558,8,cs),
(558,1072,ls),
(558,1124,o),
(530,1151,o),
(478,1151,cs),
(242,1151,ls),
(191,1151,o),
(162,1121,o),
(162,1070,cs),
(162,189,ls),
(162,-145,o),
(62,-197,o),
(-82,-204,cs),
(-121,-206,o),
(-142,-225,o),
(-142,-264,cs),
(-142,-468,ls),
(-142,-507,o),
(-121,-528,o),
(-82,-528,cs)
);
}
);
width = 624;
}
);
unicode = 567;
},
{
glyphname = k;
kernLeft = l;
kernRight = z;
lastChange = "2025-02-01 18:09:16 +0000";
layers = (
{
anchors = (
{
name = bottom;
pos = (673,0);
},
{
name = top;
pos = (220,1536);
}
);
layerId = m01;
shapes = (
{
closed = 1;
nodes = (
(1183,0,ls),
(1241,0,o),
(1254,39,o),
(1206,73,cs),
(574,516,l),
(1194,951,ls),
(1242,985,o),
(1229,1024,o),
(1171,1024,cs),
(1061,1024,ls),
(1032,1024,o),
(1010,1018,o),
(986,1001,cs),
(403,592,l),
(216,592,l),
(216,432,l),
(415,432,l),
(998,23,ls),
(1022,6,o),
(1044,0,o),
(1073,0,cs)
);
},
{
ref = "_stem-v-lowercase-CH";
}
);
width = 1301;
},
{
anchors = (
{
name = bottom;
pos = (840,0);
},
{
name = top;
pos = (840,1632);
}
);
layerId = m002;
shapes = (
{
closed = 1;
nodes = (
(1477,0,ls),
(1535,0,o),
(1545,35,o),
(1500,73,cs),
(909,580,l),
(1524,1079,ls),
(1568,1115,o),
(1559,1152,o),
(1501,1152,cs),
(1089,1152,ls),
(1060,1152,o),
(1036,1147,o),
(1014,1129,cs),
(532,738,l),
(294,738,l),
(294,414,l),
(549,414,l),
(1005,23,ls),
(1029,3,o),
(1051,0,o),
(1080,0,cs)
);
},
{
ref = "_stem-v-lowercase-CH";
}
);
width = 1680;
}
);
unicode = 107;
},
{
glyphname = eng;
kernLeft = a;
kernRight = l;
lastChange = "2025-02-02 00:39:52 +0000";
layers = (
{
anchors = (
{
name = bottom;
pos = (981,-512);
},
{
name = top;
pos = (981,1024);
}
);
layerId = m01;
shapes = (
{
ref = n;
},
{
closed = 1;
nodes = (
(1123,-544,o),
(1284,-405,o),
(1284,8,cs),
(1284,433,ls),
(1284,485,o),
(1256,512,o),
(1204,512,cs),
(1188,512,ls),
(1137,512,o),
(1108,482,o),
(1108,431,cs),
(1108,9,ls),
(1108,-325,o),
(1031,-379,o),
(887,-384,cs),
(833,-386,o),
(804,-411,o),
(804,-456,cs),
(804,-474,ls),
(804,-519,o),
(833,-544,o),
(887,-544,cs)
);
}
);
width = 1380;
},
{
anchors = (
{
name = bottom;
pos = (981,-512);
},
{
name = top;
pos = (981,1024);
}
);
layerId = m002;
shapes = (
{
ref = n;
},
{
closed = 1;
nodes = (
(1461,-544,o),
(1590,-417,o),
(1590,8,cs),
(1590,433,ls),
(1590,485,o),
(1562,512,o),
(1510,512,cs),
(1274,512,ls),
(1223,512,o),
(1194,482,o),
(1194,431,cs),
(1194,9,ls),
(1194,-161,o),
(1149,-215,o),
(1069,-220,cs),
(1015,-223,o),
(986,-247,o),
(986,-292,cs),
(986,-474,ls),
(986,-519,o),
(1015,-544,o),
(1069,-544,cs)
);
}
);
width = 1686;
}
);
unicode = 331;
},
{
glyphname = o;
kernLeft = c;
kernRight = c;
lastChange = "2025-02-02 00:40:20 +0000";
layers = (
{
anchors = (
{
name = bottom;
pos = (724,0);
},
{
name = center;
pos = (724,512);
},
{
name = ogonek;
pos = (1284,10);
},
{
name = top;
pos = (724,1024);
},
{
name = topright;
pos = (1209,964);
}
);
layerId = m01;
shapes = (
{
closed = 1;
nodes = (
(96,496,ls),
(96,60,o),
(264,-24,o),
(616,-24,cs),
(832,-24,ls),
(1184,-24,o),
(1352,60,o),
(1352,496,cs),
(1352,528,ls),
(1352,964,o),
(1184,1048,o),
(832,1048,cs),
(616,1048,ls),
(264,1048,o),
(96,964,o),
(96,528,cs)
);
},
{
closed = 1;
nodes = (
(272,865,o),
(360,904,o),
(630,904,cs),
(818,904,ls),
(1088,904,o),
(1176,865,o),
(1176,525,cs),
(1176,499,ls),
(1176,159,o),
(1088,120,o),
(818,120,cs),
(630,120,ls),
(360,120,o),
(272,159,o),
(272,499,cs),
(272,525,ls)
);
}
);
width = 1448;
},
{
anchors = (
{
name = bottom;
pos = (832,0);
},
{
name = center;
pos = (832,576);
},
{
name = ogonek;
pos = (1434,10);
},
{
name = top;
pos = (832,1152);
},
{
name = topright;
pos = (1452,1152);
}
);
layerId = m002;
shapes = (
{
closed = 1;
nodes = (
(96,560,ls),
(96,60,o),
(264,-24,o),
(774,-24,cs),
(890,-24,ls),
(1400,-24,o),
(1568,60,o),
(1568,560,cs),
(1568,592,ls),
(1568,1092,o),
(1400,1176,o),
(890,1176,cs),
(774,1176,ls),
(264,1176,o),
(96,1092,o),
(96,592,cs)
);
},
{
closed = 1;
nodes = (
(492,813,o),
(580,852,o),
(788,852,cs),
(876,852,ls),
(1084,852,o),
(1172,813,o),
(1172,589,cs),
(1172,563,ls),
(1172,339,o),
(1084,300,o),
(876,300,cs),
(788,300,ls),
(580,300,o),
(492,339,o),
(492,563,cs),
(492,589,ls)
);
}
);
width = 1664;
}
);
unicode = 111;
},
{
glyphname = thorn;
kernLeft = a;
kernRight = c;
lastChange = "2025-02-02 00:33:54 +0000";
layers = (
{
layerId = m01;
shapes = (
{
closed = 1;
nodes = (
(128,-304,ls),
(128,-356,o),
(156,-384,o),
(208,-384,cs),
(224,-384,ls),
(276,-384,o),
(304,-356,o),
(304,-304,cs),
(304,1456,ls),
(304,1508,o),
(276,1536,o),
(224,1536,cs),
(208,1536,ls),
(156,1536,o),
(128,1508,o),
(128,1456,cs)
);
},
{
pos = (304,0);
ref = "_bowl-b";
}
);
width = 1480;
},
{
layerId = m002;
shapes = (
{
closed = 1;
nodes = (
(128,-304,ls),
(128,-356,o),
(156,-384,o),
(208,-384,cs),
(444,-384,ls),
(496,-384,o),
(524,-356,o),
(524,-304,cs),
(524,1456,ls),
(524,1508,o),
(496,1536,o),
(444,1536,cs),
(208,1536,ls),
(156,1536,o),
(128,1508,o),
(128,1456,cs)
);
},
{
pos = (524,0);
ref = "_bowl-b";
}
);
width = 1480;
}
);
unicode = 254;
},
{
glyphname = r;
kernLeft = a;
kernRight = r;
lastChange = "2025-02-02 00:40:41 +0000";
layers = (
{
anchors = (
{
name = bottom;
pos = (509,0);
},
{
name = top;
pos = (509,1024);
}
);
layerId = m01;
shapes = (
{
closed = 1;
nodes = (
(224,0,ls),
(276,0,o),
(304,28,o),
(304,80,cs),
(304,608,ls),
(304,771,o),
(402,904,o),
(662,904,cs),
(824,904,ls),
(866,904,o),
(884,922,o),
(884,964,cs),
(884,988,ls),
(884,1030,o),
(866,1048,o),
(824,1048,cs),
(662,1048,ls),
(532,1048,o),
(392,995,o),
(304,882,c),
(304,944,ls),
(304,996,o),
(276,1024,o),
(224,1024,cs),
(208,1024,ls),
(156,1024,o),
(128,996,o),
(128,944,cs),
(128,80,ls),
(128,28,o),
(156,0,o),
(208,0,cs)
);
}
);
width = 980;
},
{
anchors = (
{
name = bottom;
pos = (326,0);
},
{
name = top;
pos = (600,1152);
}
);
layerId = m002;
shapes = (
{
closed = 1;
nodes = (
(444,4,ls),
(496,4,o),
(524,32,o),
(524,84,cs),
(524,589,ls),
(524,763,o),
(602,828,o),
(845,828,cs),
(1024,828,ls),
(1076,828,o),
(1104,856,o),
(1104,908,cs),
(1104,1072,ls),
(1104,1124,o),
(1076,1152,o),
(1024,1152,cs),
(845,1152,ls),
(755,1152,o),
(634,1141,o),
(524,1064,c),
(524,1072,ls),
(524,1124,o),
(496,1152,o),
(444,1152,cs),
(208,1152,ls),
(156,1152,o),
(128,1124,o),
(128,1072,cs),
(128,84,ls),
(128,32,o),
(156,4,o),
(208,4,cs)
);
}
);
width = 1200;
}
);
unicode = 114;
},
{
glyphname = s;
kernLeft = a;
kernRight = a;
lastChange = "2025-02-01 18:09:16 +0000";
layers = (
{
anchors = (
{
name = bottom;
pos = (757,-24);
},
{
name = top;
pos = (757,1024);
}
);
layerId = m01;
shapes = (
{
closed = 1;
nodes = (
(865,-24,ls),
(1217,-24,o),
(1385,77,o),
(1385,264,cs),
(1385,300,ls),
(1385,487,o),
(1217,580,o),
(865,583,cs),
(663,585,ls),
(393,588,o),
(305,621,o),
(305,731,cs),
(305,757,ls),
(305,865,o),
(393,904,o),
(663,904,cs),
(881,904,ls),
(1084,904,o),
(1182,879,o),
(1208,764,cs),
(1219,714,o),
(1241,688,o),
(1291,688,cs),
(1308,688,ls),
(1358,688,o),
(1393,718,o),
(1385,771,cs),
(1353,981,o),
(1185,1048,o),
(895,1048,cs),
(649,1048,ls),
(297,1048,o),
(129,947,o),
(129,760,cs),
(129,732,ls),
(129,545,o),
(297,444,o),
(649,441,cs),
(851,439,ls),
(1121,436,o),
(1209,403,o),
(1209,293,cs),
(1209,267,ls),
(1209,159,o),
(1121,120,o),
(851,120,cs),
(633,120,ls),
(430,120,o),
(332,145,o),
(306,260,cs),
(295,310,o),
(273,336,o),
(223,336,cs),
(206,336,ls),
(156,336,o),
(121,306,o),
(129,253,cs),
(161,43,o),
(329,-24,o),
(619,-24,cs)
);
}
);
width = 1514;
},
{
anchors = (
{
name = bottom;
pos = (867,0);
},
{
name = top;
pos = (867,1152);
}
);
layerId = m002;
shapes = (
{
closed = 1;
nodes = (
(975,-24,ls),
(1437,-24,o),
(1605,77,o),
(1605,330,cs),
(1605,359,ls),
(1605,612,o),
(1437,711,o),
(975,718,cs),
(773,721,ls),
(543,724,o),
(505,743,o),
(505,795,cs),
(505,814,ls),
(505,866,o),
(579,888,o),
(819,888,cs),
(937,888,ls),
(1167,888,o),
(1224,873,o),
(1228,852,cs),
(1233,825,o),
(1261,816,o),
(1311,816,cs),
(1528,816,ls),
(1578,816,o),
(1613,846,o),
(1605,899,cs),
(1573,1109,o),
(1405,1176,o),
(1005,1176,cs),
(759,1176,ls),
(297,1176,o),
(129,1075,o),
(129,822,cs),
(129,793,ls),
(129,540,o),
(297,441,o),
(759,434,cs),
(961,431,ls),
(1191,428,o),
(1229,409,o),
(1229,357,cs),
(1229,338,ls),
(1229,286,o),
(1191,264,o),
(915,264,cs),
(797,264,ls),
(567,264,o),
(510,279,o),
(506,300,cs),
(501,328,o),
(473,336,o),
(423,336,cs),
(206,336,ls),
(156,336,o),
(121,306,o),
(129,253,cs),
(161,43,o),
(329,-24,o),
(729,-24,cs)
);
}
);
width = 1734;
}
);
unicode = 115;
},
{
glyphname = germandbls;
kernLeft = f;
kernRight = O;
lastChange = "2025-02-02 00:38:46 +0000";
layers = (
{
anchors = (
{
name = bottom;
pos = (719,0);
},
{
name = top;
pos = (719,1632);
}
);
layerId = m01;
shapes = (
{
closed = 1;
nodes = (
(849,0,ls),
(1185,0,o),
(1353,84,o),
(1353,412,cs),
(1353,444,ls),
(1353,619,o),
(1280,728,o),
(1096,774,c),
(1237,822,o),
(1289,919,o),
(1289,1092,cs),
(1289,1124,ls),
(1289,1452,o),
(1121,1536,o),
(785,1536,cs),
(765,1536,ls),
(279,1527,o),
(128,1429,o),
(128,1016,cs),
(128,80,ls),
(128,28,o),
(156,0,o),
(208,1,cs),
(224,1,ls),
(275,2,o),
(304,31,o),
(304,82,cs),
(304,1015,ls),
(304,1333,o),
(381,1392,o),
(765,1392,cs),
(771,1392,ls),
(1025,1392,o),
(1113,1363,o),
(1113,1121,cs),
(1113,1095,ls),
(1113,879,o),
(1025,840,o),
(848,840,cs),
(748,840,ls),
(709,840,o),
(688,819,o),
(688,780,cs),
(688,756,ls),
(688,717,o),
(709,696,o),
(748,696,cs),
(835,696,ls),
(1089,696,o),
(1177,657,o),
(1177,441,cs),
(1177,415,ls),
(1177,173,o),
(1089,144,o),
(835,144,cs),
(556,144,ls),
(517,144,o),
(496,123,o),
(496,84,cs),
(496,60,ls),
(496,21,o),
(517,0,o),
(556,0,cs)
);
}
);
width = 1449;
},
{
anchors = (
{
name = bottom;
pos = (842,0);
},
{
name = top;
pos = (842,1632);
}
);
layerId = m002;
shapes = (
{
closed = 1;
nodes = (
(1096,0,ls),
(1432,0,o),
(1600,84,o),
(1600,412,cs),
(1600,444,ls),
(1600,619,o),
(1547,688,o),
(1383,774,c),
(1514,872,o),
(1536,939,o),
(1536,1092,cs),
(1536,1124,ls),
(1536,1452,o),
(1368,1536,o),
(909,1536,cs),
(889,1536,ls),
(280,1536,o),
(128,1429,o),
(128,1016,cs),
(128,80,ls),
(128,28,o),
(156,1,o),
(208,1,cs),
(444,1,ls),
(495,1,o),
(524,31,o),
(524,82,cs),
(524,1015,ls),
(524,1165,o),
(566,1212,o),
(818,1212,cs),
(845,1212,ls),
(1084,1212,o),
(1140,1165,o),
(1140,1084,cs),
(1140,1058,ls),
(1140,977,o),
(1098,930,o),
(912,930,cs),
(872,930,ls),
(833,930,o),
(812,909,o),
(812,870,cs),
(812,666,ls),
(812,627,o),
(833,606,o),
(872,606,cs),
(1062,606,ls),
(1116,606,o),
(1204,561,o),
(1204,480,cs),
(1204,454,ls),
(1204,373,o),
(1116,324,o),
(1062,324,cs),
(835,324,ls),
(796,324,o),
(776,303,o),
(776,264,cs),
(776,60,ls),
(776,21,o),
(796,0,o),
(835,0,cs)
);
}
);
width = 1696;
}
);
unicode = 223;
},
{
glyphname = t;
kernLeft = O;
kernRight = e;
lastChange = "2025-02-01 18:09:16 +0000";
layers = (
{
anchors = (
{
name = bottom;
pos = (673,0);
},
{
name = center;
pos = (673,512);
},
{
name = top;
pos = (673,1376);
},
{
name = topright;
pos = (1182,1632);
}
);
layerId = m01;
shapes = (
{
closed = 1;
nodes = (
(830,0,ls),
(1064,0,o),
(1226,73,o),
(1248,427,cs),
(1251,482,o),
(1221,512,o),
(1169,512,cs),
(1153,512,ls),
(1102,512,o),
(1075,483,o),
(1072,429,cs),
(1057,176,o),
(970,144,o),
(816,144,cs),
(530,144,ls),
(360,144,o),
(272,184,o),
(272,448,cs),
(272,880,l),
(1106,880,ls),
(1158,880,o),
(1186,908,o),
(1186,944,cs),
(1186,960,ls),
(1186,996,o),
(1158,1024,o),
(1106,1024,cs),
(272,1024,l),
(272,1296,ls),
(272,1348,o),
(244,1376,o),
(192,1376,cs),
(176,1376,ls),
(124,1376,o),
(96,1348,o),
(96,1296,cs),
(96,449,ls),
(96,85,o),
(264,0,o),
(516,0,cs)
);
}
);
width = 1344;
},
{
anchors = (
{
name = bottom;
pos = (832,0);
},
{
name = center;
pos = (832,576);
},
{
name = top;
pos = (832,1536);
},
{
name = topright;
pos = (1643,1632);
}
);
layerId = m002;
shapes = (
{
closed = 1;
nodes = (
(941,0,ls),
(1366,0,o),
(1534,67,o),
(1566,445,cs),
(1571,500,o),
(1541,528,o),
(1489,528,cs),
(1252,528,ls),
(1201,528,o),
(1174,506,o),
(1169,452,cs),
(1161,363,o),
(1073,324,o),
(926,324,cs),
(740,324,ls),
(580,324,o),
(492,364,o),
(492,484,cs),
(492,828,l),
(1425,828,ls),
(1477,828,o),
(1505,856,o),
(1505,892,cs),
(1505,1088,ls),
(1505,1124,o),
(1477,1152,o),
(1425,1152,cs),
(492,1152,l),
(492,1456,ls),
(492,1508,o),
(464,1536,o),
(412,1536,cs),
(176,1536,ls),
(124,1536,o),
(96,1508,o),
(96,1456,cs),
(96,449,ls),
(96,85,o),
(264,0,o),
(725,0,cs)
);
}
);
width = 1663;
}
);
unicode = 116;
},
{
glyphname = tbar;
kernLeft = O;
kernRight = e;
lastChange = "2025-02-02 00:42:16 +0000";
layers = (
{
layerId = m01;
shapes = (
{
closed = 1;
nodes = (
(948,624,ls),
(1000,624,o),
(1028,652,o),
(1028,688,cs),
(1028,704,ls),
(1028,740,o),
(1000,768,o),
(948,768,cs),
(212,768,ls),
(160,768,o),
(132,740,o),
(132,704,cs),
(132,688,ls),
(132,652,o),
(160,624,o),
(212,624,cs)
);
},
{
ref = t;
}
);
width = 1344;
},
{
layerId = m002;
shapes = (
{
closed = 1;
nodes = (
(760,432,ls),
(812,432,o),
(840,460,o),
(840,496,cs),
(840,656,ls),
(840,692,o),
(812,720,o),
(760,720,cs),
(176,720,ls),
(124,720,o),
(96,692,o),
(96,656,cs),
(96,496,ls),
(96,460,o),
(124,432,o),
(176,432,cs)
);
},
{
ref = t;
}
);
width = 1344;
}
);
unicode = 359;
},
{
glyphname = ubar;
kernLeft = a;
kernRight = a;
lastChange = "2025-02-02 00:43:49 +0000";
layers = (
{
layerId = m01;
shapes = (
{
alignment = -1;
pos = (4,0);
ref = u;
},
{
closed = 1;
nodes = (
(0,484,ls),
(0,445,o),
(21,424,o),
(60,424,cs),
(1356,424,ls),
(1395,424,o),
(1416,445,o),
(1416,484,cs),
(1416,540,ls),
(1416,579,o),
(1395,600,o),
(1356,600,cs),
(60,600,ls),
(21,600,o),
(0,579,o),
(0,540,cs)
);
}
);
width = 1416;
},
{
layerId = m002;
shapes = (
{
alignment = -1;
pos = (4,0);
ref = u;
},
{
closed = 1;
nodes = (
(0,484,ls),
(0,445,o),
(21,424,o),
(60,424,cs),
(1666,424,ls),
(1705,424,o),
(1726,445,o),
(1726,484,cs),
(1726,724,ls),
(1726,763,o),
(1705,784,o),
(1666,784,cs),
(60,784,ls),
(21,784,o),
(0,763,o),
(0,724,cs)
);
}
);
width = 1726;
}
);
unicode = 649;
},
{
glyphname = v;
kernLeft = v;
kernRight = v;
lastChange = "2025-02-01 18:09:16 +0000";
layers = (
{
anchors = (
{
name = bottom;
pos = (661,0);
},
{
name = top;
pos = (661,1024);
}
);
layerId = m01;
shapes = (
{
closed = 1;
nodes = (
(725,0,ls),
(754,0,o),
(775,11,o),
(788,37,cs),
(1247,961,ls),
(1265,998,o),
(1254,1024,o),
(1218,1024,cs),
(1143,1024,ls),
(1114,1024,o),
(1093,1013,o),
(1080,987,cs),
(661,144,l),
(242,987,ls),
(229,1013,o),
(208,1024,o),
(179,1024,cs),
(104,1024,ls),
(68,1024,o),
(57,998,o),
(75,961,cs),
(534,37,ls),
(547,11,o),
(568,0,o),
(597,0,cs)
);
}
);
width = 1322;
},
{
anchors = (
{
name = bottom;
pos = (794,0);
},
{
name = top;
pos = (794,1152);
}
);
layerId = m002;
shapes = (
{
closed = 1;
nodes = (
(1040,0,ls),
(1069,0,o),
(1093,11,o),
(1103,37,cs),
(1515,1089,ls),
(1530,1126,o),
(1522,1152,o),
(1486,1152,cs),
(1167,1152,ls),
(1138,1152,o),
(1115,1142,o),
(1104,1115,cs),
(794,324,l),
(484,1115,ls),
(473,1142,o),
(450,1152,o),
(421,1152,cs),
(102,1152,ls),
(66,1152,o),
(58,1126,o),
(73,1089,cs),
(486,37,ls),
(496,11,o),
(520,0,o),
(549,0,cs)
);
}
);
width = 1588;
}
);
unicode = 118;
},
{
glyphname = w;
kernLeft = w;
kernRight = w;
lastChange = "2025-02-01 18:09:16 +0000";
layers = (
{
anchors = (
{
name = bottom;
pos = (1058,0);
},
{
name = top;
pos = (1058,1024);
}
);
layerId = m01;
shapes = (
{
closed = 1;
nodes = (
(678,0,ls),
(708,0,o),
(729,13,o),
(740,41,cs),
(1058,880,l),
(1376,41,ls),
(1387,13,o),
(1408,0,o),
(1438,0,cs),
(1600,0,ls),
(1630,0,o),
(1651,13,o),
(1662,41,cs),
(2022,961,ls),
(2037,999,o),
(2021,1024,o),
(1981,1024,cs),
(1919,1024,ls),
(1889,1024,o),
(1868,1011,o),
(1857,983,cs),
(1539,144,l),
(1508,144,l),
(1190,983,ls),
(1179,1011,o),
(1158,1024,o),
(1128,1024,cs),
(988,1024,ls),
(958,1024,o),
(937,1011,o),
(926,983,cs),
(608,144,l),
(577,144,l),
(259,983,ls),
(248,1011,o),
(227,1024,o),
(197,1024,cs),
(131,1024,ls),
(93,1024,o),
(79,999,o),
(94,961,cs),
(454,41,ls),
(465,13,o),
(486,0,o),
(516,0,cs)
);
}
);
width = 2116;
},
{
anchors = (
{
name = bottom;
pos = (1143,0);
},
{
name = top;
pos = (1143,1152);
}
);
layerId = m002;
shapes = (
{
closed = 1;
nodes = (
(872,0,ls),
(902,0,o),
(923,13,o),
(934,41,cs),
(1143,576,l),
(1352,41,ls),
(1363,13,o),
(1384,0,o),
(1414,0,cs),
(1742,0,ls),
(1772,0,o),
(1793,13,o),
(1804,41,cs),
(2214,1089,ls),
(2229,1128,o),
(2213,1152,o),
(2173,1152,cs),
(1865,1152,ls),
(1835,1152,o),
(1814,1140,o),
(1803,1111,cs),
(1594,576,l),
(1594,576,l),
(1385,1111,ls),
(1374,1140,o),
(1353,1152,o),
(1323,1152,cs),
(963,1152,ls),
(933,1152,o),
(912,1140,o),
(901,1111,cs),
(692,576,l),
(692,576,l),
(483,1111,ls),
(472,1140,o),
(451,1152,o),
(421,1152,cs),
(109,1152,ls),
(71,1152,o),
(57,1128,o),
(72,1089,cs),
(482,41,ls),
(493,13,o),
(514,0,o),
(544,0,cs)
);
}
);
width = 2286;
}
);
unicode = 119;
},
{
glyphname = x;
kernLeft = z;
kernRight = z;
lastChange = "2025-02-01 18:09:16 +0000";
layers = (
{
anchors = (
{
name = bottom;
pos = (661,0);
},
{
name = top;
pos = (661,1024);
}
);
layerId = m01;
shapes = (
{
closed = 1;
nodes = (
(1073,31,ls),
(1095,9,o),
(1117,0,o),
(1147,0,cs),
(1206,0,ls),
(1258,0,o),
(1272,36,o),
(1234,74,cs),
(315,993,ls),
(293,1015,o),
(271,1024,o),
(241,1024,cs),
(182,1024,ls),
(130,1024,o),
(115,988,o),
(153,950,cs)
);
},
{
closed = 1;
nodes = (
(175,0,ls),
(205,0,o),
(227,9,o),
(249,31,cs),
(1169,950,ls),
(1207,988,o),
(1191,1024,o),
(1138,1024,cs),
(1081,1024,ls),
(1051,1024,o),
(1029,1015,o),
(1007,993,cs),
(88,74,ls),
(50,36,o),
(64,0,o),
(116,0,cs)
);
}
);
width = 1322;
},
{
anchors = (
{
name = bottom;
pos = (834,0);
},
{
name = top;
pos = (834,1152);
}
);
layerId = m002;
shapes = (
{
closed = 1;
nodes = (
(1165,31,ls),
(1187,9,o),
(1209,0,o),
(1239,0,cs),
(1552,0,ls),
(1604,0,o),
(1618,36,o),
(1580,74,cs),
(533,1121,ls),
(511,1143,o),
(489,1152,o),
(459,1152,cs),
(146,1152,ls),
(94,1152,o),
(79,1115,o),
(117,1078,cs)
);
},
{
closed = 1;
nodes = (
(429,0,ls),
(459,0,o),
(481,9,o),
(503,31,cs),
(1551,1078,ls),
(1589,1115,o),
(1573,1152,o),
(1520,1152,cs),
(1209,1152,ls),
(1179,1152,o),
(1157,1143,o),
(1135,1121,cs),
(88,74,ls),
(50,36,o),
(64,0,o),
(116,0,cs)
);
}
);
width = 1668;
}
);
unicode = 120;
},
{
glyphname = y;
kernLeft = v;
kernRight = w;
lastChange = "2025-02-01 18:09:16 +0000";
layers = (
{
anchors = (
{
name = bottom;
pos = (661,0);
},
{
name = top;
pos = (661,1024);
}
);
layerId = m01;
shapes = (
{
closed = 1;
nodes = (
(361,-512,o),
(572,-397,o),
(788,37,cs),
(1247,961,ls),
(1265,997,o),
(1254,1024,o),
(1218,1024,cs),
(1143,1024,ls),
(1114,1024,o),
(1093,1013,o),
(1080,987,cs),
(661,144,l),
(243,987,ls),
(230,1013,o),
(209,1024,o),
(180,1024,cs),
(104,1024,ls),
(68,1024,o),
(57,998,o),
(75,961,cs),
(534,37,ls),
(547,11,o),
(567,0,o),
(588,0,cs),
(588,0,o),
(589,0,o),
(589,0,c),
(428,-325,o),
(264,-362,o),
(136,-368,cs),
(97,-370,o),
(66,-389,o),
(66,-428,cs),
(66,-452,ls),
(66,-491,o),
(97,-512,o),
(136,-512,cs)
);
}
);
width = 1322;
},
{
anchors = (
{
name = bottom;
pos = (794,0);
},
{
name = top;
pos = (794,1152);
}
);
layerId = m002;
shapes = (
{
closed = 1;
nodes = (
(745,-512,o),
(925,-418,o),
(1103,37,cs),
(1515,1089,ls),
(1530,1127,o),
(1522,1152,o),
(1486,1152,cs),
(1167,1152,ls),
(1138,1152,o),
(1115,1143,o),
(1104,1115,cs),
(794,324,l),
(484,1115,ls),
(473,1143,o),
(450,1152,o),
(421,1152,cs),
(102,1152,ls),
(66,1152,o),
(58,1127,o),
(73,1089,cs),
(485,37,ls),
(496,10,o),
(520,0,o),
(549,0,cs),
(549,0,o),
(667,0,o),
(667,0,c),
(611,-145,o),
(520,-182,o),
(270,-188,cs),
(231,-189,o),
(200,-209,o),
(200,-248,cs),
(200,-452,ls),
(200,-491,o),
(231,-512,o),
(270,-512,cs)
);
}
);
width = 1588;
}
);
unicode = 121;
},
{
glyphname = z;
kernLeft = z;
kernRight = z;
lastChange = "2025-02-01 18:09:16 +0000";
layers = (
{
anchors = (
{
name = bottom;
pos = (737,0);
},
{
name = center;
pos = (737,512);
},
{
name = top;
pos = (737,1024);
}
);
layerId = m01;
shapes = (
{
closed = 1;
nodes = (
(1317,0,ls),
(1356,0,o),
(1377,21,o),
(1377,60,cs),
(1377,84,ls),
(1377,123,o),
(1356,144,o),
(1317,144,cs),
(378,144,l),
(1330,855,ls),
(1364,880,o),
(1378,901,o),
(1378,940,cs),
(1378,964,ls),
(1378,1003,o),
(1357,1024,o),
(1318,1024,cs),
(157,1024,ls),
(118,1024,o),
(97,1003,o),
(97,964,cs),
(97,940,ls),
(97,901,o),
(118,880,o),
(157,880,cs),
(1096,880,l),
(144,169,ls),
(110,144,o),
(96,123,o),
(96,84,cs),
(96,60,ls),
(96,21,o),
(117,0,o),
(156,0,cs)
);
}
);
width = 1474;
},
{
anchors = (
{
name = bottom;
pos = (817,0);
},
{
name = center;
pos = (817,576);
},
{
name = top;
pos = (817,1152);
}
);
layerId = m002;
shapes = (
{
closed = 1;
nodes = (
(1477,0,ls),
(1516,0,o),
(1537,21,o),
(1537,60,cs),
(1537,264,ls),
(1537,303,o),
(1516,324,o),
(1477,324,cs),
(761,324,l),
(1490,803,ls),
(1526,827,o),
(1538,849,o),
(1538,888,cs),
(1538,1092,ls),
(1538,1131,o),
(1517,1152,o),
(1478,1152,cs),
(157,1152,ls),
(118,1152,o),
(97,1131,o),
(97,1092,cs),
(97,888,ls),
(97,849,o),
(118,828,o),
(157,828,cs),
(873,828,l),
(144,349,ls),
(108,325,o),
(96,303,o),
(96,264,cs),
(96,60,ls),
(96,21,o),
(117,0,o),
(156,0,cs)
);
}
);
width = 1634;
}
);
unicode = 122;
},
{
glyphname = ordfeminine;
lastChange = "2025-01-26 17:23:02 +0000";
layers = (
{
layerId = m01;
shapes = (
{
closed = 1;
nodes = (
(1068,577,ls),
(1111,576,o),
(1135,600,o),
(1135,644,cs),
(1135,1082,ls),
(1135,1465,o),
(1020,1536,o),
(669,1536,cs),
(547,1536,ls),
(255,1536,o),
(113,1479,o),
(86,1302,cs),
(79,1257,o),
(106,1232,o),
(151,1232,cs),
(165,1232,ls),
(208,1232,o),
(227,1254,o),
(236,1295,cs),
(255,1391,o),
(341,1414,o),
(559,1414,cs),
(658,1414,ls),
(939,1414,o),
(987,1383,o),
(987,1081,cs),
(987,646,ls),
(987,603,o),
(1011,578,o),
(1054,577,cs)
);
},
{
closed = 1;
nodes = (
(658,576,ls),
(960,576,o),
(1061,647,o),
(1061,845,cs),
(1061,875,ls),
(1061,1072,o),
(960,1143,o),
(658,1143,cs),
(532,1143,ls),
(208,1143,o),
(66,1072,o),
(66,875,cs),
(66,845,ls),
(66,647,o),
(208,576,o),
(532,576,cs)
);
},
{
closed = 1;
nodes = (
(289,698,o),
(214,731,o),
(214,847,cs),
(214,872,ls),
(214,988,o),
(289,1021,o),
(543,1021,cs),
(658,1021,ls),
(904,1021,o),
(987,988,o),
(987,872,cs),
(987,847,ls),
(987,731,o),
(904,698,o),
(658,698,cs),
(543,698,ls)
);
}
);
width = 1201;
},
{
layerId = m002;
shapes = (
{
closed = 1;
nodes = (
(1197,576,ls),
(1241,576,o),
(1265,599,o),
(1265,643,cs),
(1265,1050,ls),
(1265,1419,o),
(1150,1536,o),
(800,1536,cs),
(678,1536,ls),
(387,1536,o),
(244,1480,o),
(217,1302,cs),
(210,1257,o),
(237,1231,o),
(282,1231,cs),
(436,1231,ls),
(466,1231,o),
(485,1254,o),
(489,1261,cs),
(498,1282,o),
(550,1292,o),
(689,1292,cs),
(788,1292,ls),
(929,1292,o),
(977,1215,o),
(977,1049,cs),
(977,645,ls),
(977,602,o),
(1001,576,o),
(1044,576,cs)
);
},
{
closed = 1;
nodes = (
(783,576,ls),
(1042,576,o),
(1143,647,o),
(1143,869,cs),
(1143,879,ls),
(1143,1101,o),
(1042,1172,o),
(783,1172,cs),
(657,1172,ls),
(338,1172,o),
(196,1101,o),
(196,879,cs),
(196,869,ls),
(196,647,o),
(338,576,o),
(657,576,cs)
);
},
{
closed = 1;
nodes = (
(521,820,o),
(484,839,o),
(484,863,cs),
(484,885,ls),
(484,908,o),
(521,928,o),
(669,928,cs),
(783,928,ls),
(931,928,o),
(976,908,o),
(976,885,cs),
(976,863,ls),
(976,839,o),
(931,820,o),
(783,820,cs),
(669,820,ls)
);
}
);
width = 1460;
}
);
unicode = 170;
},
{
glyphname = ordmasculine;
lastChange = "2025-01-26 17:29:54 +0000";
layers = (
{
layerId = m01;
shapes = (
{
closed = 1;
nodes = (
(66,1046,ls),
(66,651,o),
(208,580,o),
(537,580,cs),
(720,580,ls),
(1049,580,o),
(1191,651,o),
(1191,1046,cs),
(1191,1074,ls),
(1191,1469,o),
(1049,1540,o),
(720,1540,cs),
(537,1540,ls),
(208,1540,o),
(66,1469,o),
(66,1074,cs)
);
},
{
closed = 1;
nodes = (
(226,1379,o),
(300,1412,o),
(549,1412,cs),
(708,1412,ls),
(957,1412,o),
(1031,1379,o),
(1031,1071,cs),
(1031,1049,ls),
(1031,741,o),
(957,708,o),
(708,708,cs),
(549,708,ls),
(300,708,o),
(226,741,o),
(226,1049,cs),
(226,1071,ls)
);
}
);
width = 1257;
},
{
layerId = m002;
shapes = (
{
closed = 1;
nodes = (
(66,1047,ls),
(66,651,o),
(208,580,o),
(537,580,cs),
(720,580,ls),
(1049,580,o),
(1191,651,o),
(1191,1047,cs),
(1191,1073,ls),
(1191,1469,o),
(1049,1540,o),
(720,1540,cs),
(537,1540,ls),
(208,1540,o),
(66,1469,o),
(66,1073,cs)
);
},
{
closed = 1;
nodes = (
(400,1234,o),
(475,1267,o),
(591,1267,cs),
(666,1267,ls),
(783,1267,o),
(857,1234,o),
(857,1071,cs),
(857,1049,ls),
(857,886,o),
(783,853,o),
(666,853,cs),
(591,853,ls),
(475,853,o),
(400,886,o),
(400,1049,cs),
(400,1071,ls)
);
}
);
width = 1257;
}
);
unicode = 186;
},
{
glyphname = Delta;
kernLeft = A;
kernRight = A;
lastChange = "2025-01-02 00:22:18 +0000";
layers = (
{
layerId = m01;
shapes = (
{
closed = 1;
nodes = (
(930,1536,o),
(900,1520,o),
(878,1481,cs),
(78,96,ls),
(46,40,o),
(71,0,o),
(134,0,cs),
(1991,0,ls),
(2054,0,o),
(2078,40,o),
(2046,96,cs),
(1246,1481,ls),
(1224,1520,o),
(1194,1536,o),
(1150,1536,cs),
(974,1536,ls)
);
},
{
closed = 1;
nodes = (
(1030,1360,l),
(1094,1360,l),
(1779,176,l),
(345,176,l)
);
}
);
width = 2124;
},
{
layerId = m002;
shapes = (
{
closed = 1;
nodes = (
(765,1536,o),
(732,1521,o),
(713,1481,cs),
(75,96,ls),
(49,40,o),
(68,0,o),
(131,0,cs),
(1993,0,ls),
(2056,0,o),
(2075,40,o),
(2049,96,cs),
(1411,1481,ls),
(1392,1521,o),
(1359,1536,o),
(1315,1536,cs),
(809,1536,ls)
);
},
{
closed = 1;
nodes = (
(1048,1176,l),
(1076,1176,l),
(1452,360,l),
(672,360,l)
);
}
);
width = 2124;
}
);
unicode = 916;
},
{
glyphname = Xi;
kernLeft = Z;
kernRight = Z;
lastChange = "2025-01-02 00:22:56 +0000";
layers = (
{
layerId = m01;
shapes = (
{
closed = 1;
nodes = (
(88,60,ls),
(88,21,o),
(109,0,o),
(148,0,cs),
(1692,0,ls),
(1731,0,o),
(1752,21,o),
(1752,60,cs),
(1752,116,ls),
(1752,155,o),
(1731,176,o),
(1692,176,cs),
(148,176,ls),
(109,176,o),
(88,155,o),
(88,116,cs)
);
},
{
closed = 1;
nodes = (
(88,1420,ls),
(88,1381,o),
(109,1360,o),
(148,1360,cs),
(1692,1360,ls),
(1731,1360,o),
(1752,1381,o),
(1752,1420,cs),
(1752,1476,ls),
(1752,1515,o),
(1731,1536,o),
(1692,1536,cs),
(148,1536,ls),
(109,1536,o),
(88,1515,o),
(88,1476,cs)
);
},
{
closed = 1;
nodes = (
(248,740,ls),
(248,701,o),
(269,680,o),
(308,680,cs),
(1532,680,ls),
(1571,680,o),
(1592,701,o),
(1592,740,cs),
(1592,796,ls),
(1592,835,o),
(1571,856,o),
(1532,856,cs),
(308,856,ls),
(269,856,o),
(248,835,o),
(248,796,cs)
);
}
);
width = 1840;
},
{
layerId = m002;
shapes = (
{
closed = 1;
nodes = (
(88,60,ls),
(88,21,o),
(109,0,o),
(148,0,cs),
(1692,0,ls),
(1731,0,o),
(1752,21,o),
(1752,60,cs),
(1752,336,ls),
(1752,375,o),
(1731,396,o),
(1692,396,cs),
(148,396,ls),
(109,396,o),
(88,375,o),
(88,336,cs)
);
},
{
closed = 1;
nodes = (
(88,1200,ls),
(88,1161,o),
(109,1140,o),
(148,1140,cs),
(1692,1140,ls),
(1731,1140,o),
(1752,1161,o),
(1752,1200,cs),
(1752,1476,ls),
(1752,1515,o),
(1731,1536,o),
(1692,1536,cs),
(148,1536,ls),
(109,1536,o),
(88,1515,o),
(88,1476,cs)
);
},
{
closed = 1;
nodes = (
(248,630,ls),
(248,591,o),
(269,570,o),
(308,570,cs),
(1532,570,ls),
(1571,570,o),
(1592,591,o),
(1592,630,cs),
(1592,906,ls),
(1592,945,o),
(1571,966,o),
(1532,966,cs),
(308,966,ls),
(269,966,o),
(248,945,o),
(248,906,cs)
);
}
);
width = 1840;
}
);
unicode = 926;
},
{
glyphname = Pi;
kernLeft = H;
kernRight = H;
lastChange = "2025-01-02 00:25:36 +0000";
layers = (
{
layerId = m01;
shapes = (
{
closed = 1;
nodes = (
(392,0,ls),
(444,0,o),
(472,28,o),
(472,80,cs),
(472,1376,l),
(1496,1376,l),
(1496,80,ls),
(1496,28,o),
(1524,0,o),
(1576,0,cs),
(1608,0,ls),
(1660,0,o),
(1688,28,o),
(1688,80,cs),
(1688,1376,l),
(1808,1376,ls),
(1852,1376,o),
(1880,1404,o),
(1880,1448,cs),
(1880,1464,ls),
(1880,1508,o),
(1852,1536,o),
(1808,1536,cs),
(160,1536,ls),
(116,1536,o),
(88,1508,o),
(88,1464,cs),
(88,1448,ls),
(88,1404,o),
(116,1376,o),
(160,1376,cs),
(280,1376,l),
(280,80,ls),
(280,28,o),
(308,0,o),
(360,0,cs)
);
}
);
width = 1968;
},
{
layerId = m002;
shapes = (
{
closed = 1;
nodes = (
(632,0,ls),
(684,0,o),
(712,28,o),
(712,80,cs),
(712,1176,l),
(1256,1176,l),
(1256,80,ls),
(1256,28,o),
(1284,0,o),
(1336,0,cs),
(1608,0,ls),
(1660,0,o),
(1688,28,o),
(1688,80,cs),
(1688,1176,l),
(1808,1176,ls),
(1852,1176,o),
(1880,1204,o),
(1880,1248,cs),
(1880,1464,ls),
(1880,1508,o),
(1852,1536,o),
(1808,1536,cs),
(160,1536,ls),
(116,1536,o),
(88,1508,o),
(88,1464,cs),
(88,1248,ls),
(88,1204,o),
(116,1176,o),
(160,1176,cs),
(280,1176,l),
(280,80,ls),
(280,28,o),
(308,0,o),
(360,0,cs)
);
}
);
width = 1968;
}
);
unicode = 928;
},
{
glyphname = Sigma;
kernLeft = H;
kernRight = Z;
lastChange = "2025-01-02 00:13:07 +0000";
layers = (
{
layerId = m01;
shapes = (
{
closed = 1;
nodes = (
(1864,0,ls),
(1908,0,o),
(1936,28,o),
(1936,72,cs),
(1936,88,ls),
(1936,132,o),
(1908,160,o),
(1864,160,cs),
(443,160,l),
(1277,711,ls),
(1322,741,o),
(1322,795,o),
(1277,825,cs),
(443,1376,l),
(1864,1376,ls),
(1908,1376,o),
(1936,1404,o),
(1936,1448,cs),
(1936,1464,ls),
(1936,1508,o),
(1908,1536,o),
(1864,1536,cs),
(216,1536,ls),
(172,1536,o),
(144,1508,o),
(144,1464,cs),
(144,1427,ls),
(144,1394,o),
(154,1358,o),
(187,1336,cs),
(1039,768,l),
(187,200,ls),
(154,178,o),
(144,142,o),
(144,109,cs),
(144,72,ls),
(144,28,o),
(172,0,o),
(216,0,cs)
);
}
);
width = 2024;
},
{
layerId = m002;
shapes = (
{
closed = 1;
nodes = (
(1864,0,ls),
(1908,0,o),
(1936,28,o),
(1936,72,cs),
(1936,288,ls),
(1936,332,o),
(1908,360,o),
(1864,360,cs),
(840,360,l),
(1367,711,ls),
(1413,742,o),
(1413,794,o),
(1367,825,cs),
(840,1176,l),
(1864,1176,ls),
(1908,1176,o),
(1936,1204,o),
(1936,1248,cs),
(1936,1464,ls),
(1936,1508,o),
(1908,1536,o),
(1864,1536,cs),
(216,1536,ls),
(172,1536,o),
(144,1508,o),
(144,1464,cs),
(144,1227,ls),
(144,1194,o),
(152,1159,o),
(187,1136,cs),
(739,768,l),
(187,400,ls),
(152,377,o),
(144,342,o),
(144,309,cs),
(144,72,ls),
(144,28,o),
(172,0,o),
(216,0,cs)
);
}
);
width = 2024;
}
);
unicode = 931;
},
{
glyphname = Psi;
kernLeft = V;
kernRight = V;
lastChange = "2025-01-27 04:55:00 +0000";
layers = (
{
anchors = (
{
name = bottom;
pos = (1028,0);
},
{
name = ogonek;
pos = (1028,10);
},
{
name = top;
pos = (1028,1536);
},
{
name = topright;
pos = (1944,1521);
}
);
layerId = m01;
shapes = (
{
closed = 1;
nodes = (
(1812,1536,ls),
(1760,1536,o),
(1732,1508,o),
(1732,1456,cs),
(1732,1037,ls),
(1732,747,o),
(1600,688,o),
(1171,688,cs),
(885,688,ls),
(456,688,o),
(324,747,o),
(324,1037,cs),
(324,1456,ls),
(324,1508,o),
(296,1536,o),
(244,1536,cs),
(212,1536,ls),
(160,1536,o),
(132,1508,o),
(132,1456,cs),
(132,1032,ls),
(132,638,o),
(384,512,o),
(864,512,cs),
(1192,512,ls),
(1672,512,o),
(1924,638,o),
(1924,1032,cs),
(1924,1456,ls),
(1924,1508,o),
(1896,1536,o),
(1844,1536,cs)
);
},
{
alignment = -1;
pos = (804,0);
ref = "_stem-v-caps-CH";
}
);
width = 2056;
},
{
anchors = (
{
name = bottom;
pos = (1028,0);
},
{
name = ogonek;
pos = (1028,10);
},
{
name = top;
pos = (1028,1536);
},
{
name = topright;
pos = (1944,1521);
}
);
layerId = m002;
shapes = (
{
closed = 1;
nodes = (
(1572,1536,ls),
(1520,1536,o),
(1492,1508,o),
(1492,1456,cs),
(1492,1037,ls),
(1492,857,o),
(1360,798,o),
(1171,798,cs),
(885,798,ls),
(696,798,o),
(564,857,o),
(564,1037,cs),
(564,1456,ls),
(564,1508,o),
(536,1536,o),
(484,1536,cs),
(212,1536,ls),
(160,1536,o),
(132,1508,o),
(132,1456,cs),
(132,922,ls),
(132,528,o),
(504,402,o),
(864,402,cs),
(1192,402,ls),
(1552,402,o),
(1924,528,o),
(1924,922,cs),
(1924,1456,ls),
(1924,1508,o),
(1896,1536,o),
(1844,1536,cs)
);
},
{
alignment = -1;
pos = (684,0);
ref = "_stem-v-caps-CH";
}
);
width = 2056;
}
);
unicode = 936;
},
{
glyphname = Omega;
kernLeft = O;
kernRight = O;
lastChange = "2025-01-16 16:06:20 +0000";
layers = (
{
anchors = (
{
name = bottom;
pos = (1032,0);
},
{
name = topleft;
pos = (20,1536);
}
);
layerId = m01;
shapes = (
{
closed = 1;
nodes = (
(776,0,ls),
(828,0,o),
(856,28,o),
(856,80,cs),
(856,432,ls),
(856,483,o),
(827,512,o),
(773,513,cs),
(395,521,o),
(280,591,o),
(280,877,cs),
(280,916,ls),
(280,1334,o),
(412,1392,o),
(889,1392,cs),
(1175,1392,ls),
(1652,1392,o),
(1784,1334,o),
(1784,916,cs),
(1784,877,ls),
(1784,591,o),
(1669,521,o),
(1291,513,cs),
(1237,512,o),
(1208,483,o),
(1208,432,cs),
(1208,80,ls),
(1208,28,o),
(1236,0,o),
(1288,0,cs),
(1864,0,ls),
(1916,0,o),
(1944,28,o),
(1944,80,cs),
(1944,94,ls),
(1944,146,o),
(1916,174,o),
(1864,174,cs),
(1400,174,l),
(1400,341,l),
(1779,369,o),
(1976,510,o),
(1976,872,cs),
(1976,920,ls),
(1976,1442,o),
(1724,1568,o),
(1196,1568,cs),
(868,1568,ls),
(340,1568,o),
(88,1442,o),
(88,920,cs),
(88,872,ls),
(88,510,o),
(285,369,o),
(664,341,c),
(664,174,l),
(200,174,ls),
(148,174,o),
(120,146,o),
(120,94,cs),
(120,80,ls),
(120,28,o),
(148,0,o),
(200,0,cs)
);
}
);
width = 2064;
},
{
anchors = (
{
name = bottom;
pos = (1032,0);
},
{
name = topleft;
pos = (20,1536);
}
);
layerId = m002;
shapes = (
{
closed = 1;
nodes = (
(808,0,ls),
(860,0,o),
(888,28,o),
(888,80,cs),
(888,504,ls),
(888,555,o),
(858,579,o),
(805,585,cs),
(739,593,o),
(520,663,o),
(520,877,cs),
(520,916,ls),
(520,1130,o),
(652,1208,o),
(889,1208,cs),
(1175,1208,ls),
(1412,1208,o),
(1544,1130,o),
(1544,916,cs),
(1544,877,ls),
(1544,663,o),
(1325,593,o),
(1259,585,cs),
(1206,579,o),
(1176,555,o),
(1176,504,cs),
(1176,80,ls),
(1176,28,o),
(1204,0,o),
(1256,0,cs),
(1864,0,ls),
(1916,0,o),
(1944,28,o),
(1944,80,cs),
(1944,280,ls),
(1944,332,o),
(1916,360,o),
(1864,360,cs),
(1564,360,l),
(1564,361,l),
(1807,419,o),
(1976,530,o),
(1976,892,cs),
(1976,940,ls),
(1976,1442,o),
(1724,1568,o),
(1196,1568,cs),
(868,1568,ls),
(340,1568,o),
(88,1442,o),
(88,940,cs),
(88,892,ls),
(88,530,o),
(257,419,o),
(500,361,c),
(500,362,l),
(200,360,ls),
(148,360,o),
(120,332,o),
(120,280,cs),
(120,80,ls),
(120,28,o),
(148,0,o),
(200,0,cs)
);
}
);
width = 2064;
}
);
unicode = 937;
},
{
glyphname = pi;
kernLeft = a;
kernRight = a;
lastChange = "2025-02-01 19:40:47 +0000";
layers = (
{
layerId = m01;
shapes = (
{
closed = 1;
nodes = (
(360,0,ls),
(412,0,o),
(440,28,o),
(440,80,cs),
(440,880,l),
(1112,880,l),
(1112,80,ls),
(1112,28,o),
(1140,0,o),
(1192,0,cs),
(1208,0,ls),
(1260,0,o),
(1288,28,o),
(1288,80,cs),
(1288,880,l),
(1404,880,ls),
(1443,880,o),
(1464,901,o),
(1464,940,cs),
(1464,964,ls),
(1464,1003,o),
(1443,1024,o),
(1404,1024,cs),
(148,1024,ls),
(109,1024,o),
(88,1003,o),
(88,964,cs),
(88,940,ls),
(88,901,o),
(109,880,o),
(148,880,cs),
(264,880,l),
(264,80,ls),
(264,28,o),
(292,0,o),
(344,0,cs)
);
}
);
width = 1552;
},
{
layerId = m002;
shapes = (
{
closed = 1;
nodes = (
(520,0,ls),
(572,0,o),
(600,28,o),
(600,80,cs),
(600,828,l),
(952,828,l),
(952,80,ls),
(952,28,o),
(980,0,o),
(1032,0,cs),
(1268,0,ls),
(1320,0,o),
(1348,28,o),
(1348,80,cs),
(1348,828,l),
(1454,828,ls),
(1493,828,o),
(1514,849,o),
(1514,888,cs),
(1514,1092,ls),
(1514,1131,o),
(1493,1152,o),
(1454,1152,cs),
(98,1152,ls),
(59,1152,o),
(38,1131,o),
(38,1092,cs),
(38,888,ls),
(38,849,o),
(59,828,o),
(98,828,cs),
(204,828,l),
(204,80,ls),
(204,28,o),
(232,0,o),
(284,0,cs)
);
}
);
width = 1552;
}
);
unicode = 960;
},
{
glyphname = zero;
kernLeft = O;
kernRight = O;
lastChange = "2025-01-26 05:22:08 +0000";
layers = (
{
layerId = m01;
shapes = (
{
closed = 1;
nodes = (
(128,744,ls),
(128,190,o),
(468,-32,o),
(908,-32,cs),
(1140,-32,ls),
(1580,-32,o),
(1920,190,o),
(1920,744,cs),
(1920,792,ls),
(1920,1346,o),
(1580,1568,o),
(1140,1568,cs),
(908,1568,ls),
(468,1568,o),
(128,1346,o),
(128,792,cs)
);
},
{
closed = 1;
nodes = (
(320,1238,o),
(540,1408,o),
(929,1408,cs),
(1119,1408,ls),
(1508,1408,o),
(1728,1238,o),
(1728,788,cs),
(1728,749,ls),
(1728,299,o),
(1508,128,o),
(1119,128,cs),
(929,128,ls),
(540,128,o),
(320,299,o),
(320,749,cs),
(320,788,ls)
);
}
);
width = 2048;
},
{
layerId = m002;
shapes = (
{
closed = 1;
nodes = (
(128,744,ls),
(128,190,o),
(468,-32,o),
(908,-32,cs),
(1140,-32,ls),
(1580,-32,o),
(1920,190,o),
(1920,744,cs),
(1920,792,ls),
(1920,1346,o),
(1580,1568,o),
(1140,1568,cs),
(908,1568,ls),
(468,1568,o),
(128,1346,o),
(128,792,cs)
);
},
{
closed = 1;
nodes = (
(560,1086,o),
(736,1208,o),
(964,1208,cs),
(1084,1208,ls),
(1312,1208,o),
(1488,1086,o),
(1488,781,cs),
(1488,755,ls),
(1488,450,o),
(1312,328,o),
(1084,328,cs),
(964,328,ls),
(736,328,o),
(560,450,o),
(560,755,cs),
(560,781,ls)
);
}
);
width = 2048;
}
);
unicode = 48;
},
{
glyphname = one;
kernRight = O;
lastChange = "2025-01-13 03:49:40 +0000";
layers = (
{
layerId = m01;
shapes = (
{
closed = 1;
nodes = (
(1848,-2,ls),
(1892,-2,o),
(1920,26,o),
(1920,70,cs),
(1920,86,ls),
(1920,130,o),
(1892,158,o),
(1848,158,cs),
(1248,158,l),
(1248,1476,ls),
(1248,1515,o),
(1227,1536,o),
(1188,1536,cs),
(949,1536,ls),
(919,1536,o),
(897,1527,o),
(875,1505,cs),
(405,1035,ls),
(378,1008,o),
(378,978,o),
(405,951,cs),
(446,910,ls),
(473,883,o),
(503,883,o),
(530,910,cs),
(992,1376,l),
(1056,1376,l),
(1056,158,l),
(392,158,ls),
(348,158,o),
(320,130,o),
(320,86,cs),
(320,70,ls),
(320,26,o),
(348,-2,o),
(392,-2,cs)
);
}
);
width = 2048;
},
{
layerId = m002;
shapes = (
{
closed = 1;
nodes = (
(1848,-2,ls),
(1892,-2,o),
(1920,26,o),
(1920,70,cs),
(1920,286,ls),
(1920,330,o),
(1892,358,o),
(1848,358,cs),
(1368,358,l),
(1368,1476,ls),
(1368,1515,o),
(1347,1536,o),
(1308,1536,cs),
(949,1536,ls),
(919,1536,o),
(897,1527,o),
(875,1505,cs),
(357,987,ls),
(330,960,o),
(330,930,o),
(357,903,cs),
(554,706,ls),
(581,679,o),
(613,681,o),
(638,706,cs),
(936,1004,l),
(936,1004,l),
(936,358,l),
(392,358,ls),
(348,358,o),
(320,330,o),
(320,286,cs),
(320,70,ls),
(320,26,o),
(348,-2,o),
(392,-2,cs)
);
}
);
width = 2048;
}
);
unicode = 49;
},
{
glyphname = two;
kernLeft = O;
kernRight = O;
lastChange = "2025-01-17 02:15:07 +0000";
layers = (
{
layerId = m01;
shapes = (
{
closed = 1;
nodes = (
(1848,0,ls),
(1892,0,o),
(1920,28,o),
(1920,72,cs),
(1920,88,ls),
(1920,132,o),
(1892,160,o),
(1848,160,cs),
(320,160,l),
(320,388,ls),
(320,561,o),
(446,628,o),
(923,635,cs),
(1140,638,ls),
(1397,642,o),
(1593,654,o),
(1721,714,cs),
(1861,775,o),
(1920,869,o),
(1920,1062,cs),
(1920,1126,ls),
(1920,1362,o),
(1758,1568,o),
(1140,1568,cs),
(908,1568,ls),
(413,1568,o),
(160,1459,o),
(128,1114,cs),
(123,1060,o),
(154,1032,o),
(206,1032,cs),
(238,1032,ls),
(289,1032,o),
(316,1065,o),
(320,1110,cs),
(343,1365,o),
(492,1408,o),
(929,1408,cs),
(1125,1408,ls),
(1602,1408,o),
(1728,1319,o),
(1728,1131,cs),
(1728,1076,ls),
(1728,871,o),
(1602,804,o),
(1125,797,cs),
(908,794,ls),
(651,790,o),
(455,778,o),
(327,718,cs),
(187,657,o),
(128,578,o),
(128,417,cs),
(128,80,ls),
(128,28,o),
(156,0,o),
(208,0,cs)
);
}
);
width = 2048;
},
{
layerId = m002;
shapes = (
{
closed = 1;
nodes = (
(1848,0,ls),
(1892,0,o),
(1920,28,o),
(1920,72,cs),
(1920,288,ls),
(1920,332,o),
(1892,360,o),
(1848,360,cs),
(560,360,l),
(560,424,ls),
(560,493,o),
(692,531,o),
(929,536,cs),
(1131,540,ls),
(1368,545,o),
(1579,583,o),
(1708,641,cs),
(1848,704,o),
(1917,854,o),
(1917,1027,cs),
(1917,1091,ls),
(1917,1422,o),
(1646,1568,o),
(1134,1568,cs),
(911,1568,ls),
(419,1568,o),
(167,1459,o),
(134,1114,cs),
(129,1060,o),
(160,1032,o),
(212,1032,cs),
(484,1032,ls),
(535,1032,o),
(548,1068,o),
(566,1110,cs),
(590,1165,o),
(738,1208,o),
(935,1208,cs),
(1116,1208,ls),
(1353,1208,o),
(1485,1165,o),
(1485,1096,cs),
(1485,1041,ls),
(1485,939,o),
(1353,901,o),
(1116,896,cs),
(914,892,ls),
(677,887,o),
(466,849,o),
(337,791,cs),
(197,728,o),
(128,578,o),
(128,417,cs),
(128,80,ls),
(128,28,o),
(156,0,o),
(208,0,cs)
);
}
);
width = 2048;
}
);
unicode = 50;
},
{
glyphname = three;
kernLeft = O;
kernRight = O;
lastChange = "2025-01-17 03:04:06 +0000";
layers = (
{
anchors = (
{
name = bottom;
pos = (-234,0);
},
{
name = top;
pos = (-234,1536);
}
);
layerId = m01;
shapes = (
{
closed = 1;
nodes = (
(1140,-32,ls),
(1668,-32,o),
(1920,94,o),
(1920,388,cs),
(1920,436,ls),
(1920,572,o),
(1838,695,o),
(1685,768,c),
(1806,841,o),
(1888,964,o),
(1888,1100,cs),
(1888,1148,ls),
(1888,1442,o),
(1636,1568,o),
(1140,1568,cs),
(905,1568,ls),
(414,1568,o),
(162,1459,o),
(129,1114,cs),
(124,1061,o),
(155,1032,o),
(207,1032,cs),
(239,1032,ls),
(290,1032,o),
(316,1059,o),
(321,1110,cs),
(345,1360,o),
(493,1408,o),
(926,1408,cs),
(1119,1408,ls),
(1564,1408,o),
(1696,1350,o),
(1696,1144,cs),
(1696,1105,ls),
(1696,915,o),
(1564,848,o),
(1119,848,cs),
(949,848,ls),
(905,848,o),
(877,820,o),
(877,776,cs),
(877,760,ls),
(877,716,o),
(905,688,o),
(949,688,cs),
(1119,688,ls),
(1596,688,o),
(1728,622,o),
(1728,432,cs),
(1728,393,ls),
(1728,187,o),
(1596,128,o),
(1119,128,cs),
(926,128,ls),
(493,128,o),
(345,177,o),
(321,426,cs),
(316,477,o),
(290,504,o),
(239,504,cs),
(207,504,ls),
(155,504,o),
(124,475,o),
(129,422,cs),
(162,77,o),
(414,-32,o),
(905,-32,cs)
);
}
);
width = 2048;
},
{
anchors = (
{
name = bottom;
pos = (-234,0);
},
{
name = top;
pos = (-234,1536);
}
);
layerId = m002;
shapes = (
{
closed = 1;
nodes = (
(1140,-32,ls),
(1668,-32,o),
(1920,94,o),
(1920,388,cs),
(1920,436,ls),
(1920,572,o),
(1838,695,o),
(1685,768,c),
(1806,841,o),
(1888,964,o),
(1888,1100,cs),
(1888,1148,ls),
(1888,1442,o),
(1636,1568,o),
(1140,1568,cs),
(905,1568,ls),
(414,1568,o),
(162,1459,o),
(129,1114,cs),
(124,1061,o),
(155,1032,o),
(207,1032,cs),
(479,1032,ls),
(530,1032,o),
(551,1064,o),
(561,1110,cs),
(572,1162,o),
(689,1208,o),
(926,1208,cs),
(1119,1208,ls),
(1324,1208,o),
(1456,1143,o),
(1456,1097,cs),
(1456,1059,ls),
(1456,1009,o),
(1324,948,o),
(1119,948,cs),
(829,948,ls),
(785,948,o),
(757,920,o),
(757,876,cs),
(757,660,ls),
(757,616,o),
(785,588,o),
(829,588,cs),
(1119,588,ls),
(1356,588,o),
(1488,527,o),
(1488,477,cs),
(1488,439,ls),
(1488,393,o),
(1356,328,o),
(1119,328,cs),
(926,328,ls),
(689,328,o),
(567,373,o),
(561,426,cs),
(556,472,o),
(530,504,o),
(479,504,cs),
(207,504,ls),
(155,504,o),
(124,475,o),
(129,422,cs),
(162,77,o),
(414,-32,o),
(905,-32,cs)
);
}
);
width = 2048;
}
);
unicode = 51;
},
{
glyphname = four;
kernLeft = A;
kernRight = f;
lastChange = "2025-01-17 02:56:54 +0000";
layers = (
{
layerId = m01;
shapes = (
{
closed = 1;
nodes = (
(1540,0,ls),
(1592,0,o),
(1620,28,o),
(1620,80,cs),
(1620,416,l),
(1848,416,ls),
(1892,416,o),
(1920,444,o),
(1920,488,cs),
(1920,504,ls),
(1920,548,o),
(1892,576,o),
(1848,576,cs),
(1620,576,l),
(1620,1456,ls),
(1620,1508,o),
(1592,1536,o),
(1540,1536,cs),
(1482,1536,ls),
(1443,1536,o),
(1414,1528,o),
(1383,1505,cs),
(179,611,ls),
(144,585,o),
(128,556,o),
(128,504,cs),
(128,488,ls),
(128,444,o),
(156,416,o),
(200,416,cs),
(1428,416,l),
(1428,80,ls),
(1428,28,o),
(1456,0,o),
(1508,0,cs)
);
},
{
closed = 1;
nodes = (
(1428,1319,l),
(1428,576,l),
(427,576,l)
);
}
);
width = 2048;
},
{
layerId = m002;
shapes = (
{
closed = 1;
nodes = (
(1660,0,ls),
(1712,0,o),
(1740,28,o),
(1740,80,cs),
(1740,316,l),
(1848,316,ls),
(1892,316,o),
(1920,344,o),
(1920,388,cs),
(1920,604,ls),
(1920,648,o),
(1892,676,o),
(1848,676,cs),
(1740,676,l),
(1740,1456,ls),
(1740,1508,o),
(1712,1536,o),
(1660,1536,cs),
(1362,1536,ls),
(1323,1536,o),
(1294,1527,o),
(1263,1505,cs),
(179,711,ls),
(144,686,o),
(128,656,o),
(128,604,cs),
(128,388,ls),
(128,344,o),
(156,316,o),
(200,316,cs),
(1308,316,l),
(1308,80,ls),
(1308,28,o),
(1336,0,o),
(1388,0,cs)
);
},
{
closed = 1;
nodes = (
(1308,1047,l),
(1308,676,l),
(802,676,l)
);
}
);
width = 2048;
}
);
unicode = 52;
},
{
glyphname = five;
kernRight = O;
lastChange = "2025-01-21 00:52:30 +0000";
layers = (
{
layerId = m01;
shapes = (
{
closed = 1;
nodes = (
(1140,-32,ls),
(1668,-32,o),
(1920,94,o),
(1920,448,cs),
(1920,496,ls),
(1920,850,o),
(1668,968,o),
(1140,968,cs),
(877,968,ls),
(645,968,o),
(462,939,o),
(344,837,c),
(344,1376,l),
(1816,1376,ls),
(1860,1376,o),
(1888,1404,o),
(1888,1448,cs),
(1888,1464,ls),
(1888,1508,o),
(1860,1536,o),
(1816,1536,cs),
(232,1536,ls),
(180,1536,o),
(152,1508,o),
(152,1456,cs),
(152,752,ls),
(152,700,o),
(180,672,o),
(232,672,cs),
(299,672,ls),
(330,672,o),
(350,683,o),
(373,704,cs),
(459,780,o),
(620,808,o),
(898,808,cs),
(1119,808,ls),
(1596,808,o),
(1728,750,o),
(1728,492,cs),
(1728,453,ls),
(1728,187,o),
(1596,128,o),
(1119,128,cs),
(930,128,ls),
(497,128,o),
(349,177,o),
(325,426,cs),
(320,477,o),
(294,504,o),
(243,504,cs),
(211,504,ls),
(159,504,o),
(128,475,o),
(133,422,cs),
(166,77,o),
(418,-32,o),
(909,-32,cs)
);
}
);
width = 2048;
},
{
layerId = m002;
shapes = (
{
closed = 1;
nodes = (
(1140,-32,ls),
(1668,-32,o),
(1920,94,o),
(1920,448,cs),
(1920,496,ls),
(1920,850,o),
(1668,968,o),
(1140,968,cs),
(877,968,ls),
(801,968,o),
(700,967,o),
(584,944,c),
(584,1176,l),
(1816,1176,ls),
(1860,1176,o),
(1888,1204,o),
(1888,1248,cs),
(1888,1464,ls),
(1888,1508,o),
(1860,1536,o),
(1816,1536,cs),
(232,1536,ls),
(180,1536,o),
(152,1508,o),
(152,1456,cs),
(152,656,ls),
(152,604,o),
(180,576,o),
(232,576,cs),
(504,576,ls),
(518,576,o),
(558,584,o),
(578,588,cs),
(638,600,o),
(733,608,o),
(898,608,cs),
(1119,608,ls),
(1356,608,o),
(1488,556,o),
(1488,487,cs),
(1488,449,ls),
(1488,380,o),
(1356,328,o),
(1119,328,cs),
(930,328,ls),
(737,328,o),
(577,373,o),
(565,426,cs),
(555,472,o),
(534,504,o),
(483,504,cs),
(211,504,ls),
(159,504,o),
(128,475,o),
(133,422,cs),
(166,77,o),
(418,-32,o),
(909,-32,cs)
);
}
);
width = 2048;
}
);
unicode = 53;
},
{
glyphname = six;
lastChange = "2025-01-27 01:22:43 +0000";
layers = (
{
layerId = m01;
shapes = (
{
closed = 1;
nodes = (
(1684,-32,o),
(1936,106,o),
(1936,456,cs),
(1936,488,ls),
(1936,838,o),
(1668,968,o),
(1300,968,cs),
(798,968,ls),
(674,968,o),
(434,908,o),
(340,785,c),
(340,967,ls),
(340,1350,o),
(472,1408,o),
(949,1408,cs),
(1143,1408,ls),
(1568,1408,o),
(1716,1359,o),
(1742,1128,cs),
(1748,1078,o),
(1775,1053,o),
(1825,1053,cs),
(1858,1053,ls),
(1911,1053,o),
(1940,1083,o),
(1935,1136,cs),
(1903,1459,o),
(1651,1568,o),
(1164,1568,cs),
(928,1568,ls),
(400,1568,o),
(148,1442,o),
(148,974,cs),
(148,416,ls),
(148,106,o),
(400,-32,o),
(924,-32,cs),
(1160,-32,ls)
);
},
{
closed = 1;
nodes = (
(798,129,ls),
(528,129,o),
(340,261,o),
(340,459,cs),
(340,485,ls),
(340,685,o),
(556,808,o),
(798,808,cs),
(1286,808,ls),
(1556,808,o),
(1744,715,o),
(1744,485,cs),
(1744,459,ls),
(1744,221,o),
(1556,129,o),
(1286,129,cs)
);
}
);
width = 2048;
},
{
layerId = m002;
shapes = (
{
closed = 1;
nodes = (
(1668,-32,o),
(1920,94,o),
(1920,452,cs),
(1920,484,ls),
(1920,830,o),
(1753,968,o),
(1142,968,cs),
(920,968,ls),
(708,968,o),
(676,967,o),
(560,927,c),
(560,967,ls),
(560,1150,o),
(692,1208,o),
(931,1208,cs),
(1120,1208,ls),
(1315,1208,o),
(1475,1163,o),
(1487,1110,cs),
(1497,1064,o),
(1519,1032,o),
(1569,1032,cs),
(1842,1032,ls),
(1895,1032,o),
(1924,1062,o),
(1919,1115,cs),
(1886,1460,o),
(1635,1568,o),
(1146,1568,cs),
(910,1568,ls),
(380,1568,o),
(128,1442,o),
(128,974,cs),
(128,416,ls),
(128,94,o),
(380,-32,o),
(906,-32,cs),
(1142,-32,ls)
);
},
{
closed = 1;
nodes = (
(920,328,ls),
(648,328,o),
(560,386,o),
(560,455,cs),
(560,481,ls),
(560,550,o),
(676,608,o),
(920,608,cs),
(1128,608,ls),
(1400,608,o),
(1488,551,o),
(1488,482,cs),
(1488,456,ls),
(1488,387,o),
(1400,328,o),
(1128,328,cs)
);
}
);
width = 2048;
}
);
unicode = 54;
},
{
glyphname = seven;
kernLeft = Z;
kernRight = V;
lastChange = "2025-01-21 01:20:25 +0000";
layers = (
{
layerId = m01;
shapes = (
{
closed = 1;
nodes = (
(693,0,ls),
(723,0,o),
(745,9,o),
(767,31,cs),
(1889,1153,ls),
(1911,1175,o),
(1920,1197,o),
(1920,1227,cs),
(1920,1476,ls),
(1920,1515,o),
(1899,1536,o),
(1860,1536,cs),
(188,1536,ls),
(149,1536,o),
(128,1515,o),
(128,1476,cs),
(128,1436,ls),
(128,1397,o),
(149,1376,o),
(188,1376,cs),
(1728,1376,l),
(1728,1241,l),
(561,74,ls),
(523,36,o),
(538,0,o),
(591,0,cs)
);
}
);
width = 2048;
},
{
layerId = m002;
shapes = (
{
closed = 1;
nodes = (
(693,0,ls),
(723,0,o),
(745,9,o),
(767,31,cs),
(1889,1153,ls),
(1911,1175,o),
(1920,1197,o),
(1920,1227,cs),
(1920,1476,ls),
(1920,1515,o),
(1899,1536,o),
(1860,1536,cs),
(188,1536,ls),
(149,1536,o),
(128,1515,o),
(128,1476,cs),
(128,1236,ls),
(128,1197,o),
(149,1176,o),
(188,1176,cs),
(1352,1176,l),
(1352,1176,l),
(250,74,ls),
(212,36,o),
(227,0,o),
(280,0,cs)
);
}
);
width = 2048;
}
);
unicode = 55;
},
{
glyphname = eight;
kernLeft = O;
kernRight = O;
lastChange = "2025-01-26 16:34:45 +0000";
layers = (
{
anchors = (
{
name = bottom;
pos = (-262,0);
},
{
name = top;
pos = (-262,1536);
}
);
layerId = m01;
shapes = (
{
closed = 1;
nodes = (
(908,1568,ls),
(412,1568,o),
(160,1442,o),
(160,1148,cs),
(160,1100,ls),
(160,964,o),
(214,841,o),
(347,768,c),
(194,695,o),
(128,572,o),
(128,436,cs),
(128,388,ls),
(128,94,o),
(380,-32,o),
(908,-32,cs),
(1140,-32,ls),
(1668,-32,o),
(1920,94,o),
(1920,388,cs),
(1920,436,ls),
(1920,572,o),
(1854,695,o),
(1701,768,c),
(1834,841,o),
(1888,964,o),
(1888,1100,cs),
(1888,1148,ls),
(1888,1442,o),
(1636,1568,o),
(1140,1568,cs)
);
},
{
closed = 1;
nodes = (
(320,432,ls),
(320,630,o),
(452,688,o),
(929,688,cs),
(1119,688,ls),
(1596,688,o),
(1728,630,o),
(1728,432,cs),
(1728,393,ls),
(1728,187,o),
(1596,128,o),
(1119,128,cs),
(929,128,ls),
(452,128,o),
(320,187,o),
(320,393,cs)
);
},
{
closed = 1;
nodes = (
(352,1144,ls),
(352,1350,o),
(484,1408,o),
(929,1408,cs),
(1119,1408,ls),
(1564,1408,o),
(1696,1350,o),
(1696,1144,cs),
(1696,1105,ls),
(1696,907,o),
(1564,848,o),
(1119,848,cs),
(929,848,ls),
(484,848,o),
(352,907,o),
(352,1105,cs)
);
}
);
width = 2048;
},
{
anchors = (
{
name = bottom;
pos = (-262,0);
},
{
name = top;
pos = (-262,1536);
}
);
layerId = m002;
shapes = (
{
closed = 1;
nodes = (
(908,1568,ls),
(412,1568,o),
(160,1442,o),
(160,1148,cs),
(160,1100,ls),
(160,964,o),
(214,841,o),
(347,768,c),
(194,695,o),
(128,572,o),
(128,436,cs),
(128,388,ls),
(128,94,o),
(380,-32,o),
(908,-32,cs),
(1140,-32,ls),
(1668,-32,o),
(1920,94,o),
(1920,388,cs),
(1920,436,ls),
(1920,572,o),
(1854,695,o),
(1701,768,c),
(1834,841,o),
(1888,964,o),
(1888,1100,cs),
(1888,1148,ls),
(1888,1442,o),
(1636,1568,o),
(1140,1568,cs)
);
},
{
closed = 1;
nodes = (
(560,473,ls),
(560,515,o),
(660,588,o),
(929,588,cs),
(1119,588,ls),
(1388,588,o),
(1488,515,o),
(1488,473,cs),
(1488,443,ls),
(1488,377,o),
(1388,328,o),
(1119,328,cs),
(929,328,ls),
(660,328,o),
(560,377,o),
(560,443,cs)
);
},
{
closed = 1;
nodes = (
(592,1094,ls),
(592,1160,o),
(692,1208,o),
(929,1208,cs),
(1119,1208,ls),
(1356,1208,o),
(1456,1160,o),
(1456,1094,cs),
(1456,1062,ls),
(1456,1024,o),
(1356,948,o),
(1119,948,cs),
(929,948,ls),
(692,948,o),
(592,1024,o),
(592,1062,cs)
);
}
);
width = 2048;
}
);
unicode = 56;
},
{
glyphname = zerosuperior;
lastChange = "2025-01-27 01:43:29 +0000";
layers = (
{
layerId = m01;
shapes = (
{
closed = 1;
nodes = (
(66,1041,ls),
(66,695,o),
(279,556,o),
(554,556,cs),
(699,556,ls),
(974,556,o),
(1186,695,o),
(1186,1041,cs),
(1186,1071,ls),
(1186,1417,o),
(974,1556,o),
(699,1556,cs),
(554,1556,ls),
(279,1556,o),
(66,1417,o),
(66,1071,cs)
);
},
{
closed = 1;
nodes = (
(242,1316,o),
(379,1412,o),
(567,1412,cs),
(685,1412,ls),
(873,1412,o),
(1010,1316,o),
(1010,1069,cs),
(1010,1044,ls),
(1010,797,o),
(873,700,o),
(685,700,cs),
(567,700,ls),
(379,700,o),
(242,797,o),
(242,1044,cs),
(242,1069,ls)
);
}
);
width = 1252;
},
{
layerId = m002;
shapes = (
{
closed = 1;
nodes = (
(66,1041,ls),
(66,695,o),
(279,556,o),
(554,556,cs),
(699,556,ls),
(974,556,o),
(1186,695,o),
(1186,1041,cs),
(1186,1071,ls),
(1186,1417,o),
(974,1556,o),
(699,1556,cs),
(554,1556,ls),
(279,1556,o),
(66,1417,o),
(66,1071,cs)
);
},
{
closed = 1;
nodes = (
(354,1241,o),
(457,1312,o),
(591,1312,cs),
(661,1312,ls),
(795,1312,o),
(898,1241,o),
(898,1064,cs),
(898,1049,ls),
(898,870,o),
(795,800,o),
(661,800,cs),
(591,800,ls),
(457,800,o),
(354,870,o),
(354,1049,cs),
(354,1064,ls)
);
}
);
width = 1252;
}
);
unicode = 8304;
},
{
glyphname = onesuperior;
lastChange = "2025-01-27 01:42:04 +0000";
layers = (
{
layerId = m01;
shapes = (
{
closed = 1;
nodes = (
(491,1536,ls),
(439,1536,o),
(429,1532,o),
(392,1495,cs),
(154,1257,ls),
(126,1229,o),
(124,1207,o),
(154,1177,cs),
(188,1143,ls),
(216,1115,o),
(240,1115,o),
(268,1143,cs),
(518,1392,l),
(558,1392,l),
(558,656,ls),
(558,604,o),
(586,576,o),
(638,576,cs),
(654,576,ls),
(706,576,o),
(734,604,o),
(734,656,cs),
(734,1456,ls),
(734,1508,o),
(706,1536,o),
(654,1536,cs)
);
},
{
closed = 1;
nodes = (
(126,636,ls),
(126,597,o),
(147,576,o),
(186,576,cs),
(1066,576,ls),
(1105,576,o),
(1126,597,o),
(1126,636,cs),
(1126,676,ls),
(1126,715,o),
(1105,736,o),
(1066,736,cs),
(186,736,ls),
(147,736,o),
(126,715,o),
(126,676,cs)
);
}
);
width = 1252;
},
{
layerId = m002;
shapes = (
{
closed = 1;
nodes = (
(515,1536,ls),
(483,1536,o),
(470,1533,o),
(455,1523,cs),
(142,1314,ls),
(109,1292,o),
(101,1273,o),
(126,1236,cs),
(211,1109,ls),
(234,1075,o),
(257,1071,o),
(290,1093,cs),
(502,1234,l),
(502,1234,l),
(502,656,ls),
(502,604,o),
(530,576,o),
(582,576,cs),
(710,576,ls),
(762,576,o),
(790,604,o),
(790,656,cs),
(790,1456,ls),
(790,1508,o),
(762,1536,o),
(710,1536,cs)
);
},
{
closed = 1;
nodes = (
(126,634,ls),
(126,595,o),
(147,574,o),
(186,574,cs),
(1066,574,ls),
(1105,574,o),
(1126,595,o),
(1126,634,cs),
(1126,758,ls),
(1126,797,o),
(1105,818,o),
(1066,818,cs),
(186,818,ls),
(147,818,o),
(126,797,o),
(126,758,cs)
);
}
);
width = 1252;
}
);
unicode = 185;
},
{
glyphname = twosuperior;
lastChange = "2025-01-27 01:43:32 +0000";
layers = (
{
anchors = (
{
name = bottom;
pos = (655,576);
},
{
name = top;
pos = (655,1536);
}
);
layerId = m01;
shapes = (
{
closed = 1;
nodes = (
(1136,576,ls),
(1169,576,o),
(1186,594,o),
(1186,626,cs),
(1186,670,ls),
(1186,703,o),
(1169,720,o),
(1136,720,cs),
(242,720,l),
(242,779,ls),
(242,877,o),
(325,888,o),
(567,911,cs),
(695,923,ls),
(855,938,o),
(975,939,o),
(1055,977,cs),
(1143,1015,o),
(1186,1078,o),
(1186,1216,cs),
(1186,1266,ls),
(1186,1477,o),
(1029,1556,o),
(699,1556,cs),
(557,1556,ls),
(304,1556,o),
(90,1488,o),
(70,1272,cs),
(67,1239,o),
(86,1221,o),
(119,1221,cs),
(195,1221,ls),
(226,1221,o),
(242,1242,o),
(246,1270,cs),
(261,1385,o),
(353,1412,o),
(570,1412,cs),
(685,1412,ls),
(928,1412,o),
(1010,1375,o),
(1010,1283,cs),
(1010,1199,ls),
(1010,1100,o),
(927,1089,o),
(685,1066,cs),
(557,1054,ls),
(397,1039,o),
(277,1038,o),
(197,1001,cs),
(109,962,o),
(66,882,o),
(66,781,cs),
(66,626,ls),
(66,594,o),
(84,576,o),
(116,576,cs)
);
}
);
width = 1252;
},
{
anchors = (
{
name = bottom;
pos = (103,576);
},
{
name = top;
pos = (103,1536);
}
);
layerId = m002;
shapes = (
{
closed = 1;
nodes = (
(1141,576,ls),
(1169,576,o),
(1186,594,o),
(1186,621,cs),
(1186,775,ls),
(1186,803,o),
(1169,820,o),
(1141,820,cs),
(354,820,l),
(354,838,ls),
(354,892,o),
(437,916,o),
(567,919,cs),
(693,922,ls),
(841,926,o),
(973,948,o),
(1054,985,cs),
(1161,1034,o),
(1186,1096,o),
(1186,1216,cs),
(1186,1266,ls),
(1186,1477,o),
(1029,1556,o),
(695,1556,cs),
(555,1556,ls),
(248,1556,o),
(90,1488,o),
(70,1272,cs),
(67,1239,o),
(86,1221,o),
(119,1221,cs),
(306,1221,ls),
(337,1221,o),
(355,1228,o),
(358,1250,cs),
(363,1284,o),
(440,1312,o),
(570,1312,cs),
(684,1312,ls),
(814,1312,o),
(896,1286,o),
(896,1245,cs),
(896,1230,ls),
(896,1189,o),
(814,1165,o),
(684,1163,cs),
(557,1161,ls),
(409,1157,o),
(277,1134,o),
(197,1097,cs),
(109,1058,o),
(66,964,o),
(66,855,cs),
(66,626,ls),
(66,594,o),
(84,576,o),
(116,576,cs)
);
}
);
width = 1252;
}
);
unicode = 178;
},
{
glyphname = threesuperior;
lastChange = "2025-01-27 01:43:50 +0000";
layers = (
{
anchors = (
{
name = bottom;
pos = (-160,576);
},
{
name = top;
pos = (-160,1536);
}
);
layerId = m01;
shapes = (
{
closed = 1;
nodes = (
(699,556,ls),
(1029,556,o),
(1186,635,o),
(1186,819,cs),
(1186,849,ls),
(1186,934,o),
(1140,1010,o),
(1045,1056,c),
(1120,1102,o),
(1166,1179,o),
(1166,1264,cs),
(1166,1294,ls),
(1166,1477,o),
(1009,1556,o),
(699,1556,cs),
(552,1556,ls),
(245,1556,o),
(87,1488,o),
(67,1272,cs),
(63,1239,o),
(83,1221,o),
(115,1221,cs),
(191,1221,ls),
(223,1221,o),
(239,1238,o),
(243,1270,cs),
(258,1382,o),
(350,1412,o),
(565,1412,cs),
(686,1412,ls),
(908,1412,o),
(990,1376,o),
(990,1291,cs),
(990,1267,ls),
(990,1165,o),
(908,1128,o),
(686,1128,cs),
(587,1128,ls),
(555,1128,o),
(537,1111,o),
(537,1078,cs),
(537,1034,ls),
(537,1002,o),
(555,984,o),
(587,984,cs),
(686,984,ls),
(928,984,o),
(1010,948,o),
(1010,846,cs),
(1010,822,ls),
(1010,737,o),
(928,700,o),
(686,700,cs),
(565,700,ls),
(350,700,o),
(258,731,o),
(243,842,cs),
(239,874,o),
(223,891,o),
(191,891,cs),
(115,891,ls),
(83,891,o),
(63,873,o),
(67,840,cs),
(87,624,o),
(245,556,o),
(552,556,cs)
);
}
);
width = 1252;
},
{
anchors = (
{
name = bottom;
pos = (-160,576);
},
{
name = top;
pos = (-160,1536);
}
);
layerId = m002;
shapes = (
{
closed = 1;
nodes = (
(699,556,ls),
(1029,556,o),
(1186,635,o),
(1186,819,cs),
(1186,849,ls),
(1186,934,o),
(1170,1010,o),
(1075,1056,c),
(1150,1102,o),
(1166,1179,o),
(1166,1264,cs),
(1166,1294,ls),
(1166,1477,o),
(1009,1556,o),
(699,1556,cs),
(552,1556,ls),
(245,1556,o),
(87,1488,o),
(67,1272,cs),
(63,1239,o),
(83,1221,o),
(115,1221,cs),
(303,1221,ls),
(335,1221,o),
(352,1228,o),
(355,1250,cs),
(360,1284,o),
(452,1312,o),
(565,1312,cs),
(686,1312,ls),
(796,1312,o),
(878,1299,o),
(878,1257,cs),
(878,1233,ls),
(878,1191,o),
(796,1178,o),
(686,1178,cs),
(587,1178,ls),
(555,1178,o),
(537,1161,o),
(537,1128,cs),
(537,984,ls),
(537,952,o),
(555,934,o),
(587,934,cs),
(686,934,ls),
(816,934,o),
(898,921,o),
(898,879,cs),
(898,855,ls),
(898,813,o),
(816,800,o),
(686,800,cs),
(565,800,ls),
(452,800,o),
(360,828,o),
(355,862,cs),
(352,884,o),
(335,891,o),
(303,891,cs),
(115,891,ls),
(83,891,o),
(63,873,o),
(67,840,cs),
(87,624,o),
(245,556,o),
(552,556,cs)
);
}
);
width = 1252;
}
);
unicode = 179;
},
{
glyphname = foursuperior;
lastChange = "2025-01-27 01:43:58 +0000";
layers = (
{
layerId = m01;
shapes = (
{
closed = 1;
nodes = (
(66,818,ls),
(66,786,o),
(84,768,o),
(116,768,cs),
(879,768,l),
(879,626,ls),
(879,594,o),
(896,576,o),
(929,576,cs),
(1005,576,ls),
(1037,576,o),
(1055,594,o),
(1055,626,cs),
(1055,768,l),
(1136,768,ls),
(1169,768,o),
(1186,786,o),
(1186,818,cs),
(1186,862,ls),
(1186,895,o),
(1169,912,o),
(1136,912,cs),
(1055,912,l),
(1055,1486,ls),
(1055,1519,o),
(1037,1536,o),
(1005,1536,cs),
(913,1536,ls),
(888,1536,o),
(870,1531,o),
(851,1517,cs),
(98,934,ls),
(76,917,o),
(66,900,o),
(66,873,cs)
);
},
{
closed = 1;
nodes = (
(879,1341,l),
(879,912,l),
(325,912,l)
);
}
);
width = 1252;
},
{
layerId = m002;
shapes = (
{
closed = 1;
nodes = (
(66,768,ls),
(66,736,o),
(84,718,o),
(116,718,cs),
(767,718,l),
(767,626,ls),
(767,594,o),
(784,576,o),
(817,576,cs),
(1005,576,ls),
(1037,576,o),
(1055,594,o),
(1055,626,cs),
(1055,718,l),
(1136,718,ls),
(1169,718,o),
(1186,736,o),
(1186,768,cs),
(1186,912,ls),
(1186,945,o),
(1169,962,o),
(1136,962,cs),
(1055,962,l),
(1055,1486,ls),
(1055,1519,o),
(1037,1536,o),
(1005,1536,cs),
(801,1536,ls),
(776,1536,o),
(757,1532,o),
(739,1517,cs),
(98,984,ls),
(77,967,o),
(66,950,o),
(66,923,cs)
);
},
{
closed = 1;
nodes = (
(767,1195,l),
(767,962,l),
(487,962,l)
);
}
);
width = 1252;
}
);
unicode = 8308;
},
{
glyphname = fivesuperior;
lastChange = "2025-01-27 01:44:22 +0000";
layers = (
{
layerId = m01;
shapes = (
{
closed = 1;
nodes = (
(697,556,ls),
(1028,556,o),
(1186,635,o),
(1186,856,cs),
(1186,886,ls),
(1186,1124,o),
(1028,1203,o),
(697,1203,cs),
(532,1203,ls),
(442,1203,o),
(327,1180,o),
(254,1116,c),
(254,1392,l),
(1116,1392,ls),
(1148,1392,o),
(1166,1410,o),
(1166,1442,cs),
(1166,1486,ls),
(1166,1519,o),
(1148,1536,o),
(1116,1536,cs),
(128,1536,ls),
(95,1536,o),
(78,1519,o),
(78,1486,cs),
(78,1029,ls),
(78,997,o),
(95,979,o),
(128,979,cs),
(225,979,ls),
(245,979,o),
(257,986,o),
(272,999,cs),
(325,1047,o),
(426,1059,o),
(545,1059,cs),
(684,1059,ls),
(927,1059,o),
(1010,1023,o),
(1010,884,cs),
(1010,859,ls),
(1010,737,o),
(927,700,o),
(684,700,cs),
(565,700,ls),
(349,700,o),
(257,731,o),
(242,842,cs),
(238,874,o),
(222,891,o),
(190,891,cs),
(114,891,ls),
(82,891,o),
(63,873,o),
(66,840,cs),
(86,624,o),
(244,556,o),
(552,556,cs)
);
}
);
width = 1252;
},
{
layerId = m002;
shapes = (
{
closed = 1;
nodes = (
(658,556,ls),
(1016,556,o),
(1186,642,o),
(1186,878,cs),
(1186,910,ls),
(1186,1144,o),
(1016,1224,o),
(658,1224,cs),
(570,1224,ls),
(519,1224,o),
(450,1223,o),
(372,1208,c),
(372,1292,l),
(1116,1292,ls),
(1146,1292,o),
(1165,1311,o),
(1165,1341,cs),
(1165,1487,ls),
(1165,1517,o),
(1146,1536,o),
(1116,1536,cs),
(133,1536,ls),
(98,1536,o),
(79,1517,o),
(79,1482,cs),
(79,1013,ls),
(79,977,o),
(98,958,o),
(133,958,cs),
(318,958,ls),
(327,958,o),
(354,964,o),
(368,967,cs),
(408,975,o),
(473,980,o),
(585,980,cs),
(643,980,ls),
(804,980,o),
(894,945,o),
(894,904,cs),
(894,878,ls),
(894,836,o),
(804,800,o),
(643,800,cs),
(606,800,ls),
(464,800,o),
(367,819,o),
(359,855,cs),
(352,886,o),
(338,908,o),
(303,908,cs),
(119,908,ls),
(84,908,o),
(63,888,o),
(66,852,cs),
(89,618,o),
(259,556,o),
(592,556,cs)
);
}
);
width = 1252;
}
);
unicode = 8309;
},
{
glyphname = sixsuperior;
lastChange = "2025-01-27 01:44:37 +0000";
layers = (
{
layerId = m01;
shapes = (
{
closed = 1;
nodes = (
(981,556,o),
(1186,676,o),
(1186,870,cs),
(1186,890,ls),
(1186,1101,o),
(1015,1203,o),
(784,1203,cs),
(477,1203,ls),
(388,1203,o),
(291,1162,o),
(242,1100,c),
(242,1180,ls),
(242,1376,o),
(325,1412,o),
(568,1412,cs),
(689,1412,ls),
(900,1412,o),
(992,1381,o),
(1008,1281,cs),
(1013,1250,o),
(1029,1234,o),
(1060,1234,cs),
(1137,1234,ls),
(1170,1234,o),
(1188,1253,o),
(1185,1286,cs),
(1165,1488,o),
(1007,1556,o),
(702,1556,cs),
(555,1556,ls),
(224,1556,o),
(66,1477,o),
(66,1185,cs),
(66,836,ls),
(66,642,o),
(271,556,o),
(502,556,cs),
(750,556,ls)
);
},
{
closed = 1;
nodes = (
(471,700,ls),
(357,700,o),
(242,792,o),
(242,872,cs),
(242,888,ls),
(242,981,o),
(375,1059,o),
(471,1059,cs),
(781,1059,ls),
(895,1059,o),
(1010,985,o),
(1010,888,cs),
(1010,872,ls),
(1010,792,o),
(895,700,o),
(781,700,cs)
);
}
);
width = 1252;
},
{
layerId = m002;
shapes = (
{
closed = 1;
nodes = (
(1015,556,o),
(1186,641,o),
(1186,863,cs),
(1186,885,ls),
(1186,1098,o),
(1072,1192,o),
(659,1192,cs),
(602,1192,ls),
(459,1192,o),
(437,1191,o),
(359,1164,c),
(359,1191,ls),
(359,1273,o),
(448,1312,o),
(610,1312,cs),
(644,1312,ls),
(776,1312,o),
(884,1292,o),
(892,1258,cs),
(899,1227,o),
(914,1215,o),
(948,1215,cs),
(1133,1215,ls),
(1169,1215,o),
(1189,1235,o),
(1185,1271,cs),
(1163,1483,o),
(992,1556,o),
(661,1556,cs),
(595,1556,ls),
(237,1556,o),
(66,1471,o),
(66,1196,cs),
(66,859,ls),
(66,641,o),
(237,556,o),
(593,556,cs),
(659,556,ls)
);
},
{
closed = 1;
nodes = (
(602,800,ls),
(418,800,o),
(359,839,o),
(359,865,cs),
(359,882,ls),
(359,908,o),
(437,948,o),
(602,948,cs),
(649,948,ls),
(833,948,o),
(893,909,o),
(893,883,cs),
(893,866,ls),
(893,840,o),
(833,800,o),
(649,800,cs)
);
}
);
width = 1252;
}
);
unicode = 8310;
},
{
glyphname = sevensuperior;
lastChange = "2025-01-27 01:52:15 +0000";
layers = (
{
layerId = m01;
shapes = (
{
closed = 1;
nodes = (
(401,576,ls),
(420,576,o),
(434,582,o),
(447,595,cs),
(1161,1315,ls),
(1174,1328,o),
(1186,1342,o),
(1186,1361,cs),
(1186,1499,ls),
(1186,1523,o),
(1173,1536,o),
(1149,1536,cs),
(104,1536,ls),
(79,1536,o),
(66,1523,o),
(66,1499,cs),
(66,1430,ls),
(66,1405,o),
(79,1392,o),
(104,1392,cs),
(1010,1392,l),
(1010,1385,l),
(248,622,ls),
(224,599,o),
(233,576,o),
(266,576,cs)
);
}
);
width = 1252;
},
{
layerId = m002;
shapes = (
{
closed = 1;
nodes = (
(529,576,ls),
(548,576,o),
(563,581,o),
(575,595,cs),
(1172,1292,ls),
(1184,1306,o),
(1186,1311,o),
(1186,1330,cs),
(1186,1499,ls),
(1186,1523,o),
(1173,1536,o),
(1149,1536,cs),
(104,1536,ls),
(79,1536,o),
(66,1523,o),
(66,1499,cs),
(66,1330,ls),
(66,1305,o),
(79,1292,o),
(104,1292,cs),
(822,1292,l),
(822,1292,l),
(248,622,ls),
(227,597,o),
(233,576,o),
(266,576,cs)
);
}
);
width = 1252;
}
);
unicode = 8311;
},
{
glyphname = eightsuperior;
lastChange = "2025-01-27 01:44:49 +0000";
layers = (
{
anchors = (
{
name = bottom;
pos = (-178,576);
},
{
name = top;
pos = (-178,1536);
}
);
layerId = m01;
shapes = (
{
closed = 1;
nodes = (
(554,1556,ls),
(244,1556,o),
(86,1477,o),
(86,1294,cs),
(86,1264,ls),
(86,1179,o),
(125,1102,o),
(208,1056,c),
(112,1010,o),
(66,934,o),
(66,849,cs),
(66,819,ls),
(66,635,o),
(224,556,o),
(554,556,cs),
(699,556,ls),
(1029,556,o),
(1186,635,o),
(1186,819,cs),
(1186,849,ls),
(1186,934,o),
(1140,1010,o),
(1044,1056,c),
(1127,1102,o),
(1166,1179,o),
(1166,1264,cs),
(1166,1294,ls),
(1166,1477,o),
(1009,1556,o),
(699,1556,cs)
);
},
{
closed = 1;
nodes = (
(242,846,ls),
(242,938,o),
(325,984,o),
(567,984,cs),
(685,984,ls),
(928,984,o),
(1010,938,o),
(1010,846,cs),
(1010,822,ls),
(1010,727,o),
(928,700,o),
(685,700,cs),
(567,700,ls),
(325,700,o),
(242,727,o),
(242,822,cs)
);
},
{
closed = 1;
nodes = (
(262,1291,ls),
(262,1386,o),
(345,1412,o),
(567,1412,cs),
(685,1412,ls),
(908,1412,o),
(990,1386,o),
(990,1291,cs),
(990,1267,ls),
(990,1175,o),
(908,1128,o),
(685,1128,cs),
(567,1128,ls),
(345,1128,o),
(262,1175,o),
(262,1267,cs)
);
}
);
width = 1252;
},
{
anchors = (
{
name = bottom;
pos = (-563,576);
},
{
name = top;
pos = (-563,1536);
}
);
layerId = m002;
shapes = (
{
closed = 1;
nodes = (
(594,1556,ls),
(258,1556,o),
(87,1471,o),
(87,1272,cs),
(87,1260,ls),
(87,1189,o),
(124,1105,o),
(214,1056,c),
(110,1007,o),
(66,923,o),
(66,852,cs),
(66,840,ls),
(66,641,o),
(237,556,o),
(594,556,cs),
(658,556,ls),
(1015,556,o),
(1186,641,o),
(1186,840,cs),
(1186,852,ls),
(1186,923,o),
(1142,1007,o),
(1038,1056,c),
(1128,1105,o),
(1165,1189,o),
(1165,1260,cs),
(1165,1272,ls),
(1165,1471,o),
(994,1556,o),
(658,1556,cs)
);
},
{
closed = 1;
nodes = (
(359,877,ls),
(359,901,o),
(426,934,o),
(609,934,cs),
(643,934,ls),
(826,934,o),
(893,901,o),
(893,877,cs),
(893,867,ls),
(893,820,o),
(826,800,o),
(643,800,cs),
(609,800,ls),
(426,800,o),
(359,820,o),
(359,867,cs)
);
},
{
closed = 1;
nodes = (
(380,1246,ls),
(380,1283,o),
(448,1312,o),
(609,1312,cs),
(643,1312,ls),
(804,1312,o),
(872,1283,o),
(872,1246,cs),
(872,1234,ls),
(872,1213,o),
(804,1178,o),
(643,1178,cs),
(609,1178,ls),
(448,1178,o),
(380,1213,o),
(380,1234,cs)
);
}
);
width = 1252;
}
);
unicode = 8312;
},
{
glyphname = .notdef;
layers = (
{
layerId = m01;
shapes = (
{
closed = 1;
nodes = (
(192,44,ls),
(192,-8,o),
(220,-36,o),
(272,-36,cs),
(1520,-36,ls),
(1572,-36,o),
(1600,-8,o),
(1600,44,cs),
(1600,1488,ls),
(1600,1540,o),
(1572,1568,o),
(1520,1568,cs),
(272,1568,ls),
(220,1568,o),
(192,1540,o),
(192,1488,cs)
);
},
{
closed = 1;
nodes = (
(464,124,ls),
(412,124,o),
(384,152,o),
(384,204,cs),
(384,1328,ls),
(384,1380,o),
(412,1408,o),
(464,1408,cs),
(1328,1408,ls),
(1380,1408,o),
(1408,1380,o),
(1408,1328,cs),
(1408,204,ls),
(1408,152,o),
(1380,124,o),
(1328,124,cs)
);
}
);
width = 1792;
},
{
layerId = m002;
shapes = (
{
closed = 1;
nodes = (
(192,44,ls),
(192,-8,o),
(220,-36,o),
(272,-36,cs),
(1760,-36,ls),
(1812,-36,o),
(1840,-8,o),
(1840,44,cs),
(1840,1488,ls),
(1840,1540,o),
(1812,1568,o),
(1760,1568,cs),
(272,1568,ls),
(220,1568,o),
(192,1540,o),
(192,1488,cs)
);
},
{
closed = 1;
nodes = (
(704,264,ls),
(652,264,o),
(624,292,o),
(624,344,cs),
(624,1188,ls),
(624,1240,o),
(652,1268,o),
(704,1268,cs),
(1328,1268,ls),
(1380,1268,o),
(1408,1240,o),
(1408,1188,cs),
(1408,344,ls),
(1408,292,o),
(1380,264,o),
(1328,264,cs)
);
}
);
width = 2032;
}
);
note = .notdef;
},
{
glyphname = period;
lastChange = "2024-12-31 23:51:40 +0000";
layers = (
{
layerId = m01;
shapes = (
{
closed = 1;
nodes = (
(304,0,ls),
(356,0,o),
(384,28,o),
(384,80,cs),
(384,176,ls),
(384,228,o),
(356,256,o),
(304,256,cs),
(208,256,ls),
(156,256,o),
(128,228,o),
(128,176,cs),
(128,80,ls),
(128,28,o),
(156,0,o),
(208,0,cs)
);
}
);
width = 512;
},
{
layerId = m002;
shapes = (
{
closed = 1;
nodes = (
(444,0,ls),
(496,0,o),
(524,28,o),
(524,80,cs),
(524,280,ls),
(524,332,o),
(496,360,o),
(444,360,cs),
(208,360,ls),
(156,360,o),
(128,332,o),
(128,280,cs),
(128,80,ls),
(128,28,o),
(156,0,o),
(208,0,cs)
);
}
);
width = 652;
}
);
unicode = 46;
},
{
glyphname = comma;
lastChange = "2024-12-31 23:56:03 +0000";
layers = (
{
layerId = m01;
shapes = (
{
closed = 1;
nodes = (
(256,-256,o),
(336,-166,o),
(336,0,cs),
(336,176,ls),
(336,228,o),
(308,256,o),
(256,256,cs),
(160,256,ls),
(108,256,o),
(80,228,o),
(80,176,cs),
(80,80,ls),
(80,28,o),
(108,0,o),
(192,0,c),
(192,-72,o),
(175,-112,o),
(139,-112,cs),
(97,-112,o),
(64,-133,o),
(64,-175,cs),
(64,-194,ls),
(64,-236,o),
(97,-256,o),
(163,-256,cs)
);
}
);
width = 464;
},
{
layerId = m002;
shapes = (
{
closed = 1;
nodes = (
(396,-432,o),
(476,-342,o),
(476,0,cs),
(476,280,ls),
(476,332,o),
(448,360,o),
(396,360,cs),
(160,360,ls),
(108,360,o),
(80,332,o),
(80,280,cs),
(80,80,ls),
(80,28,o),
(108,0,o),
(192,0,c),
(192,-104,o),
(175,-144,o),
(144,-144,cs),
(92,-144,o),
(64,-172,o),
(64,-224,cs),
(64,-352,ls),
(64,-404,o),
(92,-432,o),
(163,-432,cs)
);
}
);
width = 604;
}
);
unicode = 44;
},
{
glyphname = colon;
lastChange = "2024-12-31 23:52:17 +0000";
layers = (
{
layerId = m01;
shapes = (
{
closed = 1;
nodes = (
(304,768,ls),
(356,768,o),
(384,796,o),
(384,848,cs),
(384,944,ls),
(384,996,o),
(356,1024,o),
(304,1024,cs),
(208,1024,ls),
(156,1024,o),
(128,996,o),
(128,944,cs),
(128,848,ls),
(128,796,o),
(156,768,o),
(208,768,cs)
);
},
{
closed = 1;
nodes = (
(304,0,ls),
(356,0,o),
(384,28,o),
(384,80,cs),
(384,176,ls),
(384,228,o),
(356,256,o),
(304,256,cs),
(208,256,ls),
(156,256,o),
(128,228,o),
(128,176,cs),
(128,80,ls),
(128,28,o),
(156,0,o),
(208,0,cs)
);
}
);
width = 512;
},
{
layerId = m002;
shapes = (
{
closed = 1;
nodes = (
(444,664,ls),
(496,664,o),
(524,692,o),
(524,744,cs),
(524,944,ls),
(524,996,o),
(496,1024,o),
(444,1024,cs),
(208,1024,ls),
(156,1024,o),
(128,996,o),
(128,944,cs),
(128,744,ls),
(128,692,o),
(156,664,o),
(208,664,cs)
);
},
{
closed = 1;
nodes = (
(444,0,ls),
(496,0,o),
(524,28,o),
(524,80,cs),
(524,280,ls),
(524,332,o),
(496,360,o),
(444,360,cs),
(208,360,ls),
(156,360,o),
(128,332,o),
(128,280,cs),
(128,80,ls),
(128,28,o),
(156,0,o),
(208,0,cs)
);
}
);
width = 652;
}
);
unicode = 58;
},
{
glyphname = semicolon;
lastChange = "2024-12-31 23:56:47 +0000";
layers = (
{
layerId = m01;
shapes = (
{
ref = comma;
},
{
closed = 1;
nodes = (
(248,768,ls),
(300,768,o),
(328,796,o),
(328,848,cs),
(328,944,ls),
(328,996,o),
(300,1024,o),
(248,1024,cs),
(152,1024,ls),
(100,1024,o),
(72,996,o),
(72,944,cs),
(72,848,ls),
(72,796,o),
(100,768,o),
(152,768,cs)
);
}
);
width = 464;
},
{
layerId = m002;
shapes = (
{
ref = comma;
},
{
closed = 1;
nodes = (
(388,664,ls),
(440,664,o),
(468,692,o),
(468,744,cs),
(468,944,ls),
(468,996,o),
(440,1024,o),
(388,1024,cs),
(152,1024,ls),
(100,1024,o),
(72,996,o),
(72,944,cs),
(72,744,ls),
(72,692,o),
(100,664,o),
(152,664,cs)
);
}
);
width = 604;
}
);
unicode = 59;
},
{
glyphname = bullet;
lastChange = "2024-12-27 19:55:33 +0000";
layers = (
{
layerId = m01;
shapes = (
{
closed = 1;
nodes = (
(432,576,ls),
(484,576,o),
(512,604,o),
(512,656,cs),
(512,880,ls),
(512,932,o),
(484,960,o),
(432,960,cs),
(208,960,ls),
(156,960,o),
(128,932,o),
(128,880,cs),
(128,656,ls),
(128,604,o),
(156,576,o),
(208,576,cs)
);
}
);
width = 640;
},
{
layerId = m002;
shapes = (
{
closed = 1;
nodes = (
(432,576,ls),
(484,576,o),
(512,604,o),
(512,656,cs),
(512,880,ls),
(512,932,o),
(484,960,o),
(432,960,cs),
(208,960,ls),
(156,960,o),
(128,932,o),
(128,880,cs),
(128,656,ls),
(128,604,o),
(156,576,o),
(208,576,cs)
);
}
);
width = 640;
}
);
unicode = 8226;
},
{
glyphname = asterisk;
lastChange = "2025-01-01 01:17:46 +0000";
layers = (
{
layerId = m01;
shapes = (
{
closed = 1;
nodes = (
(369,1052,ls),
(408,1052,o),
(429,1073,o),
(429,1112,cs),
(429,1194,l),
(500,1153,ls),
(534,1133,o),
(562,1141,o),
(582,1175,cs),
(588,1185,ls),
(607,1219,o),
(600,1248,o),
(566,1267,cs),
(495,1308,l),
(566,1349,ls),
(600,1368,o),
(607,1397,o),
(588,1431,cs),
(582,1441,ls),
(562,1475,o),
(534,1483,o),
(500,1463,cs),
(429,1422,l),
(429,1504,ls),
(429,1543,o),
(408,1564,o),
(369,1564,cs),
(357,1564,ls),
(318,1564,o),
(297,1543,o),
(297,1504,cs),
(297,1422,l),
(226,1463,ls),
(192,1483,o),
(164,1475,o),
(144,1441,cs),
(138,1431,ls),
(119,1397,o),
(126,1368,o),
(160,1349,cs),
(231,1308,l),
(160,1267,ls),
(126,1248,o),
(119,1219,o),
(138,1185,cs),
(144,1175,ls),
(164,1141,o),
(192,1133,o),
(226,1153,cs),
(297,1194,l),
(297,1112,ls),
(297,1073,o),
(318,1052,o),
(357,1052,cs)
);
}
);
width = 726;
},
{
layerId = m002;
shapes = (
{
closed = 1;
nodes = (
(568,940,ls),
(620,940,o),
(665,970,o),
(648,1020,cs),
(617,1109,l),
(683,1044,ls),
(720,1007,o),
(775,1013,o),
(801,1059,cs),
(865,1171,ls),
(891,1216,o),
(873,1275,o),
(822,1287,cs),
(733,1308,l),
(822,1329,ls),
(864,1339,o),
(891,1399,o),
(865,1444,cs),
(801,1556,ls),
(775,1601,o),
(715,1606,o),
(683,1574,cs),
(617,1507,l),
(648,1595,ls),
(666,1645,o),
(620,1675,o),
(568,1675,cs),
(440,1675,ls),
(388,1675,o),
(343,1645,o),
(360,1595,cs),
(389,1507,l),
(325,1574,ls),
(288,1612,o),
(233,1601,o),
(207,1556,cs),
(143,1444,ls),
(117,1399,o),
(134,1341,o),
(186,1329,cs),
(275,1308,l),
(186,1287,ls),
(135,1275,o),
(117,1217,o),
(143,1171,cs),
(207,1059,ls),
(233,1014,o),
(288,1007,o),
(325,1044,cs),
(389,1109,l),
(360,1020,ls),
(344,971,o),
(388,940,o),
(440,940,cs)
);
}
);
width = 1007;
}
);
unicode = 42;
},
{
glyphname = numbersign;
lastChange = "2024-12-30 04:33:21 +0000";
layers = (
{
layerId = m01;
shapes = (
{
closed = 1;
nodes = (
(445,0,ls),
(492,0,o),
(522,22,o),
(534,68,cs),
(883,1367,ls),
(898,1423,o),
(871,1456,o),
(814,1456,cs),
(779,1456,ls),
(732,1456,o),
(702,1434,o),
(690,1388,cs),
(341,89,ls),
(326,33,o),
(353,0,o),
(410,0,cs)
);
},
{
closed = 1;
nodes = (
(1029,0,ls),
(1076,0,o),
(1106,22,o),
(1118,68,cs),
(1467,1367,ls),
(1482,1423,o),
(1455,1456,o),
(1398,1456,cs),
(1363,1456,ls),
(1316,1456,o),
(1286,1434,o),
(1274,1388,cs),
(925,89,ls),
(910,33,o),
(937,0,o),
(994,0,cs)
);
},
{
closed = 1;
nodes = (
(247,945,ls),
(234,896,o),
(258,864,o),
(309,864,cs),
(1594,864,ls),
(1636,864,o),
(1663,883,o),
(1674,925,cs),
(1679,944,ls),
(1692,993,o),
(1668,1024,o),
(1617,1024,cs),
(332,1024,ls),
(290,1024,o),
(263,1005,o),
(252,963,cs)
);
},
{
closed = 1;
nodes = (
(131,513,ls),
(118,464,o),
(142,432,o),
(193,432,cs),
(1478,432,ls),
(1520,432,o),
(1547,451,o),
(1558,493,cs),
(1563,512,ls),
(1576,561,o),
(1552,592,o),
(1501,592,cs),
(216,592,ls),
(174,592,o),
(147,573,o),
(136,531,cs)
);
}
);
width = 1810;
},
{
layerId = m002;
shapes = (
{
closed = 1;
nodes = (
(551,0,ls),
(598,0,o),
(628,22,o),
(640,68,cs),
(989,1367,ls),
(1004,1423,o),
(977,1456,o),
(920,1456,cs),
(711,1456,ls),
(664,1456,o),
(634,1434,o),
(622,1388,cs),
(273,89,ls),
(258,33,o),
(285,0,o),
(342,0,cs)
);
},
{
closed = 1;
nodes = (
(1135,0,ls),
(1182,0,o),
(1212,22,o),
(1224,68,cs),
(1573,1367,ls),
(1588,1423,o),
(1561,1456,o),
(1504,1456,cs),
(1295,1456,ls),
(1248,1456,o),
(1218,1434,o),
(1206,1388,cs),
(857,89,ls),
(842,33,o),
(869,0,o),
(926,0,cs)
);
},
{
closed = 1;
nodes = (
(249,881,ls),
(235,828,o),
(260,800,o),
(311,800,cs),
(1596,800,ls),
(1638,800,o),
(1664,816,o),
(1676,861,cs),
(1715,1008,ls),
(1729,1061,o),
(1704,1088,o),
(1653,1088,cs),
(368,1088,ls),
(326,1088,o),
(300,1072,o),
(288,1027,cs)
);
},
{
closed = 1;
nodes = (
(132,449,ls),
(118,396,o),
(143,368,o),
(194,368,cs),
(1479,368,ls),
(1521,368,o),
(1547,384,o),
(1559,429,cs),
(1599,576,ls),
(1613,629,o),
(1588,656,o),
(1537,656,cs),
(252,656,ls),
(210,656,o),
(184,640,o),
(172,595,cs)
);
}
);
width = 1847;
}
);
unicode = 35;
},
{
glyphname = slash;
lastChange = "2025-01-27 01:14:41 +0000";
layers = (
{
layerId = m01;
shapes = (
{
closed = 1;
nodes = (
(195,0,ls),
(240,0,o),
(276,18,o),
(288,62,cs),
(663,1443,ls),
(678,1500,o),
(661,1536,o),
(601,1536,cs),
(561,1536,ls),
(516,1536,o),
(480,1518,o),
(468,1474,cs),
(93,93,ls),
(78,36,o),
(93,0,o),
(150,0,cs)
);
}
);
width = 756;
},
{
layerId = m002;
shapes = (
{
closed = 1;
nodes = (
(365,0,ls),
(410,0,o),
(446,18,o),
(458,62,cs),
(833,1443,ls),
(848,1500,o),
(831,1536,o),
(771,1536,cs),
(561,1536,ls),
(516,1536,o),
(480,1518,o),
(468,1474,cs),
(93,93,ls),
(78,36,o),
(93,0,o),
(150,0,cs)
);
}
);
width = 926;
}
);
unicode = 47;
},
{
glyphname = hyphen;
lastChange = "2025-01-02 00:37:56 +0000";
layers = (
{
layerId = m01;
shapes = (
{
closed = 1;
nodes = (
(128,748,ls),
(128,709,o),
(149,688,o),
(188,688,cs),
(900,688,ls),
(939,688,o),
(960,709,o),
(960,748,cs),
(960,788,ls),
(960,827,o),
(939,848,o),
(900,848,cs),
(188,848,ls),
(149,848,o),
(128,827,o),
(128,788,cs)
);
}
);
width = 1088;
},
{
layerId = m002;
shapes = (
{
closed = 1;
nodes = (
(128,666,ls),
(128,627,o),
(149,606,o),
(188,606,cs),
(900,606,ls),
(939,606,o),
(960,627,o),
(960,666,cs),
(960,870,ls),
(960,909,o),
(939,930,o),
(900,930,cs),
(188,930,ls),
(149,930,o),
(128,909,o),
(128,870,cs)
);
}
);
width = 1088;
}
);
unicode = 45;
},
{
glyphname = endash;
lastChange = "2025-01-02 00:38:10 +0000";
layers = (
{
layerId = m01;
shapes = (
{
closed = 1;
nodes = (
(128,748,ls),
(128,709,o),
(149,688,o),
(188,688,cs),
(1220,688,ls),
(1259,688,o),
(1280,709,o),
(1280,748,cs),
(1280,788,ls),
(1280,827,o),
(1259,848,o),
(1220,848,cs),
(188,848,ls),
(149,848,o),
(128,827,o),
(128,788,cs)
);
}
);
width = 1408;
},
{
layerId = m002;
shapes = (
{
closed = 1;
nodes = (
(128,666,ls),
(128,627,o),
(149,606,o),
(188,606,cs),
(1220,606,ls),
(1259,606,o),
(1280,627,o),
(1280,666,cs),
(1280,870,ls),
(1280,909,o),
(1259,930,o),
(1220,930,cs),
(188,930,ls),
(149,930,o),
(128,909,o),
(128,870,cs)
);
}
);
width = 1408;
}
);
unicode = 8211;
},
{
glyphname = emdash;
lastChange = "2025-01-02 00:38:18 +0000";
layers = (
{
layerId = m01;
shapes = (
{
closed = 1;
nodes = (
(0,748,ls),
(0,709,o),
(21,688,o),
(60,688,cs),
(2212,688,ls),
(2251,688,o),
(2272,709,o),
(2272,748,cs),
(2272,788,ls),
(2272,827,o),
(2251,848,o),
(2212,848,cs),
(60,848,ls),
(21,848,o),
(0,827,o),
(0,788,cs)
);
}
);
width = 2272;
},
{
layerId = m002;
shapes = (
{
closed = 1;
nodes = (
(0,648,ls),
(0,609,o),
(21,588,o),
(60,588,cs),
(2212,588,ls),
(2251,588,o),
(2272,609,o),
(2272,648,cs),
(2272,888,ls),
(2272,927,o),
(2251,948,o),
(2212,948,cs),
(60,948,ls),
(21,948,o),
(0,927,o),
(0,888,cs)
);
}
);
width = 2272;
}
);
unicode = 8212;
},
{
glyphname = underscore;
lastChange = "2025-01-02 00:38:30 +0000";
layers = (
{
layerId = m01;
shapes = (
{
closed = 1;
nodes = (
(0,-132,ls),
(0,-171,o),
(21,-192,o),
(60,-192,cs),
(1092,-192,ls),
(1131,-192,o),
(1152,-171,o),
(1152,-132,cs),
(1152,-92,ls),
(1152,-53,o),
(1131,-32,o),
(1092,-32,cs),
(60,-32,ls),
(21,-32,o),
(0,-53,o),
(0,-92,cs)
);
}
);
width = 1152;
},
{
layerId = m002;
shapes = (
{
closed = 1;
nodes = (
(0,-296,ls),
(0,-335,o),
(21,-356,o),
(60,-356,cs),
(1092,-356,ls),
(1131,-356,o),
(1152,-335,o),
(1152,-296,cs),
(1152,-92,ls),
(1152,-53,o),
(1131,-32,o),
(1092,-32,cs),
(60,-32,ls),
(21,-32,o),
(0,-53,o),
(0,-92,cs)
);
}
);
width = 1152;
}
);
unicode = 95;
},
{
glyphname = parenleft;
lastChange = "2025-01-01 00:34:01 +0000";
layers = (
{
layerId = m01;
shapes = (
{
closed = 1;
nodes = (
(568,-96,ls),
(612,-96,o),
(640,-68,o),
(640,-24,cs),
(640,-8,ls),
(640,36,o),
(612,64,o),
(568,64,cs),
(529,64,ls),
(452,64,o),
(320,123,o),
(320,265,cs),
(320,1272,ls),
(320,1414,o),
(452,1472,o),
(529,1472,cs),
(568,1472,ls),
(612,1472,o),
(640,1500,o),
(640,1544,cs),
(640,1560,ls),
(640,1604,o),
(612,1632,o),
(568,1632,cs),
(508,1632,ls),
(380,1632,o),
(128,1513,o),
(128,1244,cs),
(128,291,ls),
(128,21,o),
(380,-96,o),
(508,-96,cs)
);
}
);
width = 768;
},
{
layerId = m002;
shapes = (
{
closed = 1;
nodes = (
(688,-96,ls),
(732,-96,o),
(760,-68,o),
(760,-24,cs),
(760,192,ls),
(760,236,o),
(732,264,o),
(688,264,cs),
(669,264,ls),
(646,264,o),
(560,323,o),
(560,465,cs),
(560,1072,ls),
(560,1214,o),
(646,1272,o),
(669,1272,cs),
(688,1272,ls),
(732,1272,o),
(760,1300,o),
(760,1344,cs),
(760,1560,ls),
(760,1604,o),
(732,1632,o),
(688,1632,cs),
(628,1632,ls),
(380,1632,o),
(128,1513,o),
(128,1100,cs),
(128,435,ls),
(128,21,o),
(380,-96,o),
(628,-96,cs)
);
}
);
width = 888;
}
);
unicode = 40;
},
{
glyphname = braceleft;
lastChange = "2025-01-01 00:36:24 +0000";
layers = (
{
layerId = m01;
shapes = (
{
closed = 1;
nodes = (
(664,-96,ls),
(708,-96,o),
(736,-68,o),
(736,-24,cs),
(736,-8,ls),
(736,36,o),
(708,64,o),
(664,64,cs),
(625,64,ls),
(548,64,o),
(416,131,o),
(416,273,cs),
(416,460,ls),
(416,601,o),
(384,703,o),
(332,768,c),
(384,833,o),
(416,935,o),
(416,1076,cs),
(416,1263,ls),
(416,1405,o),
(548,1472,o),
(625,1472,cs),
(664,1472,ls),
(708,1472,o),
(736,1500,o),
(736,1544,cs),
(736,1560,ls),
(736,1604,o),
(708,1632,o),
(664,1632,cs),
(604,1632,ls),
(476,1632,o),
(224,1513,o),
(224,1236,cs),
(224,1049,ls),
(224,915,o),
(204,848,o),
(143,848,cs),
(104,848,ls),
(60,848,o),
(32,820,o),
(32,776,cs),
(32,760,ls),
(32,716,o),
(60,688,o),
(104,688,cs),
(143,688,ls),
(204,688,o),
(224,621,o),
(224,487,cs),
(224,300,ls),
(224,23,o),
(476,-96,o),
(604,-96,cs)
);
}
);
width = 864;
},
{
layerId = m002;
shapes = (
{
closed = 1;
nodes = (
(784,-96,ls),
(828,-96,o),
(856,-68,o),
(856,-24,cs),
(856,192,ls),
(856,236,o),
(828,264,o),
(784,264,cs),
(765,264,ls),
(688,264,o),
(656,331,o),
(656,417,cs),
(656,460,ls),
(656,601,o),
(624,703,o),
(572,768,c),
(624,833,o),
(656,935,o),
(656,1076,cs),
(656,1119,ls),
(656,1205,o),
(688,1272,o),
(765,1272,cs),
(784,1272,ls),
(828,1272,o),
(856,1300,o),
(856,1544,cs),
(856,1560,ls),
(856,1604,o),
(828,1632,o),
(784,1632,cs),
(724,1632,ls),
(476,1632,o),
(224,1513,o),
(224,1092,cs),
(224,1049,ls),
(224,1015,o),
(204,948,o),
(143,948,cs),
(104,948,ls),
(60,948,o),
(32,920,o),
(32,876,cs),
(32,660,ls),
(32,616,o),
(60,588,o),
(104,588,cs),
(143,588,ls),
(204,588,o),
(224,521,o),
(224,487,cs),
(224,444,ls),
(224,23,o),
(476,-96,o),
(724,-96,cs)
);
}
);
width = 984;
}
);
unicode = 123;
},
{
glyphname = bracketleft;
lastChange = "2025-01-01 00:37:37 +0000";
layers = (
{
layerId = m01;
shapes = (
{
closed = 1;
nodes = (
(568,-96,ls),
(612,-96,o),
(640,-68,o),
(640,-24,cs),
(640,-8,ls),
(640,36,o),
(612,64,o),
(568,64,cs),
(320,64,l),
(320,1472,l),
(568,1472,ls),
(612,1472,o),
(640,1500,o),
(640,1544,cs),
(640,1560,ls),
(640,1604,o),
(612,1632,o),
(568,1632,cs),
(208,1632,ls),
(156,1632,o),
(128,1604,o),
(128,1552,cs),
(128,-16,ls),
(128,-68,o),
(156,-96,o),
(208,-96,cs)
);
}
);
width = 768;
},
{
layerId = m002;
shapes = (
{
closed = 1;
nodes = (
(628,-96,ls),
(672,-96,o),
(700,-68,o),
(700,-24,cs),
(700,192,ls),
(700,236,o),
(672,264,o),
(628,264,cs),
(560,264,l),
(560,1272,l),
(628,1272,ls),
(672,1272,o),
(700,1300,o),
(700,1344,cs),
(700,1560,ls),
(700,1604,o),
(672,1632,o),
(628,1632,cs),
(208,1632,ls),
(156,1632,o),
(128,1604,o),
(128,1552,cs),
(128,-16,ls),
(128,-68,o),
(156,-96,o),
(208,-96,cs)
);
}
);
width = 828;
}
);
unicode = 91;
},
{
glyphname = guilsinglleft;
lastChange = "2025-01-27 01:12:59 +0000";
layers = (
{
layerId = m01;
shapes = (
{
closed = 1;
nodes = (
(678,1120,o),
(681,1156,o),
(650,1187,cs),
(643,1194,ls),
(613,1224,o),
(578,1224,o),
(540,1186,cs),
(235,881,ls),
(206,852,o),
(192,824,o),
(192,783,cs),
(192,754,ls),
(192,713,o),
(206,685,o),
(235,656,cs),
(540,351,ls),
(578,313,o),
(613,312,o),
(643,342,cs),
(650,349,ls),
(680,379,o),
(678,417,o),
(642,453,cs),
(336,759,l),
(336,778,l),
(642,1084,ls)
);
}
);
width = 863;
},
{
layerId = m002;
shapes = (
{
closed = 1;
nodes = (
(752,1005,o),
(756,1041,o),
(725,1072,cs),
(591,1206,ls),
(561,1236,o),
(525,1236,o),
(487,1198,cs),
(171,882,ls),
(142,853,o),
(128,825,o),
(128,784,cs),
(128,754,ls),
(128,713,o),
(142,685,o),
(171,656,cs),
(488,339,ls),
(525,302,o),
(561,300,o),
(591,330,cs),
(726,465,ls),
(755,494,o),
(752,532,o),
(716,568,cs),
(526,758,l),
(526,779,l),
(716,969,ls)
);
}
);
width = 874;
}
);
unicode = 8249;
},
{
glyphname = quotesingle;
lastChange = "2025-01-02 00:34:38 +0000";
layers = (
{
layerId = m01;
shapes = (
{
closed = 1;
nodes = (
(218,1024,ls),
(257,1024,o),
(282,1040,o),
(284,1082,cs),
(300,1474,ls),
(302,1516,o),
(274,1536,o),
(232,1536,cs),
(196,1536,ls),
(154,1536,o),
(126,1516,o),
(128,1474,cs),
(144,1082,ls),
(146,1040,o),
(171,1024,o),
(210,1024,cs)
);
}
);
width = 428;
},
{
layerId = m002;
shapes = (
{
closed = 1;
nodes = (
(392,1024,ls),
(431,1024,o),
(454,1040,o),
(458,1082,cs),
(494,1474,ls),
(498,1516,o),
(468,1536,o),
(426,1536,cs),
(202,1536,ls),
(160,1536,o),
(130,1516,o),
(134,1474,cs),
(170,1082,ls),
(174,1040,o),
(197,1024,o),
(236,1024,cs)
);
}
);
width = 628;
}
);
unicode = 39;
},
{
glyphname = at;
kernLeft = O;
kernRight = O;
lastChange = "2025-01-12 16:39:05 +0000";
layers = (
{
layerId = m01;
shapes = (
{
closed = 1;
nodes = (
(88,744,ls),
(88,190,o),
(428,-32,o),
(868,-32,cs),
(1100,-32,ls),
(1257,-32,o),
(1402,-3,o),
(1523,58,cs),
(1573,84,o),
(1576,130,o),
(1536,170,cs),
(1521,185,ls),
(1487,219,o),
(1454,221,o),
(1411,201,cs),
(1321,162,o),
(1209,144,o),
(1079,144,cs),
(889,144,ls),
(500,144,o),
(280,299,o),
(280,749,cs),
(280,788,ls),
(280,1238,o),
(500,1392,o),
(889,1392,cs),
(1079,1392,ls),
(1468,1392,o),
(1688,1238,o),
(1688,788,cs),
(1688,749,ls),
(1688,626,o),
(1668,511,o),
(1511,486,c),
(1511,1153,ls),
(1511,1201,o),
(1486,1227,o),
(1438,1227,cs),
(1409,1227,ls),
(1361,1227,o),
(1335,1201,o),
(1335,1153,cs),
(1335,1080,l),
(1254,1200,o),
(1140,1248,o),
(1040,1248,cs),
(927,1248,ls),
(706,1248,o),
(456,1172,o),
(456,783,cs),
(456,753,ls),
(456,377,o),
(706,288,o),
(927,288,cs),
(1040,288,ls),
(1140,288,o),
(1254,337,o),
(1335,457,c),
(1335,384,ls),
(1335,336,o),
(1361,310,o),
(1409,310,cs),
(1438,310,l),
(1442,310,ls),
(1776,315,o),
(1880,546,o),
(1880,744,cs),
(1880,792,ls),
(1880,1346,o),
(1540,1568,o),
(1100,1568,cs),
(868,1568,ls),
(428,1568,o),
(88,1346,o),
(88,792,cs)
);
},
{
closed = 1;
nodes = (
(632,780,ls),
(632,1039,o),
(753,1104,o),
(934,1104,cs),
(1033,1104,ls),
(1214,1104,o),
(1325,976,o),
(1335,798,c),
(1335,738,l),
(1325,560,o),
(1214,432,o),
(1033,432,cs),
(934,432,ls),
(753,432,o),
(632,500,o),
(632,756,cs)
);
}
);
width = 1968;
},
{
layerId = m002;
shapes = (
{
closed = 1;
nodes = (
(88,744,ls),
(88,150,o),
(428,-72,o),
(1060,-72,cs),
(1157,-72,ls),
(1314,-72,o),
(1569,-35,o),
(1690,26,cs),
(1740,52,o),
(1773,98,o),
(1733,138,cs),
(1578,293,ls),
(1544,327,o),
(1511,329,o),
(1468,309,cs),
(1378,270,o),
(1266,252,o),
(1139,252,cs),
(1078,252,ls),
(772,252,o),
(520,357,o),
(520,749,cs),
(520,788,ls),
(520,1196,o),
(772,1284,o),
(1078,1284,cs),
(1139,1284,ls),
(1445,1284,o),
(1696,1196,o),
(1696,896,cs),
(1696,883,ls),
(1696,770,o),
(1624,723,o),
(1568,726,c),
(1568,1061,ls),
(1568,1109,o),
(1543,1135,o),
(1495,1135,cs),
(1250,1135,ls),
(1235,1135,o),
(1221,1131,o),
(1221,1131,cs),
(1221,1131,l),
(1153,1155,o),
(1141,1156,o),
(1124,1156,cs),
(1092,1156,ls),
(898,1156,o),
(648,1080,o),
(648,783,cs),
(648,753,ls),
(648,469,o),
(898,380,o),
(1092,380,cs),
(1124,380,ls),
(1141,380,o),
(1153,381,o),
(1221,405,c),
(1221,405,ls),
(1221,405,o),
(1235,402,o),
(1250,402,cs),
(1495,402,l),
(1568,402,ls),
(2016,402,o),
(2092,652,o),
(2092,860,cs),
(2092,908,ls),
(2092,1386,o),
(1752,1608,o),
(1157,1608,cs),
(1060,1608,ls),
(428,1608,o),
(88,1386,o),
(88,792,cs)
);
},
{
closed = 1;
nodes = (
(1044,780,ls),
(1044,813,o),
(1082,832,o),
(1101,832,cs),
(1115,832,ls),
(1134,832,o),
(1172,813,o),
(1172,780,c),
(1172,756,l),
(1172,723,o),
(1134,704,o),
(1115,704,cs),
(1101,704,ls),
(1082,704,o),
(1044,726,o),
(1044,756,cs)
);
}
);
width = 2180;
}
);
unicode = 64;
},
{
glyphname = ampersand;
kernLeft = O;
kernRight = O;
lastChange = "2025-01-11 17:31:42 +0000";
layers = (
{
layerId = m01;
shapes = (
{
closed = 1;
nodes = (
(1100,-35,ls),
(1421,-35,o),
(1640,9,o),
(1762,112,c),
(1966,10,ls),
(2002,-8,o),
(2033,-2,o),
(2054,34,cs),
(2075,70,ls),
(2096,106,o),
(2089,139,o),
(2051,158,cs),
(1863,252,l),
(1875,289,o),
(1880,340,o),
(1880,385,cs),
(1880,528,ls),
(1880,580,o),
(1852,608,o),
(1800,608,cs),
(1768,608,ls),
(1716,608,o),
(1688,580,o),
(1688,528,cs),
(1688,390,ls),
(1688,375,o),
(1688,353,o),
(1687,340,c),
(573,897,l),
(479,935,o),
(440,1000,o),
(440,1102,cs),
(440,1141,ls),
(440,1347,o),
(572,1405,o),
(949,1405,cs),
(1019,1405,ls),
(1396,1405,o),
(1528,1347,o),
(1528,1141,cs),
(1528,1072,ls),
(1528,1020,o),
(1556,992,o),
(1608,992,cs),
(1640,992,ls),
(1692,992,o),
(1720,1020,o),
(1720,1072,cs),
(1720,1145,ls),
(1720,1439,o),
(1468,1565,o),
(1040,1565,cs),
(928,1565,ls),
(500,1565,o),
(248,1439,o),
(248,1145,cs),
(248,1097,ls),
(248,965,o),
(302,863,o),
(396,795,c),
(191,732,o),
(88,618,o),
(88,433,cs),
(88,385,ls),
(88,91,o),
(340,-35,o),
(868,-35,cs)
);
},
{
closed = 1;
nodes = (
(412,125,o),
(280,184,o),
(280,390,cs),
(280,429,ls),
(280,580,o),
(363,653,o),
(636,675,c),
(1584,201,l),
(1494,156,o),
(1335,125,o),
(1079,125,cs),
(889,125,ls)
);
}
);
width = 2113;
},
{
layerId = m002;
shapes = (
{
closed = 1;
nodes = (
(1100,-32,ls),
(1421,-32,o),
(1642,-26,o),
(1764,77,c),
(1898,10,ls),
(1945,-13,o),
(1983,0,o),
(2006,46,cs),
(2095,224,ls),
(2118,270,o),
(2104,309,o),
(2060,331,cs),
(1912,405,l),
(1912,437,o),
(1912,533,o),
(1912,578,cs),
(1912,667,ls),
(1912,719,o),
(1884,747,o),
(1832,747,cs),
(1560,747,ls),
(1508,747,o),
(1480,719,o),
(1480,667,cs),
(1480,649,ls),
(1480,649,o),
(1480,621,o),
(1480,621,c),
(926,898,l),
(752,985,o),
(680,1035,o),
(680,1087,cs),
(680,1094,ls),
(680,1150,o),
(752,1208,o),
(949,1208,cs),
(1051,1208,ls),
(1248,1208,o),
(1320,1150,o),
(1320,1094,cs),
(1320,1055,ls),
(1320,1003,o),
(1348,975,o),
(1400,975,cs),
(1672,975,ls),
(1724,975,o),
(1752,1003,o),
(1752,1055,cs),
(1752,1148,ls),
(1752,1442,o),
(1500,1568,o),
(1072,1568,cs),
(928,1568,ls),
(500,1568,o),
(248,1442,o),
(248,1148,cs),
(248,1100,ls),
(248,968,o),
(302,866,o),
(348,836,c),
(191,735,o),
(88,621,o),
(88,436,cs),
(88,388,ls),
(88,94,o),
(340,-32,o),
(868,-32,cs)
);
},
{
closed = 1;
nodes = (
(652,328,o),
(520,387,o),
(520,457,cs),
(520,497,ls),
(520,567,o),
(594,618,o),
(678,620,c),
(1256,331,l),
(1249,329,o),
(1235,328,o),
(1059,328,cs),
(879,328,ls)
);
}
);
width = 2132;
}
);
unicode = 38;
},
{
glyphname = paragraph;
kernLeft = O;
kernRight = H;
lastChange = "2025-01-11 21:32:12 +0000";
layers = (
{
anchors = (
{
name = bottom;
pos = (268,0);
},
{
name = bottomleft;
pos = (1384,-96);
},
{
name = center;
pos = (1560,768);
},
{
name = top;
pos = (268,1536);
}
);
layerId = m01;
shapes = (
{
closed = 1;
nodes = (
(1060,0,o),
(1088,28,o),
(1088,80,cs),
(1088,1376,l),
(1328,1376,l),
(1328,80,ls),
(1328,28,o),
(1356,0,o),
(1408,0,cs),
(1440,0,ls),
(1492,0,o),
(1520,28,o),
(1520,80,cs),
(1520,1456,ls),
(1520,1508,o),
(1492,1536,o),
(1440,1536,cs),
(616,1536,ls),
(264,1536,o),
(96,1452,o),
(96,1072,cs),
(96,1040,ls),
(96,660,o),
(264,576,o),
(616,576,cs),
(896,576,l),
(896,80,ls),
(896,28,o),
(924,0,o),
(976,0,cs),
(1008,0,ls)
);
},
{
closed = 1;
nodes = (
(630,736,ls),
(376,736,o),
(288,775,o),
(288,1043,cs),
(288,1069,ls),
(288,1347,o),
(376,1376,o),
(630,1376,cs),
(896,1376,l),
(896,736,l)
);
}
);
width = 1648;
},
{
anchors = (
{
name = bottom;
pos = (276,0);
},
{
name = bottomleft;
pos = (1392,-96);
},
{
name = center;
pos = (1568,768);
},
{
name = top;
pos = (276,1536);
}
);
layerId = m002;
shapes = (
{
closed = 1;
nodes = (
(1124,0,o),
(1152,28,o),
(1152,80,cs),
(1152,1176,l),
(1280,1176,l),
(1280,80,ls),
(1280,28,o),
(1308,0,o),
(1360,0,cs),
(1632,0,ls),
(1684,0,o),
(1712,28,o),
(1712,80,cs),
(1712,1456,ls),
(1712,1508,o),
(1684,1536,o),
(1632,1536,cs),
(616,1536,ls),
(264,1536,o),
(96,1402,o),
(96,1022,cs),
(96,970,ls),
(96,590,o),
(264,456,o),
(616,456,cs),
(720,456,l),
(720,80,ls),
(720,28,o),
(748,0,o),
(800,0,cs),
(1072,0,ls)
);
},
{
closed = 1;
nodes = (
(650,816,ls),
(596,816,o),
(528,855,o),
(528,973,cs),
(528,1019,ls),
(528,1147,o),
(596,1176,o),
(650,1176,cs),
(720,1176,l),
(720,816,l)
);
}
);
width = 1840;
}
);
unicode = 182;
},
{
glyphname = section;
kernLeft = O;
kernRight = O;
lastChange = "2025-02-02 00:46:22 +0000";
layers = (
{
layerId = m01;
shapes = (
{
closed = 1;
nodes = (
(865,0,ls),
(1217,0,o),
(1385,84,o),
(1385,288,cs),
(1385,320,ls),
(1385,422,o),
(1345,490,o),
(1263,535,c),
(1345,581,o),
(1385,660,o),
(1385,752,cs),
(1385,796,ls),
(1385,1003,o),
(1185,1069,o),
(895,1071,cs),
(663,1073,ls),
(393,1075,o),
(305,1109,o),
(305,1219,cs),
(305,1245,ls),
(305,1353,o),
(393,1392,o),
(663,1392,cs),
(881,1392,ls),
(1084,1392,o),
(1182,1367,o),
(1208,1252,cs),
(1219,1202,o),
(1241,1176,o),
(1291,1176,cs),
(1308,1176,ls),
(1358,1176,o),
(1393,1206,o),
(1385,1259,cs),
(1353,1469,o),
(1185,1536,o),
(895,1536,cs),
(649,1536,ls),
(297,1536,o),
(129,1452,o),
(129,1248,cs),
(129,1216,ls),
(129,1114,o),
(169,1046,o),
(251,1001,c),
(169,955,o),
(129,876,o),
(129,784,cs),
(129,740,ls),
(129,543,o),
(329,466,o),
(619,464,cs),
(851,462,ls),
(1121,460,o),
(1209,427,o),
(1209,317,cs),
(1209,291,ls),
(1209,183,o),
(1121,144,o),
(851,144,cs),
(633,144,ls),
(430,144,o),
(332,169,o),
(306,284,cs),
(295,334,o),
(273,360,o),
(223,360,cs),
(206,360,ls),
(156,360,o),
(121,330,o),
(129,277,cs),
(161,67,o),
(329,0,o),
(619,0,cs)
);
},
{
closed = 1;
nodes = (
(663,610,ls),
(393,610,o),
(305,652,o),
(305,756,cs),
(305,781,ls),
(305,892,o),
(379,926,o),
(649,926,cs),
(851,926,ls),
(1121,926,o),
(1209,884,o),
(1209,780,cs),
(1209,755,ls),
(1209,644,o),
(1135,610,o),
(865,610,cs)
);
}
);
width = 1514;
},
{
layerId = m002;
shapes = (
{
closed = 1;
nodes = (
(865,0,ls),
(1217,0,o),
(1385,108,o),
(1385,312,cs),
(1385,344,ls),
(1385,446,o),
(1345,528,o),
(1263,573,c),
(1345,618,o),
(1385,705,o),
(1385,797,cs),
(1385,841,ls),
(1385,1048,o),
(1217,1121,o),
(865,1126,cs),
(663,1129,ls),
(543,1131,o),
(505,1152,o),
(505,1174,cs),
(505,1203,ls),
(505,1225,o),
(543,1248,o),
(709,1248,cs),
(827,1248,ls),
(947,1248,o),
(1004,1233,o),
(1008,1212,cs),
(1014,1181,o),
(1041,1176,o),
(1091,1176,cs),
(1308,1176,ls),
(1358,1176,o),
(1393,1206,o),
(1385,1259,cs),
(1353,1469,o),
(1185,1536,o),
(895,1536,cs),
(649,1536,ls),
(297,1536,o),
(129,1428,o),
(129,1224,cs),
(129,1192,ls),
(129,1090,o),
(169,1008,o),
(251,963,c),
(169,918,o),
(129,845,o),
(129,739,cs),
(129,695,ls),
(129,488,o),
(297,415,o),
(649,410,cs),
(851,407,ls),
(971,405,o),
(1009,384,o),
(1009,362,cs),
(1009,333,ls),
(1009,311,o),
(971,288,o),
(805,288,cs),
(687,288,ls),
(567,288,o),
(510,303,o),
(506,324,cs),
(500,355,o),
(473,360,o),
(423,360,cs),
(206,360,ls),
(156,360,o),
(121,330,o),
(129,277,cs),
(161,67,o),
(329,0,o),
(619,0,cs)
);
},
{
closed = 1;
nodes = (
(663,697,ls),
(543,697,o),
(505,731,o),
(505,754,cs),
(505,782,ls),
(505,804,o),
(537,839,o),
(657,839,cs),
(859,839,ls),
(979,839,o),
(1009,805,o),
(1009,782,cs),
(1009,754,ls),
(1009,732,o),
(985,697,o),
(865,697,cs)
);
}
);
width = 1514;
}
);
unicode = 167;
},
{
glyphname = copyright;
kernLeft = O;
kernRight = O;
lastChange = "2025-01-02 01:01:31 +0000";
layers = (
{
layerId = m01;
shapes = (
{
closed = 1;
nodes = (
(1140,-32,ls),
(1580,-32,o),
(1920,190,o),
(1920,744,cs),
(1920,792,ls),
(1920,1346,o),
(1580,1568,o),
(1140,1568,cs),
(908,1568,ls),
(468,1568,o),
(128,1346,o),
(128,792,cs),
(128,744,ls),
(128,190,o),
(468,-32,o),
(908,-32,cs)
);
},
{
closed = 1;
nodes = (
(540,128,o),
(320,299,o),
(320,749,cs),
(320,788,ls),
(320,1238,o),
(540,1408,o),
(929,1408,cs),
(1119,1408,ls),
(1508,1408,o),
(1728,1238,o),
(1728,788,cs),
(1728,749,ls),
(1728,299,o),
(1508,128,o),
(1119,128,cs),
(929,128,ls)
);
},
{
closed = 1;
nodes = (
(1127,284,ls),
(1345,284,o),
(1513,351,o),
(1545,561,cs),
(1553,614,o),
(1521,644,o),
(1468,644,cs),
(1451,644,ls),
(1401,644,o),
(1379,618,o),
(1368,568,cs),
(1342,453,o),
(1244,428,o),
(1113,428,cs),
(925,428,ls),
(751,428,o),
(663,467,o),
(663,755,cs),
(663,781,ls),
(663,1073,o),
(751,1112,o),
(925,1112,cs),
(1113,1112,ls),
(1244,1112,o),
(1342,1087,o),
(1368,972,cs),
(1379,922,o),
(1401,896,o),
(1451,896,cs),
(1468,896,ls),
(1521,896,o),
(1553,926,o),
(1545,979,cs),
(1513,1189,o),
(1345,1256,o),
(1127,1256,cs),
(911,1256,ls),
(655,1256,o),
(487,1172,o),
(487,784,cs),
(487,752,ls),
(487,368,o),
(655,284,o),
(911,284,cs)
);
}
);
width = 2048;
},
{
layerId = m002;
shapes = (
{
closed = 1;
nodes = (
(1140,-32,ls),
(1580,-32,o),
(1920,190,o),
(1920,744,cs),
(1920,792,ls),
(1920,1346,o),
(1580,1568,o),
(1140,1568,cs),
(908,1568,ls),
(468,1568,o),
(128,1346,o),
(128,792,cs),
(128,744,ls),
(128,190,o),
(468,-32,o),
(908,-32,cs)
);
},
{
closed = 1;
nodes = (
(708,256,o),
(488,427,o),
(488,749,cs),
(488,788,ls),
(488,1110,o),
(708,1280,o),
(924,1280,cs),
(1124,1280,ls),
(1340,1280,o),
(1560,1110,o),
(1560,788,cs),
(1560,749,ls),
(1560,427,o),
(1340,256,o),
(1124,256,cs),
(924,256,ls)
);
},
{
closed = 1;
nodes = (
(1096,384,ls),
(1290,384,o),
(1408,531,o),
(1428,683,cs),
(1432,717,o),
(1413,736,o),
(1379,736,cs),
(1194,736,ls),
(1162,736,o),
(1145,721,o),
(1140,705,cs),
(1134,684,o),
(1103,672,o),
(1027,672,cs),
(1016,672,ls),
(934,672,o),
(903,684,o),
(903,758,cs),
(903,775,ls),
(903,852,o),
(934,864,o),
(1016,864,cs),
(1027,864,ls),
(1103,864,o),
(1134,852,o),
(1140,831,cs),
(1145,815,o),
(1162,800,o),
(1194,800,cs),
(1379,800,ls),
(1413,800,o),
(1432,819,o),
(1428,853,cs),
(1408,1005,o),
(1290,1152,o),
(1096,1152,cs),
(947,1152,ls),
(744,1152,o),
(616,1026,o),
(616,777,cs),
(616,756,ls),
(616,510,o),
(744,384,o),
(947,384,cs)
);
}
);
width = 2048;
}
);
unicode = 169;
},
{
glyphname = registered;
kernLeft = O;
kernRight = O;
lastChange = "2025-01-02 01:27:12 +0000";
layers = (
{
layerId = m01;
shapes = (
{
closed = 1;
nodes = (
(128,744,ls),
(128,190,o),
(468,-32,o),
(908,-32,cs),
(1140,-32,ls),
(1580,-32,o),
(1920,190,o),
(1920,744,cs),
(1920,792,ls),
(1920,1346,o),
(1580,1568,o),
(1140,1568,cs),
(908,1568,ls),
(468,1568,o),
(128,1346,o),
(128,792,cs)
);
},
{
closed = 1;
nodes = (
(320,1238,o),
(540,1408,o),
(929,1408,cs),
(1119,1408,ls),
(1508,1408,o),
(1728,1238,o),
(1728,788,cs),
(1728,749,ls),
(1728,299,o),
(1508,128,o),
(1119,128,cs),
(929,128,ls),
(540,128,o),
(320,299,o),
(320,749,cs),
(320,788,ls)
);
},
{
closed = 1;
nodes = (
(695,271,ls),
(737,271,o),
(760,294,o),
(760,336,cs),
(760,621,l),
(984,621,l),
(1307,311,ls),
(1332,287,o),
(1352,271,o),
(1386,271,cs),
(1449,271,ls),
(1497,271,o),
(1517,313,o),
(1477,351,cs),
(1183,625,l),
(1428,641,o),
(1511,728,o),
(1511,941,cs),
(1511,947,ls),
(1511,1190,o),
(1373,1267,o),
(1061,1267,cs),
(649,1267,ls),
(607,1267,o),
(584,1244,o),
(584,1201,cs),
(584,336,ls),
(584,294,o),
(607,271,o),
(649,271,cs)
);
},
{
closed = 1;
nodes = (
(760,1123,l),
(1050,1123,ls),
(1263,1123,o),
(1335,1091,o),
(1335,945,cs),
(1335,943,ls),
(1335,797,o),
(1263,765,o),
(1050,765,cs),
(760,765,l)
);
}
);
width = 2048;
},
{
layerId = m002;
shapes = (
{
closed = 1;
nodes = (
(128,744,ls),
(128,190,o),
(468,-32,o),
(908,-32,cs),
(1140,-32,ls),
(1580,-32,o),
(1920,190,o),
(1920,744,cs),
(1920,792,ls),
(1920,1346,o),
(1580,1568,o),
(1140,1568,cs),
(908,1568,ls),
(468,1568,o),
(128,1346,o),
(128,792,cs)
);
},
{
closed = 1;
nodes = (
(488,1110,o),
(708,1280,o),
(924,1280,cs),
(1124,1280,ls),
(1340,1280,o),
(1560,1110,o),
(1560,788,cs),
(1560,749,ls),
(1560,427,o),
(1340,256,o),
(1124,256,cs),
(924,256,ls),
(708,256,o),
(488,427,o),
(488,749,cs),
(488,788,ls)
);
},
{
closed = 1;
nodes = (
(842,384,ls),
(881,384,o),
(902,405,o),
(902,444,cs),
(902,544,l),
(1024,544,l),
(1114,424,ls),
(1131,401,o),
(1144,384,o),
(1174,384,cs),
(1352,384,ls),
(1392,384,o),
(1418,409,o),
(1392,444,cs),
(1282,594,l),
(1293,602,o),
(1389,650,o),
(1389,832,cs),
(1389,864,ls),
(1389,1104,o),
(1293,1152,o),
(1076,1152,cs),
(722,1152,ls),
(683,1152,o),
(662,1138,o),
(662,1092,cs),
(662,444,ls),
(662,405,o),
(683,384,o),
(722,384,cs)
);
},
{
closed = 1;
nodes = (
(902,912,l),
(1046,912,ls),
(1133,912,o),
(1149,885,o),
(1149,857,cs),
(1149,839,ls),
(1149,811,o),
(1133,784,o),
(1046,784,cs),
(902,784,l)
);
}
);
width = 2048;
}
);
unicode = 174;
},
{
glyphname = trademark;
kernLeft = H;
kernRight = H;
lastChange = "2025-01-26 16:49:12 +0000";
layers = (
{
layerId = m01;
shapes = (
{
closed = 1;
nodes = (
(88,1448,ls),
(88,1404,o),
(116,1376,o),
(160,1376,cs),
(532,1376,l),
(532,656,ls),
(532,604,o),
(560,576,o),
(612,576,cs),
(644,576,ls),
(696,576,o),
(724,604,o),
(724,656,cs),
(724,1376,l),
(1096,1376,ls),
(1140,1376,o),
(1168,1404,o),
(1168,1448,cs),
(1168,1464,ls),
(1168,1508,o),
(1140,1536,o),
(1096,1536,cs),
(160,1536,ls),
(116,1536,o),
(88,1508,o),
(88,1464,cs)
);
},
{
closed = 1;
nodes = (
(1344,656,ls),
(1344,604,o),
(1372,576,o),
(1424,576,cs),
(1456,576,ls),
(1508,576,o),
(1536,604,o),
(1536,656,cs),
(1536,1376,l),
(1556,1376,l),
(1933,662,ls),
(1954,623,o),
(1986,608,o),
(2029,608,cs),
(2119,608,ls),
(2162,608,o),
(2194,623,o),
(2215,662,cs),
(2592,1376,l),
(2612,1376,l),
(2612,656,ls),
(2612,604,o),
(2640,576,o),
(2692,576,cs),
(2724,576,ls),
(2776,576,o),
(2804,604,o),
(2804,656,cs),
(2804,1456,ls),
(2804,1508,o),
(2776,1536,o),
(2724,1536,cs),
(2547,1536,ls),
(2504,1536,o),
(2472,1521,o),
(2451,1482,cs),
(2074,768,l),
(1697,1482,ls),
(1676,1521,o),
(1644,1536,o),
(1601,1536,cs),
(1424,1536,ls),
(1372,1536,o),
(1344,1508,o),
(1344,1456,cs)
);
}
);
width = 2900;
},
{
layerId = m002;
shapes = (
{
closed = 1;
nodes = (
(88,1368,ls),
(88,1324,o),
(116,1296,o),
(160,1296,cs),
(484,1296,l),
(484,656,ls),
(484,604,o),
(512,576,o),
(564,576,cs),
(692,576,ls),
(744,576,o),
(772,604,o),
(772,656,cs),
(772,1296,l),
(1096,1296,ls),
(1140,1296,o),
(1168,1324,o),
(1168,1368,cs),
(1168,1464,ls),
(1168,1508,o),
(1140,1536,o),
(1096,1536,cs),
(160,1536,ls),
(116,1536,o),
(88,1508,o),
(88,1464,cs)
);
},
{
closed = 1;
nodes = (
(1344,656,ls),
(1344,604,o),
(1372,576,o),
(1424,576,cs),
(1552,576,ls),
(1604,576,o),
(1632,604,o),
(1632,656,cs),
(1632,1296,l),
(1635,1296,l),
(1842,662,ls),
(1856,620,o),
(1895,608,o),
(1938,608,cs),
(2210,608,ls),
(2253,608,o),
(2292,620,o),
(2306,662,cs),
(2513,1296,l),
(2516,1296,l),
(2516,656,ls),
(2516,604,o),
(2544,576,o),
(2596,576,cs),
(2724,576,ls),
(2776,576,o),
(2804,604,o),
(2804,656,cs),
(2804,1456,ls),
(2804,1508,o),
(2776,1536,o),
(2724,1536,cs),
(2360,1536,ls),
(2317,1536,o),
(2277,1522,o),
(2264,1482,cs),
(2074,896,l),
(1884,1482,ls),
(1871,1522,o),
(1831,1536,o),
(1788,1536,cs),
(1424,1536,ls),
(1372,1536,o),
(1344,1508,o),
(1344,1456,cs)
);
}
);
width = 2900;
}
);
unicode = 8482;
},
{
glyphname = brokenbar;
kernLeft = l;
kernRight = l;
lastChange = "2025-01-04 15:59:12 +0000";
layers = (
{
layerId = m01;
shapes = (
{
closed = 1;
nodes = (
(292,0,ls),
(331,0,o),
(352,21,o),
(352,60,cs),
(352,612,ls),
(352,651,o),
(331,672,o),
(292,672,cs),
(236,672,ls),
(197,672,o),
(176,651,o),
(176,612,cs),
(176,60,ls),
(176,21,o),
(197,0,o),
(236,0,cs)
);
},
{
closed = 1;
nodes = (
(292,864,ls),
(331,864,o),
(352,885,o),
(352,924,cs),
(352,1476,ls),
(352,1515,o),
(331,1536,o),
(292,1536,cs),
(236,1536,ls),
(197,1536,o),
(176,1515,o),
(176,1476,cs),
(176,924,ls),
(176,885,o),
(197,864,o),
(236,864,cs)
);
}
);
width = 528;
},
{
layerId = m002;
shapes = (
{
closed = 1;
nodes = (
(512,0,ls),
(551,0,o),
(572,21,o),
(572,60,cs),
(572,612,ls),
(572,651,o),
(551,672,o),
(512,672,cs),
(236,672,ls),
(197,672,o),
(176,651,o),
(176,612,cs),
(176,60,ls),
(176,21,o),
(197,0,o),
(236,0,cs)
);
},
{
closed = 1;
nodes = (
(512,864,ls),
(551,864,o),
(572,885,o),
(572,924,cs),
(572,1476,ls),
(572,1515,o),
(551,1536,o),
(512,1536,cs),
(236,1536,ls),
(197,1536,o),
(176,1515,o),
(176,1476,cs),
(176,924,ls),
(176,885,o),
(197,864,o),
(236,864,cs)
);
}
);
width = 748;
}
);
unicode = 166;
},
{
glyphname = dagger;
kernLeft = l;
kernRight = l;
lastChange = "2025-01-04 16:17:41 +0000";
layers = (
{
layerId = m01;
shapes = (
{
closed = 1;
nodes = (
(410,512,ls),
(462,512,o),
(490,540,o),
(490,592,cs),
(490,1172,l),
(658,1172,ls),
(710,1172,o),
(738,1200,o),
(738,1236,cs),
(738,1252,ls),
(738,1288,o),
(710,1316,o),
(658,1316,cs),
(490,1316,l),
(490,1456,ls),
(490,1508,o),
(462,1536,o),
(410,1536,cs),
(394,1536,ls),
(342,1536,o),
(314,1508,o),
(314,1456,cs),
(314,1316,l),
(146,1316,ls),
(94,1316,o),
(66,1288,o),
(66,1252,cs),
(66,1236,ls),
(66,1200,o),
(94,1172,o),
(146,1172,cs),
(314,1172,l),
(314,592,ls),
(314,540,o),
(342,512,o),
(394,512,cs)
);
}
);
width = 804;
},
{
layerId = m002;
shapes = (
{
closed = 1;
nodes = (
(502,512,ls),
(554,512,o),
(582,540,o),
(582,592,cs),
(582,1120,l),
(658,1120,ls),
(710,1120,o),
(738,1148,o),
(738,1184,cs),
(738,1344,ls),
(738,1380,o),
(710,1408,o),
(658,1408,cs),
(582,1408,l),
(582,1456,ls),
(582,1508,o),
(554,1536,o),
(502,1536,cs),
(302,1536,ls),
(250,1536,o),
(222,1508,o),
(222,1456,cs),
(222,1408,l),
(146,1408,ls),
(94,1408,o),
(66,1380,o),
(66,1344,cs),
(66,1184,ls),
(66,1148,o),
(94,1120,o),
(146,1120,cs),
(222,1120,l),
(222,592,ls),
(222,540,o),
(250,512,o),
(302,512,cs)
);
}
);
width = 804;
}
);
unicode = 8224;
},
{
glyphname = daggerdbl;
kernLeft = l;
kernRight = l;
lastChange = "2025-01-04 16:17:29 +0000";
layers = (
{
layerId = m01;
shapes = (
{
closed = 1;
nodes = (
(410,512,ls),
(462,512,o),
(490,540,o),
(490,592,cs),
(490,880,l),
(658,880,ls),
(710,880,o),
(738,908,o),
(738,944,cs),
(738,960,ls),
(738,996,o),
(710,1024,o),
(658,1024,cs),
(490,1024,l),
(490,1172,l),
(658,1172,ls),
(710,1172,o),
(738,1200,o),
(738,1236,cs),
(738,1252,ls),
(738,1288,o),
(710,1316,o),
(658,1316,cs),
(490,1316,l),
(490,1456,ls),
(490,1508,o),
(462,1536,o),
(410,1536,cs),
(394,1536,ls),
(342,1536,o),
(314,1508,o),
(314,1456,cs),
(314,1316,l),
(146,1316,ls),
(94,1316,o),
(66,1288,o),
(66,1252,cs),
(66,1236,ls),
(66,1200,o),
(94,1172,o),
(146,1172,cs),
(314,1172,l),
(314,1024,l),
(146,1024,ls),
(94,1024,o),
(66,996,o),
(66,960,cs),
(66,944,ls),
(66,908,o),
(94,880,o),
(146,880,cs),
(314,880,l),
(314,592,ls),
(314,540,o),
(342,512,o),
(394,512,cs)
);
}
);
width = 804;
},
{
layerId = m002;
shapes = (
{
closed = 1;
nodes = (
(502,512,ls),
(554,512,o),
(582,540,o),
(582,592,cs),
(582,768,l),
(658,768,ls),
(710,768,o),
(738,796,o),
(738,832,cs),
(738,992,ls),
(738,1028,o),
(710,1056,o),
(658,1056,cs),
(582,1056,l),
(582,1120,l),
(658,1120,ls),
(710,1120,o),
(738,1148,o),
(738,1184,cs),
(738,1344,ls),
(738,1380,o),
(710,1408,o),
(658,1408,cs),
(582,1408,l),
(582,1456,ls),
(582,1508,o),
(554,1536,o),
(502,1536,cs),
(302,1536,ls),
(250,1536,o),
(222,1508,o),
(222,1456,cs),
(222,1408,l),
(146,1408,ls),
(94,1408,o),
(66,1380,o),
(66,1344,cs),
(66,1184,ls),
(66,1148,o),
(94,1120,o),
(146,1120,cs),
(222,1120,l),
(222,1056,l),
(146,1056,ls),
(94,1056,o),
(66,1028,o),
(66,992,cs),
(66,832,ls),
(66,796,o),
(95,768,o),
(146,768,cs),
(222,768,l),
(222,592,ls),
(222,540,o),
(250,512,o),
(302,512,cs)
);
}
);
width = 804;
}
);
unicode = 8225;
},
{
glyphname = numero;
lastChange = "2025-01-27 05:11:32 +0000";
layers = (
{
layerId = m01;
shapes = (
{
closed = 1;
nodes = (
(256,0,ls),
(308,0,o),
(336,28,o),
(336,80,cs),
(336,1360,l),
(364,1360,l),
(1384,41,ls),
(1409,8,o),
(1442,0,o),
(1483,0,cs),
(1616,0,ls),
(1668,0,o),
(1696,28,o),
(1696,80,cs),
(1696,1456,ls),
(1696,1508,o),
(1668,1536,o),
(1616,1536,cs),
(1600,1536,ls),
(1548,1536,o),
(1520,1508,o),
(1520,1456,cs),
(1520,176,l),
(1492,176,l),
(472,1495,ls),
(447,1528,o),
(414,1536,o),
(373,1536,cs),
(240,1536,ls),
(188,1536,o),
(160,1508,o),
(160,1456,cs),
(160,80,ls),
(160,28,o),
(188,0,o),
(240,0,cs)
);
},
{
alignment = -1;
pos = (1720,0);
ref = zerosuperior;
},
{
closed = 1;
nodes = (
(1930,398,ls),
(1930,359,o),
(1951,338,o),
(1990,338,cs),
(2702,338,ls),
(2741,338,o),
(2762,359,o),
(2762,398,cs),
(2762,406,ls),
(2762,445,o),
(2741,466,o),
(2702,466,cs),
(1990,466,ls),
(1951,466,o),
(1930,445,o),
(1930,406,cs)
);
}
);
width = 3002;
},
{
layerId = m002;
shapes = (
{
closed = 1;
nodes = (
(476,0,ls),
(528,0,o),
(556,28,o),
(556,80,cs),
(556,1126,l),
(556,1126,l),
(1012,41,ls),
(1028,4,o),
(1070,0,o),
(1111,0,cs),
(1616,0,ls),
(1668,0,o),
(1696,28,o),
(1696,80,cs),
(1696,1456,ls),
(1696,1508,o),
(1668,1536,o),
(1616,1536,cs),
(1380,1536,ls),
(1328,1536,o),
(1300,1508,o),
(1300,1456,cs),
(1300,410,l),
(1300,410,l),
(844,1495,ls),
(828,1533,o),
(786,1536,o),
(745,1536,cs),
(240,1536,ls),
(188,1536,o),
(160,1508,o),
(160,1456,cs),
(160,80,ls),
(160,28,o),
(188,0,o),
(240,0,cs)
);
},
{
alignment = -1;
pos = (1720,0);
ref = zerosuperior;
},
{
closed = 1;
nodes = (
(1930,238,ls),
(1930,199,o),
(1951,178,o),
(1990,178,cs),
(2702,178,ls),
(2741,178,o),
(2762,199,o),
(2762,238,cs),
(2762,406,ls),
(2762,445,o),
(2741,466,o),
(2702,466,cs),
(1990,466,ls),
(1951,466,o),
(1930,445,o),
(1930,406,cs)
);
}
);
width = 3002;
}
);
unicode = 8470;
},
{
glyphname = cent;
kernLeft = c;
kernRight = c;
lastChange = "2025-02-02 00:45:40 +0000";
layers = (
{
layerId = m01;
shapes = (
{
ref = c;
},
{
closed = 1;
nodes = (
(644,-176,ls),
(644,-228,o),
(672,-256,o),
(724,-256,cs),
(740,-256,ls),
(792,-256,o),
(820,-228,o),
(820,-176,cs),
(820,1200,ls),
(820,1252,o),
(792,1280,o),
(740,1280,cs),
(724,1280,ls),
(672,1280,o),
(644,1252,o),
(644,1200,cs)
);
}
);
width = 1443;
},
{
layerId = m002;
shapes = (
{
ref = c;
},
{
closed = 1;
nodes = (
(651,-112,ls),
(651,-164,o),
(679,-192,o),
(731,-192,cs),
(931,-192,ls),
(983,-192,o),
(1011,-164,o),
(1011,-112,cs),
(1011,1264,ls),
(1011,1316,o),
(983,1344,o),
(931,1344,cs),
(731,1344,ls),
(679,1344,o),
(651,1316,o),
(651,1264,cs)
);
}
);
width = 1662;
}
);
unicode = 162;
},
{
glyphname = currency;
kernLeft = z;
kernRight = z;
lastChange = "2025-01-04 16:15:31 +0000";
layers = (
{
anchors = (
{
name = bottom;
pos = (744,276);
},
{
name = center;
pos = (744,768);
},
{
name = ogonek;
pos = (1272,282);
},
{
name = top;
pos = (744,1259);
},
{
name = topleft;
pos = (96,1259);
},
{
name = topright;
pos = (1391,1259);
}
);
layerId = m01;
shapes = (
{
closed = 1;
nodes = (
(156,79,o),
(195,79,o),
(232,115,cs),
(420,303,l),
(493,271,o),
(608,256,o),
(700,256,cs),
(793,256,ls),
(884,256,o),
(999,271,o),
(1072,303,c),
(1260,115,ls),
(1288,88,o),
(1336,79,o),
(1373,115,cs),
(1399,141,ls),
(1435,178,o),
(1426,226,o),
(1399,254,cs),
(1228,425,l),
(1287,503,o),
(1322,611,o),
(1322,752,cs),
(1322,783,ls),
(1322,924,o),
(1287,1032,o),
(1228,1111,c),
(1399,1282,ls),
(1426,1310,o),
(1435,1358,o),
(1399,1395,cs),
(1373,1421,ls),
(1336,1457,o),
(1288,1448,o),
(1260,1421,cs),
(1072,1233,l),
(999,1265,o),
(884,1280,o),
(793,1280,cs),
(700,1280,ls),
(608,1280,o),
(493,1265,o),
(421,1232,c),
(232,1421,ls),
(195,1457,o),
(156,1457,o),
(119,1421,cs),
(93,1395,ls),
(57,1358,o),
(57,1319,o),
(93,1282,cs),
(265,1110,l),
(205,1032,o),
(170,924,o),
(170,783,cs),
(170,752,ls),
(170,611,o),
(205,503,o),
(264,425,c),
(93,254,ls),
(57,217,o),
(57,178,o),
(93,141,cs),
(119,115,ls)
);
},
{
closed = 1;
nodes = (
(503,432,o),
(362,532,o),
(362,756,cs),
(362,780,ls),
(362,1004,o),
(504,1104,o),
(683,1104,cs),
(810,1104,ls),
(990,1104,o),
(1130,1004,o),
(1130,780,cs),
(1130,756,ls),
(1130,532,o),
(990,432,o),
(810,432,cs),
(683,432,ls)
);
}
);
width = 1489;
},
{
anchors = (
{
name = bottom;
pos = (744,276);
},
{
name = center;
pos = (744,768);
},
{
name = ogonek;
pos = (1272,282);
},
{
name = top;
pos = (744,1259);
},
{
name = topleft;
pos = (96,1259);
},
{
name = topright;
pos = (1391,1259);
}
);
layerId = m002;
shapes = (
{
closed = 1;
nodes = (
(226,8,o),
(266,8,o),
(303,45,cs),
(491,233,l),
(564,200,o),
(634,185,o),
(726,185,cs),
(766,185,ls),
(858,185,o),
(928,200,o),
(1001,233,c),
(1189,45,ls),
(1217,17,o),
(1266,8,o),
(1302,45,cs),
(1469,212,ls),
(1506,248,o),
(1497,297,o),
(1469,325,cs),
(1298,496,l),
(1348,574,o),
(1365,651,o),
(1365,752,cs),
(1365,783,ls),
(1365,874,o),
(1348,961,o),
(1298,1040,c),
(1469,1211,ls),
(1497,1239,o),
(1506,1288,o),
(1469,1324,cs),
(1302,1491,ls),
(1266,1528,o),
(1217,1519,o),
(1189,1491,cs),
(1001,1303,l),
(928,1336,o),
(858,1351,o),
(766,1351,cs),
(726,1351,ls),
(634,1351,o),
(564,1336,o),
(491,1303,c),
(303,1491,ls),
(266,1528,o),
(226,1528,o),
(190,1491,cs),
(23,1324,ls),
(-14,1288,o),
(-14,1248,o),
(23,1211,cs),
(194,1040,l),
(144,961,o),
(127,874,o),
(127,783,cs),
(127,752,ls),
(127,651,o),
(144,574,o),
(194,496,c),
(23,325,ls),
(-14,288,o),
(-14,248,o),
(23,212,cs),
(190,45,ls)
);
},
{
closed = 1;
nodes = (
(565,580,o),
(494,630,o),
(494,756,cs),
(494,780,ls),
(494,906,o),
(566,956,o),
(683,956,cs),
(810,956,ls),
(928,956,o),
(998,906,o),
(998,780,cs),
(998,756,ls),
(998,630,o),
(928,580,o),
(810,580,cs),
(683,580,ls)
);
}
);
width = 1489;
}
);
unicode = 164;
},
{
glyphname = dollar;
kernLeft = O;
kernRight = O;
lastChange = "2025-01-02 01:34:27 +0000";
layers = (
{
layerId = m01;
shapes = (
{
ref = S;
},
{
closed = 1;
nodes = (
(793,-112,ls),
(793,-164,o),
(821,-192,o),
(873,-192,cs),
(905,-192,ls),
(957,-192,o),
(985,-164,o),
(985,-112,cs),
(985,1648,ls),
(985,1700,o),
(957,1728,o),
(905,1728,cs),
(873,1728,ls),
(821,1728,o),
(793,1700,o),
(793,1648,cs)
);
},
{
closed = 1;
nodes = (
(1161,-112,ls),
(1161,-164,o),
(1189,-192,o),
(1241,-192,cs),
(1273,-192,ls),
(1325,-192,o),
(1353,-164,o),
(1353,-112,cs),
(1353,1648,ls),
(1353,1700,o),
(1325,1728,o),
(1273,1728,cs),
(1241,1728,ls),
(1189,1728,o),
(1161,1700,o),
(1161,1648,cs)
);
}
);
width = 2210;
},
{
layerId = m002;
shapes = (
{
ref = S;
},
{
closed = 1;
nodes = (
(661,-112,ls),
(661,-164,o),
(689,-192,o),
(741,-192,cs),
(977,-192,ls),
(1029,-192,o),
(1057,-164,o),
(1057,-112,cs),
(1057,1648,ls),
(1057,1700,o),
(1029,1728,o),
(977,1728,cs),
(741,1728,ls),
(689,1728,o),
(661,1700,o),
(661,1648,cs)
);
},
{
closed = 1;
nodes = (
(1153,-112,ls),
(1153,-164,o),
(1181,-192,o),
(1233,-192,cs),
(1469,-192,ls),
(1521,-192,o),
(1549,-164,o),
(1549,-112,cs),
(1549,1648,ls),
(1549,1700,o),
(1521,1728,o),
(1469,1728,cs),
(1233,1728,ls),
(1181,1728,o),
(1153,1700,o),
(1153,1648,cs)
);
}
);
width = 2210;
}
);
unicode = 36;
},
{
glyphname = euro;
kernLeft = O;
kernRight = O;
lastChange = "2025-01-13 02:08:37 +0000";
layers = (
{
layerId = m01;
shapes = (
{
closed = 1;
nodes = (
(250,736,ls),
(250,182,o),
(590,-32,o),
(934,-32,cs),
(1262,-32,ls),
(1584,-32,o),
(1693,12,o),
(1835,149,cs),
(1872,186,o),
(1867,227,o),
(1827,261,cs),
(1809,276,ls),
(1770,309,o),
(1734,304,o),
(1697,267,cs),
(1594,168,o),
(1531,128,o),
(1241,128,cs),
(955,128,ls),
(662,128,o),
(442,275,o),
(442,741,cs),
(442,788,ls),
(442,1254,o),
(662,1408,o),
(955,1408,cs),
(1241,1408,ls),
(1531,1408,o),
(1594,1368,o),
(1698,1269,cs),
(1735,1232,o),
(1769,1226,o),
(1809,1260,cs),
(1827,1275,ls),
(1867,1309,o),
(1872,1350,o),
(1835,1387,cs),
(1693,1524,o),
(1584,1568,o),
(1262,1568,cs),
(934,1568,ls),
(590,1568,o),
(250,1346,o),
(250,792,cs)
);
},
{
closed = 1;
nodes = (
(1401,512,ls),
(1446,512,o),
(1476,531,o),
(1495,579,cs),
(1505,605,ls),
(1523,651,o),
(1500,672,o),
(1440,672,cs),
(175,672,ls),
(130,672,o),
(102,653,o),
(83,605,cs),
(73,579,ls),
(55,533,o),
(76,512,o),
(136,512,cs)
);
},
{
closed = 1;
nodes = (
(1540,864,ls),
(1585,864,o),
(1615,883,o),
(1634,931,cs),
(1644,957,ls),
(1662,1003,o),
(1639,1024,o),
(1579,1024,cs),
(190,1024,ls),
(145,1024,o),
(117,1005,o),
(98,957,cs),
(88,931,ls),
(70,885,o),
(91,864,o),
(151,864,cs)
);
}
);
width = 1988;
},
{
layerId = m002;
shapes = (
{
closed = 1;
nodes = (
(250,736,ls),
(250,182,o),
(590,-32,o),
(934,-32,cs),
(1334,-32,ls),
(1656,-32,o),
(1693,73,o),
(1835,210,cs),
(1872,247,o),
(1868,287,o),
(1827,322,cs),
(1645,476,ls),
(1605,510,o),
(1570,504,o),
(1533,467,cs),
(1430,368,o),
(1367,328,o),
(1177,328,cs),
(1055,328,ls),
(862,328,o),
(682,475,o),
(682,741,cs),
(682,788,ls),
(682,1054,o),
(862,1208,o),
(1055,1208,cs),
(1177,1208,ls),
(1367,1208,o),
(1430,1168,o),
(1534,1069,cs),
(1571,1032,o),
(1604,1025,o),
(1645,1060,cs),
(1827,1214,ls),
(1868,1249,o),
(1872,1289,o),
(1835,1326,cs),
(1693,1463,o),
(1556,1568,o),
(1234,1568,cs),
(934,1568,ls),
(590,1568,o),
(250,1346,o),
(250,792,cs)
);
},
{
closed = 1;
nodes = (
(1099,430,ls),
(1144,430,o),
(1174,448,o),
(1193,497,cs),
(1253,651,ls),
(1271,698,o),
(1248,718,o),
(1188,718,cs),
(179,718,ls),
(134,718,o),
(106,700,o),
(87,651,cs),
(27,497,ls),
(9,450,o),
(30,430,o),
(90,430,cs)
);
},
{
closed = 1;
nodes = (
(1189,818,ls),
(1234,818,o),
(1264,836,o),
(1283,885,cs),
(1343,1039,ls),
(1361,1086,o),
(1338,1106,o),
(1278,1106,cs),
(207,1106,ls),
(162,1106,o),
(134,1088,o),
(115,1039,cs),
(55,885,ls),
(37,838,o),
(58,818,o),
(118,818,cs)
);
}
);
width = 1988;
}
);
unicode = 8364;
},
{
glyphname = sterling;
kernLeft = f;
kernRight = H;
lastChange = "2025-01-13 01:50:13 +0000";
layers = (
{
layerId = m01;
shapes = (
{
closed = 1;
nodes = (
(1762,0,ls),
(1806,0,o),
(1826,28,o),
(1826,72,cs),
(1826,88,ls),
(1826,132,o),
(1806,160,o),
(1762,160,cs),
(502,160,l),
(540,264,o),
(546,397,o),
(546,608,c),
(1210,608,ls),
(1254,608,o),
(1282,636,o),
(1282,680,cs),
(1282,696,ls),
(1282,740,o),
(1254,768,o),
(1210,768,cs),
(546,768,l),
(546,1318,o),
(679,1376,o),
(1035,1376,cs),
(1052,1376,ls),
(1388,1376,o),
(1519,1318,o),
(1539,1009,cs),
(1542,956,o),
(1569,928,o),
(1620,928,cs),
(1652,928,ls),
(1704,928,o),
(1734,957,o),
(1730,1011,cs),
(1702,1411,o),
(1481,1536,o),
(1073,1536,cs),
(1014,1536,ls),
(606,1536,o),
(354,1411,o),
(354,768,c),
(138,768,ls),
(94,768,o),
(66,740,o),
(66,696,cs),
(66,680,ls),
(66,636,o),
(94,608,o),
(138,608,cs),
(354,608,l),
(354,332,o),
(351,176,o),
(244,161,cs),
(241,161,o),
(237,160,o),
(234,160,c),
(182,160,o),
(162,132,o),
(162,88,cs),
(162,72,ls),
(162,28,o),
(182,0,o),
(234,0,cs)
);
}
);
width = 1958;
},
{
layerId = m002;
shapes = (
{
closed = 1;
nodes = (
(1762,0,ls),
(1806,0,o),
(1826,28,o),
(1826,72,cs),
(1826,288,ls),
(1826,332,o),
(1806,360,o),
(1762,360,cs),
(779,360,l),
(783,389,o),
(786,463,o),
(786,508,c),
(1210,508,ls),
(1254,508,o),
(1282,536,o),
(1282,580,cs),
(1282,796,ls),
(1282,840,o),
(1254,868,o),
(1210,868,cs),
(786,868,l),
(786,1118,o),
(859,1176,o),
(1035,1176,cs),
(1112,1176,ls),
(1268,1176,o),
(1339,1118,o),
(1359,1009,cs),
(1369,957,o),
(1389,928,o),
(1440,928,cs),
(1712,928,ls),
(1764,928,o),
(1794,957,o),
(1790,1011,cs),
(1762,1411,o),
(1541,1536,o),
(1133,1536,cs),
(1014,1536,ls),
(606,1536,o),
(354,1411,o),
(354,868,c),
(138,868,ls),
(94,868,o),
(66,840,o),
(66,796,cs),
(66,580,ls),
(66,536,o),
(94,508,o),
(138,508,cs),
(354,508,l),
(351,391,o),
(350,376,o),
(348,359,cs),
(348,359,o),
(234,360,o),
(234,360,c),
(182,360,o),
(162,332,o),
(162,288,cs),
(162,72,ls),
(162,28,o),
(182,0,o),
(234,0,cs)
);
}
);
width = 1958;
}
);
unicode = 163;
},
{
glyphname = won;
kernLeft = W;
kernRight = W;
lastChange = "2025-01-13 01:30:15 +0000";
layers = (
{
layerId = m01;
shapes = (
{
pos = (56,0);
ref = W;
},
{
closed = 1;
nodes = (
(199,924,ls),
(199,885,o),
(220,864,o),
(251,864,cs),
(3243,864,ls),
(3284,864,o),
(3305,885,o),
(3305,924,cs),
(3305,964,ls),
(3305,1003,o),
(3284,1024,o),
(3243,1024,cs),
(251,1024,ls),
(220,1024,o),
(199,1003,o),
(199,964,cs)
);
},
{
closed = 1;
nodes = (
(199,572,ls),
(199,533,o),
(220,512,o),
(251,512,cs),
(3243,512,ls),
(3284,512,o),
(3305,533,o),
(3305,572,cs),
(3305,612,ls),
(3305,651,o),
(3284,672,o),
(3243,672,cs),
(251,672,ls),
(220,672,o),
(199,651,o),
(199,612,cs)
);
}
);
width = 3392;
},
{
layerId = m002;
shapes = (
{
pos = (56,0);
ref = W;
},
{
closed = 1;
nodes = (
(199,880,ls),
(199,841,o),
(220,820,o),
(251,820,cs),
(3243,820,ls),
(3284,820,o),
(3305,841,o),
(3305,880,cs),
(3305,1084,ls),
(3305,1123,o),
(3284,1144,o),
(3243,1144,cs),
(251,1144,ls),
(220,1144,o),
(199,1123,o),
(199,1084,cs)
);
},
{
closed = 1;
nodes = (
(199,428,ls),
(199,389,o),
(220,368,o),
(251,368,cs),
(3243,368,ls),
(3284,368,o),
(3305,389,o),
(3305,428,cs),
(3305,632,ls),
(3305,671,o),
(3284,692,o),
(3243,692,cs),
(251,692,ls),
(220,692,o),
(199,671,o),
(199,632,cs)
);
}
);
width = 3392;
}
);
unicode = 8361;
},
{
glyphname = plus;
lastChange = "2025-01-04 16:18:52 +0000";
layers = (
{
layerId = m01;
shapes = (
{
closed = 1;
nodes = (
(714,256,ls),
(766,256,o),
(784,274,o),
(784,336,cs),
(784,688,l),
(1220,688,ls),
(1259,688,o),
(1280,709,o),
(1280,748,cs),
(1280,788,ls),
(1280,827,o),
(1259,848,o),
(1220,848,cs),
(784,848,l),
(784,1210,ls),
(784,1262,o),
(766,1280,o),
(714,1280,cs),
(662,1280,ls),
(610,1280,o),
(592,1262,o),
(592,1210,cs),
(592,848,l),
(156,848,ls),
(117,848,o),
(96,827,o),
(96,788,cs),
(96,748,ls),
(96,709,o),
(117,688,o),
(156,688,cs),
(592,688,l),
(592,336,ls),
(592,274,o),
(610,256,o),
(662,256,cs)
);
}
);
width = 1376;
},
{
layerId = m002;
shapes = (
{
closed = 1;
nodes = (
(816,256,ls),
(868,256,o),
(886,274,o),
(886,336,cs),
(886,606,l),
(1220,606,ls),
(1259,606,o),
(1280,627,o),
(1280,666,cs),
(1280,870,ls),
(1280,909,o),
(1259,930,o),
(1220,930,cs),
(886,930,l),
(886,1210,ls),
(886,1262,o),
(868,1280,o),
(816,1280,cs),
(560,1280,ls),
(508,1280,o),
(490,1262,o),
(490,1210,cs),
(490,930,l),
(156,930,ls),
(117,930,o),
(96,909,o),
(96,870,cs),
(96,666,ls),
(96,627,o),
(117,606,o),
(156,606,cs),
(490,606,l),
(490,336,ls),
(490,274,o),
(508,256,o),
(560,256,cs)
);
}
);
width = 1376;
}
);
unicode = 43;
},
{
glyphname = multiply;
lastChange = "2025-01-04 16:20:03 +0000";
layers = (
{
layerId = m01;
shapes = (
{
closed = 1;
nodes = (
(154,302,o),
(183,302,o),
(211,330,cs),
(525,644,l),
(839,330,ls),
(867,302,o),
(896,302,o),
(924,330,cs),
(963,369,ls),
(991,397,o),
(991,426,o),
(963,454,cs),
(649,768,l),
(963,1082,ls),
(991,1110,o),
(991,1139,o),
(963,1167,cs),
(924,1206,ls),
(896,1234,o),
(867,1234,o),
(839,1206,cs),
(525,892,l),
(211,1206,ls),
(183,1234,o),
(154,1234,o),
(126,1206,cs),
(87,1167,ls),
(59,1139,o),
(59,1110,o),
(87,1082,cs),
(401,768,l),
(87,454,ls),
(59,426,o),
(59,397,o),
(87,369,cs),
(126,330,ls)
);
}
);
width = 1050;
},
{
layerId = m002;
shapes = (
{
closed = 1;
nodes = (
(324,217,o),
(353,217,o),
(381,245,cs),
(610,474,l),
(839,245,ls),
(867,217,o),
(896,217,o),
(924,245,cs),
(1133,454,ls),
(1161,482,o),
(1161,511,o),
(1133,539,cs),
(904,768,l),
(1133,997,ls),
(1161,1025,o),
(1161,1054,o),
(1133,1082,cs),
(924,1291,ls),
(896,1319,o),
(867,1319,o),
(839,1291,cs),
(610,1062,l),
(381,1291,ls),
(353,1319,o),
(324,1319,o),
(296,1291,cs),
(87,1082,ls),
(59,1054,o),
(59,1025,o),
(87,997,cs),
(316,768,l),
(87,539,ls),
(59,511,o),
(59,482,o),
(87,454,cs),
(296,245,ls)
);
}
);
width = 1220;
}
);
unicode = 215;
},
{
glyphname = less;
lastChange = "2025-01-02 01:41:10 +0000";
layers = (
{
layerId = m01;
shapes = (
{
closed = 1;
nodes = (
(88,745,ls),
(88,706,o),
(104,679,o),
(138,659,cs),
(1184,55,ls),
(1239,23,o),
(1280,48,o),
(1280,111,cs),
(1280,139,ls),
(1280,183,o),
(1263,213,o),
(1225,235,cs),
(301,768,l),
(1225,1301,ls),
(1263,1323,o),
(1280,1353,o),
(1280,1397,cs),
(1280,1435,ls),
(1280,1493,o),
(1239,1513,o),
(1184,1481,cs),
(138,877,ls),
(104,857,o),
(88,830,o),
(88,791,cs)
);
}
);
width = 1368;
},
{
layerId = m002;
shapes = (
{
closed = 1;
nodes = (
(88,617,ls),
(88,578,o),
(104,551,o),
(138,531,cs),
(1184,-72,ls),
(1239,-104,o),
(1280,-79,o),
(1280,-16,cs),
(1280,266,ls),
(1280,310,o),
(1263,340,o),
(1225,362,cs),
(520,768,l),
(1225,1174,ls),
(1263,1196,o),
(1280,1226,o),
(1280,1270,cs),
(1280,1562,ls),
(1280,1620,o),
(1239,1640,o),
(1184,1608,cs),
(138,1005,ls),
(104,985,o),
(88,958,o),
(88,919,cs)
);
}
);
width = 1368;
}
);
unicode = 60;
},
{
glyphname = asciitilde;
lastChange = "2025-01-26 23:32:40 +0000";
layers = (
{
layerId = m01;
shapes = (
{
closed = 1;
nodes = (
(179,641,ls),
(214,641,o),
(236,659,o),
(253,691,cs),
(258,700,o),
(264,710,o),
(273,717,cs),
(312,747,o),
(365,748,o),
(403,710,cs),
(503,610,o),
(685,618,o),
(784,717,cs),
(817,750,o),
(842,789,o),
(855,831,cs),
(868,871,o),
(842,895,o),
(801,895,cs),
(751,895,ls),
(716,895,o),
(694,877,o),
(677,845,cs),
(672,836,o),
(666,826,o),
(657,819,cs),
(619,788,o),
(561,788,o),
(523,826,cs),
(423,926,o),
(246,919,o),
(146,819,cs),
(114,787,o),
(89,747,o),
(75,705,cs),
(62,665,o),
(88,641,o),
(129,641,cs)
);
}
);
width = 930;
},
{
layerId = m002;
shapes = (
{
closed = 1;
nodes = (
(318,610,ls),
(369,610,o),
(398,655,o),
(398,655,cs),
(398,655,o),
(398,655,o),
(398,655,cs),
(410,668,o),
(429,668,o),
(442,656,cs),
(579,518,o),
(804,518,o),
(942,655,cs),
(995,708,o),
(1028,774,o),
(1040,844,cs),
(1048,896,o),
(1014,925,o),
(962,925,cs),
(795,925,ls),
(744,925,o),
(715,880,o),
(715,880,cs),
(715,880,o),
(715,880,o),
(715,880,cs),
(703,867,o),
(681,869,o),
(669,881,cs),
(532,1018,o),
(309,1017,o),
(171,880,cs),
(118,828,o),
(85,761,o),
(73,691,cs),
(64,639,o),
(99,610,o),
(151,610,cs)
);
}
);
width = 1113;
}
);
unicode = 126;
},
{
glyphname = logicalnot;
lastChange = "2025-01-04 16:21:08 +0000";
layers = (
{
layerId = m01;
shapes = (
{
closed = 1;
nodes = (
(1030,344,ls),
(1069,344,o),
(1090,365,o),
(1090,404,cs),
(1090,796,ls),
(1090,835,o),
(1069,856,o),
(1030,856,cs),
(126,856,ls),
(87,856,o),
(66,835,o),
(66,796,cs),
(66,740,ls),
(66,701,o),
(87,680,o),
(126,680,cs),
(914,680,l),
(914,404,ls),
(914,365,o),
(935,344,o),
(974,344,cs)
);
}
);
width = 1156;
},
{
layerId = m002;
shapes = (
{
closed = 1;
nodes = (
(1030,244,ls),
(1069,244,o),
(1090,265,o),
(1090,304,cs),
(1090,796,ls),
(1090,835,o),
(1069,856,o),
(1030,856,cs),
(126,856,ls),
(87,856,o),
(66,835,o),
(66,796,cs),
(66,592,ls),
(66,553,o),
(87,532,o),
(126,532,cs),
(694,532,l),
(694,304,ls),
(694,265,o),
(715,244,o),
(754,244,cs)
);
}
);
width = 1156;
}
);
unicode = 172;
},
{
glyphname = infinity;
lastChange = "2025-01-04 18:05:48 +0000";
layers = (
{
layerId = m01;
shapes = (
{
closed = 1;
nodes = (
(699,256,ls),
(836,256,o),
(958,281,o),
(1049,372,c),
(1315,650,l),
(1581,372,l),
(1672,281,o),
(1794,256,o),
(1931,256,cs),
(2046,256,ls),
(2321,256,o),
(2534,395,o),
(2534,753,cs),
(2534,783,ls),
(2534,1141,o),
(2321,1280,o),
(2046,1280,cs),
(1931,1280,ls),
(1794,1280,o),
(1672,1256,o),
(1581,1164,c),
(1315,886,l),
(1049,1164,l),
(958,1256,o),
(836,1280,o),
(699,1280,cs),
(584,1280,ls),
(309,1280,o),
(96,1141,o),
(96,783,cs),
(96,753,ls),
(96,395,o),
(309,256,o),
(584,256,cs)
);
},
{
closed = 1;
nodes = (
(272,781,ls),
(272,1040,o),
(410,1136,o),
(597,1136,cs),
(685,1136,ls),
(762,1136,o),
(857,1118,o),
(930,1045,c),
(1195,768,l),
(930,491,l),
(855,416,o),
(780,400,o),
(685,400,cs),
(597,400,ls),
(410,400,o),
(272,497,o),
(272,756,cs)
);
},
{
closed = 1;
nodes = (
(1700,1045,l),
(1773,1118,o),
(1868,1136,o),
(1945,1136,cs),
(2033,1136,ls),
(2220,1136,o),
(2358,1040,o),
(2358,781,cs),
(2358,756,ls),
(2358,497,o),
(2220,400,o),
(2033,400,cs),
(1945,400,ls),
(1850,400,o),
(1775,416,o),
(1700,491,c),
(1435,768,l)
);
}
);
width = 2630;
},
{
layerId = m002;
shapes = (
{
closed = 1;
nodes = (
(699,127,ls),
(836,127,o),
(958,143,o),
(1049,234,c),
(1315,500,l),
(1581,234,l),
(1672,143,o),
(1794,127,o),
(1931,127,cs),
(2046,127,ls),
(2321,127,o),
(2534,395,o),
(2534,753,cs),
(2534,783,ls),
(2534,1141,o),
(2321,1410,o),
(2046,1410,cs),
(1931,1410,ls),
(1794,1410,o),
(1672,1394,o),
(1581,1302,c),
(1315,1036,l),
(1049,1302,l),
(958,1394,o),
(836,1410,o),
(699,1410,cs),
(584,1410,ls),
(309,1410,o),
(96,1141,o),
(96,783,cs),
(96,753,ls),
(96,395,o),
(309,127,o),
(584,127,cs)
);
},
{
closed = 1;
nodes = (
(492,781,ls),
(492,1020,o),
(580,1086,o),
(647,1086,cs),
(673,1086,ls),
(727,1086,o),
(887,928,o),
(930,885,c),
(1047,768,l),
(930,652,l),
(887,609,o),
(727,451,o),
(673,451,cs),
(647,451,ls),
(580,451,o),
(492,517,o),
(492,756,cs)
);
},
{
closed = 1;
nodes = (
(1700,885,l),
(1743,928,o),
(1903,1086,o),
(1957,1086,cs),
(1983,1086,ls),
(2050,1086,o),
(2138,1020,o),
(2138,781,cs),
(2138,756,ls),
(2138,527,o),
(2050,451,o),
(1983,451,cs),
(1957,451,ls),
(1903,451,o),
(1743,609,o),
(1700,652,c),
(1583,768,l)
);
}
);
width = 2630;
}
);
unicode = 8734;
},
{
glyphname = integral;
lastChange = "2025-01-02 00:37:33 +0000";
layers = (
{
layerId = m01;
shapes = (
{
closed = 1;
nodes = (
(440,-504,o),
(587,-379,o),
(628,40,cs),
(720,983,ls),
(752,1307,o),
(808,1363,o),
(1018,1368,cs),
(1062,1369,o),
(1090,1396,o),
(1090,1440,cs),
(1090,1466,ls),
(1090,1510,o),
(1062,1528,o),
(1018,1528,cs),
(716,1528,o),
(568,1395,o),
(528,984,cs),
(436,41,ls),
(404,-283,o),
(348,-339,o),
(138,-344,cs),
(94,-345,o),
(66,-372,o),
(66,-416,cs),
(66,-432,ls),
(66,-476,o),
(94,-504,o),
(138,-504,cs)
);
}
);
width = 1156;
},
{
layerId = m002;
shapes = (
{
closed = 1;
nodes = (
(531,-504,o),
(667,-378,o),
(719,40,cs),
(811,783,ls),
(851,1106,o),
(899,1163,o),
(1018,1168,cs),
(1062,1170,o),
(1090,1196,o),
(1090,1240,cs),
(1090,1466,ls),
(1090,1510,o),
(1062,1528,o),
(1018,1528,cs),
(625,1528,o),
(488,1394,o),
(437,984,cs),
(345,241,ls),
(305,-83,o),
(257,-139,o),
(138,-144,cs),
(94,-146,o),
(66,-172,o),
(66,-216,cs),
(66,-432,ls),
(66,-476,o),
(94,-504,o),
(138,-504,cs)
);
}
);
width = 1156;
}
);
unicode = 8747;
},
{
glyphname = radical;
kernLeft = v;
kernRight = V;
lastChange = "2025-01-26 16:56:17 +0000";
layers = (
{
layerId = m01;
shapes = (
{
closed = 1;
nodes = (
(607,0,ls),
(652,0,o),
(683,20,o),
(700,62,cs),
(1238,1376,l),
(1546,1376,ls),
(1598,1376,o),
(1626,1404,o),
(1626,1448,cs),
(1626,1464,ls),
(1626,1508,o),
(1598,1536,o),
(1546,1536,cs),
(1184,1536,ls),
(1139,1536,o),
(1108,1516,o),
(1091,1474,cs),
(582,230,l),
(282,962,ls),
(265,1004,o),
(235,1024,o),
(190,1024,cs),
(161,1024,ls),
(108,1024,o),
(85,986,o),
(108,931,cs),
(464,62,ls),
(481,20,o),
(512,0,o),
(557,0,cs)
);
}
);
width = 1692;
},
{
layerId = m002;
shapes = (
{
closed = 1;
nodes = (
(715,0,ls),
(760,0,o),
(791,21,o),
(808,62,cs),
(1266,1176,l),
(1546,1176,ls),
(1598,1176,o),
(1626,1204,o),
(1626,1248,cs),
(1626,1464,ls),
(1626,1508,o),
(1598,1536,o),
(1546,1536,cs),
(1054,1536,ls),
(1009,1536,o),
(978,1515,o),
(961,1474,cs),
(636,684,l),
(523,962,ls),
(505,1006,o),
(476,1024,o),
(431,1024,cs),
(161,1024,ls),
(108,1024,o),
(85,986,o),
(108,931,cs),
(464,62,ls),
(481,20,o),
(512,0,o),
(557,0,cs)
);
}
);
width = 1692;
}
);
unicode = 8730;
},
{
glyphname = partialdiff;
kernLeft = c;
kernRight = l;
lastChange = "2025-02-01 18:31:51 +0000";
layers = (
{
layerId = m01;
shapes = (
{
closed = 1;
nodes = (
(808,-24,ls),
(1160,-24,o),
(1328,60,o),
(1328,496,cs),
(1328,1022,ls),
(1327,1485,o),
(1158,1568,o),
(808,1568,cs),
(646,1568,ls),
(324,1568,o),
(156,1501,o),
(124,1291,cs),
(116,1238,o),
(148,1208,o),
(201,1208,cs),
(218,1208,ls),
(268,1208,o),
(290,1234,o),
(301,1283,cs),
(327,1397,o),
(426,1424,o),
(660,1424,cs),
(794,1424,ls),
(1064,1424,o),
(1152,1387,o),
(1152,1015,cs),
(1152,863,l),
(1064,994,o),
(924,1048,o),
(794,1048,cs),
(592,1048,ls),
(240,1048,o),
(72,964,o),
(72,528,cs),
(72,496,ls),
(72,60,o),
(240,-24,o),
(592,-24,cs)
);
},
{
closed = 1;
nodes = (
(336,120,o),
(248,159,o),
(248,499,cs),
(248,525,ls),
(248,865,o),
(336,904,o),
(606,904,cs),
(794,904,ls),
(1054,904,o),
(1152,771,o),
(1152,525,cs),
(1152,499,ls),
(1152,159,o),
(1064,120,o),
(794,120,cs),
(606,120,ls)
);
}
);
width = 1416;
},
{
layerId = m002;
shapes = (
{
closed = 1;
nodes = (
(947,-24,ls),
(1422,-24,o),
(1590,60,o),
(1590,560,cs),
(1590,1135,ls),
(1590,1580,o),
(1422,1664,o),
(913,1664,cs),
(819,1664,ls),
(362,1664,o),
(194,1597,o),
(162,1297,cs),
(156,1244,o),
(186,1214,o),
(239,1214,cs),
(476,1214,ls),
(526,1214,o),
(554,1255,o),
(559,1289,cs),
(564,1324,o),
(649,1340,o),
(803,1340,cs),
(919,1340,ls),
(1109,1340,o),
(1194,1303,o),
(1194,1135,cs),
(1194,1088,l),
(1084,1165,o),
(963,1176,o),
(873,1176,cs),
(771,1176,ls),
(296,1176,o),
(128,1092,o),
(128,592,cs),
(128,560,ls),
(128,60,o),
(296,-24,o),
(771,-24,cs)
);
},
{
closed = 1;
nodes = (
(612,300,o),
(524,339,o),
(524,563,cs),
(524,589,ls),
(524,813,o),
(612,852,o),
(785,852,cs),
(873,852,ls),
(1116,852,o),
(1194,813,o),
(1194,589,cs),
(1194,563,ls),
(1194,339,o),
(1116,300,o),
(873,300,cs),
(785,300,ls)
);
}
);
width = 1742;
}
);
unicode = 8706;
},
{
glyphname = leftArrow;
kernLeft = O;
kernRight = O;
lastChange = "2025-01-04 17:50:18 +0000";
layers = (
{
anchors = (
{
name = bottom;
pos = (-180,-2302);
},
{
name = top;
pos = (1356,-2302);
}
);
layerId = m01;
shapes = (
{
closed = 1;
nodes = (
(825,41,ls),
(854,12,o),
(883,0,o),
(924,0,cs),
(996,0,ls),
(1063,0,o),
(1078,48,o),
(1028,98,cs),
(446,680,l),
(1554,680,ls),
(1606,680,o),
(1634,708,o),
(1634,760,cs),
(1634,776,ls),
(1634,828,o),
(1606,856,o),
(1554,856,cs),
(446,856,l),
(1028,1438,ls),
(1078,1488,o),
(1058,1536,o),
(987,1536,cs),
(924,1536,ls),
(883,1536,o),
(854,1524,o),
(825,1495,cs),
(155,825,ls),
(119,789,o),
(119,747,o),
(155,711,cs)
);
}
);
width = 1762;
},
{
anchors = (
{
name = bottom;
pos = (-186,-2302);
},
{
name = top;
pos = (1350,-2302);
}
);
layerId = m002;
shapes = (
{
closed = 1;
nodes = (
(596,41,ls),
(619,6,o),
(654,0,o),
(695,0,cs),
(1023,0,ls),
(1090,0,o),
(1095,39,o),
(1055,98,cs),
(747,560,l),
(1548,560,ls),
(1600,560,o),
(1628,588,o),
(1628,640,cs),
(1628,896,ls),
(1628,948,o),
(1600,976,o),
(1548,976,cs),
(747,976,l),
(1055,1438,ls),
(1095,1497,o),
(1085,1536,o),
(1014,1536,cs),
(695,1536,ls),
(654,1536,o),
(619,1530,o),
(596,1495,cs),
(149,825,ls),
(121,783,o),
(121,753,o),
(149,711,cs)
);
}
);
width = 1756;
}
);
unicode = 8592;
},
